<?xml version="1.0" encoding="utf-8"?>
<!-- Generator: Adobe Illustrator 16.0.0, SVG Export Plug-In . SVG Version: 6.00 Build 0)  -->
<!DOCTYPE svg PUBLIC "-//W3C//DTD SVG 1.1//EN" "http://www.w3.org/Graphics/SVG/1.1/DTD/svg11.dtd">
<svg version="1.1" id="Layer_1" xmlns="http://www.w3.org/2000/svg" xmlns:xlink="http://www.w3.org/1999/xlink" x="0px" y="0px"
	 width="512px" height="512px" viewBox="0 0 512 512" enable-background="new 0 0 512 512" xml:space="preserve">
<path fill="#FFB357" d="M280.583,9.467l33.386,30.192l44.008-9.454c18.4-3.953,36.803,6.672,42.58,24.583l13.814,42.84
	l42.841,13.815c17.912,5.776,28.537,24.18,24.583,42.58l-9.455,44.008l30.192,33.386c12.624,13.957,12.624,35.208,0,49.166
	l-30.192,33.385l9.455,44.009c3.953,18.399-6.672,36.803-24.583,42.579l-42.841,13.815l-13.814,42.84
	c-5.777,17.912-24.18,28.537-42.58,24.584l-44.008-9.455l-33.386,30.192c-13.958,12.624-35.208,12.624-49.166,0l-33.385-30.192
	l-44.008,9.455c-18.4,3.952-36.803-6.673-42.58-24.584l-13.815-42.84l-42.84-13.815c-17.912-5.776-28.537-24.18-24.583-42.579
	l9.455-44.009L9.467,280.583c-12.624-13.958-12.624-35.209,0-49.166l30.193-33.386l-9.455-44.008
	c-3.953-18.4,6.672-36.804,24.583-42.58l42.84-13.815l13.815-42.84c5.776-17.912,24.18-28.537,42.58-24.583l44.008,9.454
	l33.385-30.192C245.375-3.155,266.625-3.155,280.583,9.467z"/>
<path fill="#FCE3A0" d="M256,449.658c-106.783,0-193.659-86.875-193.659-193.658S149.217,62.341,256,62.341
	S449.658,149.216,449.658,256C449.658,362.783,362.783,449.658,256,449.658L256,449.658z"/>
<path fill="#FFCE71" d="M167.42,256c0-88.581,59.783-163.458,141.119-186.414C291.826,64.869,274.202,62.34,256,62.34
	c-106.783,0-193.659,86.875-193.659,193.659c0,106.783,86.875,193.658,193.659,193.658c18.202,0,35.826-2.529,52.539-7.246
	C227.203,419.457,167.42,344.581,167.42,256L167.42,256z"/>
<ellipse transform="matrix(0.003 -1 1 0.003 -74.0559 421.7372)" fill="#FF8E9E" cx="174.475" cy="248.008" rx="23.965" ry="30.094"/>
<ellipse transform="matrix(-0.003 1 -1 -0.003 587.1174 -88.1942)" fill="#FF8E9E" cx="337.524" cy="248.584" rx="23.965" ry="30.093"/>
<g>
	<path fill="#313D40" d="M189.553,204.49c-4.267,0-7.726,3.46-7.726,7.727v10.302c0,4.268,3.459,7.727,7.726,7.727
		s7.727-3.459,7.727-7.727v-10.302C197.28,207.95,193.82,204.49,189.553,204.49z"/>
	<path fill="#313D40" d="M321.416,204.49c-4.267,0-7.727,3.46-7.727,7.727v10.302c0,4.268,3.46,7.727,7.727,7.727
		c4.268,0,7.727-3.459,7.727-7.727v-10.302C329.143,207.95,325.684,204.49,321.416,204.49z"/>
	<path fill="#313D40" d="M275.815,234.092c-3.85-1.843-8.463-0.212-10.303,3.638c-1.716,3.589-5.45,5.908-9.513,5.908
		c-4.062,0-7.796-2.319-9.513-5.908c-1.841-3.85-6.455-5.478-10.303-3.638c-3.85,1.841-5.479,6.454-3.638,10.303
		c4.269,8.928,13.475,14.695,23.453,14.695s19.186-5.768,23.453-14.695C281.294,240.546,279.665,235.933,275.815,234.092z"/>
</g>
<rect y="0" fill="none" width="512" height="512"/>
</svg>
