<?xml version="1.0" encoding="utf-8"?>
<!-- Generator: Adobe Illustrator 16.0.0, SVG Export Plug-In . SVG Version: 6.00 Build 0)  -->
<!DOCTYPE svg PUBLIC "-//W3C//DTD SVG 1.1//EN" "http://www.w3.org/Graphics/SVG/1.1/DTD/svg11.dtd">
<svg version="1.1" id="Layer_1" xmlns="http://www.w3.org/2000/svg" xmlns:xlink="http://www.w3.org/1999/xlink" x="0px" y="0px"
	 width="512px" height="512px" viewBox="0 0 512 512" enable-background="new 0 0 512 512" xml:space="preserve">
<g>
	<g>
		<path fill="#FCE3A0" d="M309.125,15.522C271.742,1.915,233.27-2.445,196.199,1.265c-5.339,0.535-9.92,4.028-11.754,9.07
			c-2.379,6.536,0.421,13.881,6.618,17.04c91.374,46.581,135.721,154.926,99.727,253.817
			C254.664,380.446,150.834,434.46,51.244,411.522c-6.777-1.562-13.644,2.264-16.022,8.8l-0.002,0.007
			c-1.834,5.041-0.572,10.662,3.174,14.503c26.013,26.669,58.287,48.059,95.669,61.664c132.325,48.162,279.44-19.49,328.017-152.957
			C510.468,210.598,442.019,63.891,309.125,15.522z"/>
		<path fill="#FFCE71" d="M251.557,37.207c-21.277-7.744-42.971-11.924-64.438-12.87c1.09,1.219,2.414,2.257,3.945,3.038
			c91.373,46.581,135.72,154.926,99.726,253.817C254.664,380.446,150.834,434.46,51.244,411.522
			c-1.678-0.386-3.361-0.44-4.981-0.208c17.055,13.075,36.361,23.82,57.641,31.565c111.608,40.622,235.689-16.439,276.662-129.01
			C421.378,201.742,363.645,78.003,251.557,37.207L251.557,37.207z"/>
		
			<ellipse transform="matrix(0.003 -1 1 0.003 14.2114 623.9371)" fill="#FF8E9E" cx="320.009" cy="304.842" rx="18.437" ry="23.153"/>
		
			<ellipse transform="matrix(-0.003 1 -1 -0.003 752.0818 -139.167)" fill="#FF8E9E" cx="445.417" cy="305.334" rx="18.437" ry="23.153"/>
		<g>
			<path fill="#313D40" d="M327.082,266.575c-4.267,0-7.727,3.46-7.727,7.727v10.302c0,4.268,3.46,7.727,7.727,7.727
				c4.268,0,7.727-3.459,7.727-7.727v-10.302C334.809,270.035,331.35,266.575,327.082,266.575z"/>
			<path fill="#313D40" d="M438.342,266.575c-4.267,0-7.727,3.46-7.727,7.727v10.302c0,4.268,3.46,7.727,7.727,7.727
				c4.268,0,7.727-3.459,7.727-7.727v-10.302C446.068,270.035,442.609,266.575,438.342,266.575z"/>
			<path fill="#313D40" d="M402.527,295.903c-3.85-1.843-8.463-0.212-10.303,3.638c-1.716,3.589-5.45,5.908-9.512,5.908
				c-4.063,0-7.797-2.319-9.514-5.908c-1.841-3.85-6.455-5.478-10.303-3.638c-3.85,1.841-5.479,6.454-3.637,10.303
				c4.269,8.928,13.475,14.696,23.453,14.696c9.978,0,19.185-5.769,23.452-14.696C408.006,302.357,406.377,297.743,402.527,295.903
				L402.527,295.903z"/>
		</g>
	</g>
	<rect y="0" fill="none" width="512" height="512"/>
</g>
</svg>
