<?xml version="1.0" encoding="utf-8"?>
<!-- Generator: Adobe Illustrator 16.0.0, SVG Export Plug-In . SVG Version: 6.00 Build 0)  -->
<!DOCTYPE svg PUBLIC "-//W3C//DTD SVG 1.1//EN" "http://www.w3.org/Graphics/SVG/1.1/DTD/svg11.dtd">
<svg version="1.1" id="Layer_1" xmlns="http://www.w3.org/2000/svg" xmlns:xlink="http://www.w3.org/1999/xlink" x="0px" y="0px"
	 width="512px" height="512px" viewBox="0 0 512 512" enable-background="new 0 0 512 512" xml:space="preserve">
<g>
	<rect y="0" fill="none" width="512" height="512"/>
	<g>
		<path fill="#FFB357" d="M149.98,103.197l17.649,15.962l23.266-4.999c9.728-2.091,19.458,3.527,22.512,12.996l7.303,22.649
			l22.649,7.304c9.47,3.054,15.086,12.783,12.997,22.511l-4.998,23.267l15.961,17.649c6.675,7.38,6.675,18.614,0,25.994
			l-15.961,17.649l4.998,23.267c2.091,9.729-3.526,19.458-12.997,22.511l-22.649,7.304l-7.303,22.65
			c-3.054,9.469-12.784,15.087-22.512,12.996l-23.266-4.999L149.98,363.87c-7.38,6.674-18.614,6.674-25.994,0l-17.649-15.963
			l-23.266,4.999c-9.728,2.091-19.458-3.527-22.511-12.996l-7.304-22.65l-22.65-7.304c-9.469-3.053-15.086-12.782-12.996-22.511
			l4.999-23.267L6.646,246.531c-6.674-7.379-6.674-18.614,0-25.994l15.962-17.649l-4.999-23.267
			c-2.09-9.728,3.527-19.458,12.997-22.511l22.649-7.304l7.304-22.649c3.053-9.469,12.783-15.087,22.511-12.996l23.266,4.999
			l17.649-15.962C131.366,96.522,142.601,96.522,149.98,103.197L149.98,103.197z"/>
		<path fill="#FCE3A0" d="M136.983,335.918c-56.455,0-102.384-45.929-102.384-102.383c0-56.455,45.929-102.384,102.384-102.384
			c56.456,0,102.385,45.929,102.385,102.384C239.368,289.99,193.439,335.918,136.983,335.918L136.983,335.918z"/>
		<path fill="#FFCE71" d="M90.153,233.535c0-46.832,31.605-86.418,74.607-98.554c-8.836-2.494-18.153-3.831-27.776-3.831
			c-56.455,0-102.384,45.93-102.384,102.384c0,56.455,45.929,102.384,102.384,102.384c9.624,0,18.94-1.338,27.776-3.832
			C121.759,319.951,90.153,280.366,90.153,233.535z"/>
		
			<ellipse transform="matrix(-1 -0.003 0.003 -1 150.3549 465.4375)" fill="#FF8E9E" cx="75.527" cy="232.606" rx="21.723" ry="17.299"/>
		
			<ellipse transform="matrix(1 0.003 -0.003 1 0.7001 -0.5788)" fill="#FF8E9E" cx="193.234" cy="233.009" rx="21.723" ry="17.299"/>
		<g>
			<path fill="#313D40" d="M86.416,201.186c-3.08,0-5.578,2.497-5.578,5.577v7.438c0,3.08,2.498,5.577,5.578,5.577
				c3.081,0,5.578-2.497,5.578-5.577v-7.438C91.993,203.683,89.496,201.186,86.416,201.186z"/>
			<path fill="#313D40" d="M181.603,201.186c-3.081,0-5.578,2.497-5.578,5.577v7.438c0,3.08,2.497,5.577,5.578,5.577
				c3.08,0,5.578-2.497,5.578-5.577v-7.438C187.181,203.683,184.683,201.186,181.603,201.186z"/>
			<path fill="#313D40" d="M148.685,215.117c-2.779-1.331-6.109-0.153-7.438,2.626c-1.239,2.591-3.934,4.264-6.867,4.264
				c-2.932,0-5.628-1.673-6.867-4.264c-1.329-2.779-4.66-3.955-7.438-2.626c-2.779,1.329-3.955,4.659-2.626,7.438
				c3.083,6.445,9.728,10.608,16.93,10.608c7.204,0,13.85-4.163,16.93-10.608C152.64,219.776,151.464,216.445,148.685,215.117z"/>
		</g>
		<g>
			<path fill="#D4D4D5" d="M381.23,208.013c-8.321-2.111-17.035-3.235-26.006-3.235c-45.938,0-85.011,29.361-99.5,70.337v0.005
				c-37.756,0.5-69.289,31.343-69.289,70.347c0,38.849,31.495,70.343,70.344,70.343h149.68L381.23,208.013z"/>
			<path fill="#EFEDEE" d="M460.726,310.29c-0.004-49.407-33.876-90.707-79.495-102.277c-45.68,11.599-79.476,52.992-79.476,102.281
				c0,58.005,46.804,105.073,104.706,105.515h54.422c29.136-0.002,52.758-23.622,52.758-52.759
				C513.641,333.531,489.515,310.136,460.726,310.29z"/>
			
				<ellipse transform="matrix(-1 -0.003 0.003 -1 611.3595 670.152)" fill="#FF8E9E" cx="306.185" cy="334.615" rx="18.941" ry="15.084"/>
			
				<ellipse transform="matrix(1 0.003 -0.003 1 1.0122 -1.2314)" fill="#FF8E9E" cx="408.773" cy="334.995" rx="18.941" ry="15.084"/>
			<path fill="#313D40" d="M309.882,305.377c-3.081,0-5.578,2.498-5.578,5.578v7.438c0,3.08,2.497,5.576,5.578,5.576
				c3.08,0,5.577-2.496,5.577-5.576v-7.438C315.459,307.875,312.962,305.377,309.882,305.377z"/>
			<path fill="#313D40" d="M405.067,305.377c-3.08,0-5.577,2.498-5.577,5.578v7.438c0,3.08,2.497,5.576,5.577,5.576
				c3.081,0,5.577-2.496,5.577-5.576v-7.438C410.645,307.875,408.148,305.377,405.067,305.377z"/>
			<path fill="#313D40" d="M372.151,315.59c-2.78-1.33-6.11-0.153-7.438,2.627c-1.239,2.591-3.935,4.265-6.866,4.265
				c-2.934,0-5.629-1.674-6.867-4.265c-1.329-2.78-4.659-3.955-7.438-2.627c-2.779,1.33-3.955,4.659-2.626,7.438
				c3.082,6.443,9.727,10.606,16.93,10.606c7.202,0,13.849-4.164,16.93-10.606C376.105,320.249,374.929,316.92,372.151,315.59
				L372.151,315.59z"/>
		</g>
	</g>
</g>
</svg>
