<?xml version="1.0" encoding="utf-8"?>
<!-- Generator: Adobe Illustrator 16.0.0, SVG Export Plug-In . SVG Version: 6.00 Build 0)  -->
<!DOCTYPE svg PUBLIC "-//W3C//DTD SVG 1.1//EN" "http://www.w3.org/Graphics/SVG/1.1/DTD/svg11.dtd">
<svg version="1.1" id="Layer_1" xmlns="http://www.w3.org/2000/svg" xmlns:xlink="http://www.w3.org/1999/xlink" x="0px" y="0px"
	 width="512px" height="512px" viewBox="0 0 512 512" enable-background="new 0 0 512 512" xml:space="preserve">
<g>
	<g>
		<path fill="#FCE3A0" d="M275.102,220.97c31.121-85.51-12.906-179.874-98.385-210.986c-24.045-8.753-48.792-11.557-72.636-9.17
			c-3.434,0.345-6.38,2.591-7.561,5.834c-1.53,4.203,0.271,8.931,4.257,10.961c58.773,29.962,87.298,99.65,64.146,163.262
			c-4.548,12.496-10.771,23.871-18.309,33.982l77.625,77.625C246.59,274.351,264.497,250.101,275.102,220.97z"/>
		<path fill="#FFCE71" d="M228.477,203.999c13.26-36.431,11.548-75.818-4.817-110.908c-16.365-35.087-45.435-61.711-81.858-74.967
			v-0.001c-13.974-5.086-28.539-7.994-43.29-8.646l-2.517-0.108c-0.131,3.368,1.646,6.64,4.783,8.238
			c58.773,29.962,87.298,99.65,64.146,163.262c-23.237,63.843-90.022,98.585-154.079,83.828c-3.182-0.73-6.747,0.388-8.961,3.239
			c0,0.001-0.001,0.001-0.002,0.002c-0.557,0.721-1.019,1.526-1.343,2.42l-0.001,0.004c-1.181,3.242-0.368,6.858,2.042,9.33
			c16.732,17.153,37.49,30.911,61.537,39.663c56.231,20.467,116.609,8.411,160.125-26.878l-32.488-32.486
			C208.017,244.672,220.601,225.638,228.477,203.999L228.477,203.999z"/>
		<path fill="#D4D4D5" d="M328.572,224.138c-11.529-2.925-23.602-4.482-36.027-4.482c-63.639,0-117.768,40.674-137.838,97.438v0.006
			c-52.305,0.693-95.986,43.422-95.986,97.453c0,53.816,43.629,97.447,97.448,97.447h207.354L328.572,224.138z"/>
		<path fill="#EFEDEE" d="M438.696,365.823c-0.004-68.443-46.929-125.656-110.124-141.686c-63.283,16.067-110.1,73.41-110.1,141.689
			c0,80.356,64.838,145.562,145.051,146.17h75.391c40.364,0,73.086-32.721,73.086-73.086C512,398.02,478.579,365.61,438.696,365.823
			z"/>
		
			<ellipse transform="matrix(-0.003 1 -1 -0.003 617.8441 189.0608)" fill="#FF8E9E" cx="214.674" cy="402.529" rx="23.965" ry="30.094"/>
		
			<ellipse transform="matrix(0.003 -1 1 0.003 -26.5656 779.5701)" fill="#FF8E9E" cx="377.671" cy="403.108" rx="23.965" ry="30.094"/>
		<g>
			<path fill="#313D40" d="M229.73,359.018c-4.267,0-7.727,3.459-7.727,7.727v10.304c0,4.267,3.459,7.727,7.727,7.727
				s7.726-3.46,7.726-7.727v-10.304C237.457,362.477,233.998,359.018,229.73,359.018z"/>
			<path fill="#313D40" d="M361.594,359.018c-4.268,0-7.727,3.459-7.727,7.727v10.304c0,4.267,3.459,7.727,7.727,7.727
				s7.727-3.46,7.727-7.727v-10.304C369.32,362.477,365.859,359.018,361.594,359.018z"/>
			<path fill="#313D40" d="M315.992,373.164c-3.85-1.843-8.463-0.212-10.303,3.64c-1.717,3.589-5.451,5.908-9.514,5.908
				s-7.797-2.319-9.514-5.908c-1.842-3.852-6.455-5.479-10.305-3.64c-3.85,1.843-5.479,6.454-3.637,10.305
				c4.271,8.928,13.477,14.693,23.452,14.693c9.979,0,19.185-5.768,23.453-14.693C321.471,379.618,319.842,375.007,315.992,373.164
				L315.992,373.164z"/>
			<path fill="#313D40" d="M188.009,197.684c2.133-0.001,4.065-0.865,5.463-2.264c1.398-1.399,2.262-3.329,2.263-5.464v-10.304
				c0-4.269-3.459-7.727-7.726-7.727c-4.268,0.001-7.726,3.459-7.727,7.728v10.304C180.283,194.223,183.741,197.683,188.009,197.684
				z"/>
			<path fill="#313D40" d="M263.523,195.419c1.396-1.398,2.262-3.329,2.264-5.463v-10.304c0-4.269-3.46-7.728-7.727-7.728
				c-4.27,0.001-7.729,3.459-7.729,7.727v10.304c0,4.268,3.459,7.727,7.729,7.728C260.193,197.683,262.125,196.819,263.523,195.419z
				"/>
			<path fill="#313D40" d="M223.548,203.058h0.004c8.235,0,15.823-4.738,19.331-12.071c1.842-3.849,0.214-8.463-3.636-10.304
				c-3.849-1.846-8.463-0.214-10.304,3.635c-0.94,1.968-3.107,3.286-5.392,3.286c0,0,0,0-0.001,0c-2.285,0-4.451-1.317-5.391-3.284
				c-1.842-3.85-6.455-5.478-10.303-3.637c-3.85,1.841-5.479,6.454-3.639,10.304C207.723,198.321,215.311,203.058,223.548,203.058z"
				/>
		</g>
	</g>
	<rect y="0" fill="none" width="512" height="512"/>
</g>
</svg>
