<?xml version="1.0" encoding="utf-8"?>
<!-- Generator: Adobe Illustrator 16.0.0, SVG Export Plug-In . SVG Version: 6.00 Build 0)  -->
<!DOCTYPE svg PUBLIC "-//W3C//DTD SVG 1.1//EN" "http://www.w3.org/Graphics/SVG/1.1/DTD/svg11.dtd">
<svg version="1.1" id="Layer_1" xmlns="http://www.w3.org/2000/svg" xmlns:xlink="http://www.w3.org/1999/xlink" x="0px" y="0px"
	 width="512px" height="512px" viewBox="0 0 512 512" enable-background="new 0 0 512 512" xml:space="preserve">
<rect y="0" fill="none" width="512" height="512"/>
<g>
	<path fill="#D4D4D5" d="M304.809,95.955c-13.021-3.303-26.656-5.063-40.693-5.063c-71.883,0-133.022,45.943-155.694,110.062v0.007
		C49.341,201.743,0,250.005,0,311.037c0,60.789,49.282,110.07,110.073,110.07h234.214L304.809,95.955z"/>
	<path fill="#EFEDEE" d="M429.2,255.995c-0.006-77.311-53.008-141.936-124.392-160.04c-71.478,18.149-124.36,82.921-124.36,160.047
		c0,90.764,73.236,164.415,163.841,165.105h85.157C475.037,421.105,512,384.145,512,338.553
		C512,292.363,474.249,255.754,429.2,255.995z"/>
	
		<ellipse transform="matrix(-1 -0.003 0.003 -1 373.8728 588.6803)" fill="#FF8E9E" cx="187.38" cy="294.058" rx="29.639" ry="23.602"/>
	<ellipse transform="matrix(1 0.003 -0.003 1 0.8899 -1.0475)" fill="#FF8E9E" cx="347.907" cy="294.653" rx="29.639" ry="23.602"/>
	<path fill="#313D40" d="M193.165,248.308c-4.821,0-8.729,3.909-8.729,8.729v11.638c0,4.82,3.907,8.726,8.729,8.726
		c4.819,0,8.727-3.905,8.727-8.726v-11.638C201.892,252.217,197.984,248.308,193.165,248.308z"/>
	<path fill="#313D40" d="M342.108,248.308c-4.82,0-8.728,3.909-8.728,8.729v11.638c0,4.82,3.907,8.726,8.728,8.726
		s8.727-3.905,8.727-8.726v-11.638C350.835,252.217,346.929,248.308,342.108,248.308z"/>
	<path fill="#313D40" d="M290.603,264.288c-4.351-2.081-9.562-0.239-11.64,4.111c-1.939,4.054-6.157,6.673-10.744,6.673
		c-4.591,0-8.809-2.619-10.746-6.673c-2.079-4.351-7.29-6.189-11.638-4.111c-4.349,2.082-6.188,7.291-4.109,11.64
		c4.823,10.083,15.22,16.597,26.491,16.597c11.27,0,21.67-6.516,26.491-16.597C296.789,271.579,294.948,266.37,290.603,264.288
		L290.603,264.288z"/>
</g>
</svg>
