<?xml version="1.0" encoding="utf-8"?>
<!-- Generator: Adobe Illustrator 16.0.0, SVG Export Plug-In . SVG Version: 6.00 Build 0)  -->
<!DOCTYPE svg PUBLIC "-//W3C//DTD SVG 1.1//EN" "http://www.w3.org/Graphics/SVG/1.1/DTD/svg11.dtd">
<svg version="1.1" id="Layer_1" xmlns="http://www.w3.org/2000/svg" xmlns:xlink="http://www.w3.org/1999/xlink" x="0px" y="0px"
	 width="512px" height="512px" viewBox="0 0 512 512" enable-background="new 0 0 512 512" xml:space="preserve">
<g>
	<g>
		<path fill="#D4D4D5" d="M304.811,5.063C291.787,1.76,278.152,0,264.115,0c-71.881,0-133.021,45.94-155.693,110.06v0.007
			C49.34,110.85,0,159.114,0,220.145c0,60.791,49.28,110.071,110.071,110.071h234.217L304.811,5.063z"/>
		<path fill="#EFEDEE" d="M429.199,165.104C429.196,87.792,376.191,23.166,304.81,5.063
			c-71.481,18.148-124.364,82.92-124.364,160.048c0,90.767,73.237,164.417,163.841,165.105h85.157
			c45.594,0,82.554-36.961,82.554-82.555C512,201.472,474.25,164.863,429.199,165.104z"/>
		
			<ellipse transform="matrix(-0.003 1 -1 -0.003 403.264 -7.7988)" fill="#FF8E9E" cx="205.52" cy="197.13" rx="20.895" ry="26.24"/>
		
			<ellipse transform="matrix(0.003 -1 1 0.003 148.9953 544.7463)" fill="#FF8E9E" cx="347.687" cy="197.652" rx="20.895" ry="26.239"/>
		<g>
			<path fill="#313D40" d="M210.672,156.631c-4.268,0-7.727,3.459-7.727,7.726v10.304c0,4.267,3.459,7.726,7.727,7.726
				c4.267,0,7.727-3.459,7.727-7.726v-10.304C218.398,160.09,214.939,156.631,210.672,156.631z"/>
			<path fill="#313D40" d="M342.534,156.631c-4.268,0-7.727,3.459-7.727,7.726v10.304c0,4.267,3.459,7.726,7.727,7.726
				c4.269,0,7.728-3.459,7.728-7.726v-10.304C350.262,160.09,346.803,156.631,342.534,156.631z"/>
			<path fill="#313D40" d="M296.934,170.78c-3.85-1.843-8.463-0.213-10.303,3.639c-1.716,3.589-5.449,5.908-9.512,5.908
				c-4.063,0-7.798-2.319-9.515-5.908c-1.84-3.852-6.455-5.479-10.304-3.639c-3.85,1.842-5.479,6.454-3.637,10.304
				c4.269,8.928,13.476,14.694,23.454,14.694c9.978,0,19.186-5.768,23.452-14.694C302.411,177.234,300.783,172.62,296.934,170.78
				L296.934,170.78z"/>
			<path fill="#313D40" d="M225.347,138.482l-13.382-7.726c-3.695-2.135-8.421-0.869-10.554,2.827
				c-2.134,3.694-0.867,8.421,2.827,10.555l13.383,7.728c1.217,0.701,2.545,1.035,3.855,1.035c2.67,0,5.268-1.386,6.698-3.863
				C230.31,145.341,229.043,140.615,225.347,138.482L225.347,138.482z"/>
			<path fill="#313D40" d="M351.797,133.583c-2.135-3.696-6.859-4.962-10.556-2.827l-13.383,7.726
				c-3.694,2.135-4.961,6.859-2.827,10.556c1.432,2.479,4.028,3.863,6.698,3.863c1.312,0,2.64-0.334,3.855-1.036l13.382-7.727
				C352.664,142.004,353.932,137.279,351.797,133.583L351.797,133.583z"/>
		</g>
		<path fill="#7CE3FF" d="M295.456,418.225l0.015,0.015c12.545-12.544,15.539-39.513,15.49-57.242v-0.026
			c-0.023-2.82-2.33-5.115-5.152-5.123c-17.455-0.049-44.955,3.203-57.241,15.49l-0.001,0.001l0.015,0.015
			c-13.24,13.239-12.753,33.849,0.136,46.737C261.665,431.038,282.588,431.091,295.456,418.225z"/>
		<path fill="#B9F0FF" d="M174.418,411.268l0.008,0.008c7.168-7.168,8.879-22.577,8.851-32.709v-0.018
			c-0.014-1.611-1.331-2.923-2.942-2.928c-9.975-0.027-25.688,1.831-32.71,8.854h-0.001l0.008,0.008
			c-7.565,7.564-7.287,19.343,0.078,26.707C155.108,418.59,167.064,418.619,174.418,411.268L174.418,411.268z"/>
		<path fill="#7CE3FF" d="M389.404,409.377l0.012,0.012c9.636-9.635,11.937-30.348,11.898-43.966V365.4
			c-0.02-2.166-1.789-3.928-3.957-3.934c-13.406-0.037-34.529,2.46-43.965,11.896l-0.002,0.001l0.012,0.012
			c-10.17,10.169-9.795,25.997,0.104,35.896C363.451,419.221,379.523,419.26,389.404,409.377z"/>
		<path fill="#7CE3FF" d="M215.894,445.628c-13.407-0.037-34.529,2.46-43.965,11.896l-0.001,0.001l0.012,0.012
			c-10.169,10.169-9.795,25.997,0.104,35.896c9.944,9.946,26.015,9.987,35.897,0.104l0.012,0.012
			c9.634-9.635,11.935-30.348,11.897-43.965v-0.021C219.833,447.396,218.062,445.634,215.894,445.628L215.894,445.628z"/>
		<path fill="#7CE3FF" d="M124.346,440.006c-17.455-0.047-44.956,3.203-57.242,15.489l-0.001,0.001l0.015,0.016
			c-13.24,13.24-12.754,33.85,0.136,46.738c12.948,12.949,33.872,13.004,46.739,0.136l0.014,0.016
			c12.545-12.545,15.54-39.514,15.491-57.242v-0.028C129.473,442.308,127.167,440.014,124.346,440.006z"/>
		<path fill="#B9F0FF" d="M322.975,456.704c-13.406-0.036-34.529,2.461-43.965,11.896l-0.002,0.001l0.012,0.012
			c-10.168,10.169-9.795,25.998,0.104,35.896c9.943,9.946,26.017,9.987,35.896,0.104l0.013,0.013
			c9.636-9.636,11.938-30.349,11.897-43.967v-0.021C326.911,458.474,325.141,456.711,322.975,456.704L322.975,456.704z"/>
		<path fill="#7CE3FF" d="M416.889,459.783c-9.976-0.027-25.688,1.83-32.711,8.852l0,0l0.008,0.009
			c-7.565,7.565-7.287,19.344,0.078,26.707c7.397,7.401,19.354,7.432,26.707,0.077l0.01,0.009
			c7.168-7.168,8.879-22.578,8.852-32.711v-0.017C419.816,461.099,418.501,459.787,416.889,459.783z"/>
	</g>
	<rect x="0" fill="none" width="512" height="512"/>
</g>
</svg>
