<?xml version="1.0" encoding="utf-8"?>
<!-- Generator: Adobe Illustrator 16.0.0, SVG Export Plug-In . SVG Version: 6.00 Build 0)  -->
<!DOCTYPE svg PUBLIC "-//W3C//DTD SVG 1.1//EN" "http://www.w3.org/Graphics/SVG/1.1/DTD/svg11.dtd">
<svg version="1.1" id="Layer_1" xmlns="http://www.w3.org/2000/svg" xmlns:xlink="http://www.w3.org/1999/xlink" x="0px" y="0px"
	 width="512px" height="512px" viewBox="0 0 512 512" enable-background="new 0 0 512 512" xml:space="preserve">
<g>
	<g>
		<path fill="#FFB357" d="M180.658,6.096l21.494,19.44l28.335-6.089c11.848-2.545,23.696,4.296,27.415,15.829l8.896,27.583
			l27.582,8.896c11.532,3.719,18.374,15.568,15.829,27.415l-6.089,28.335L323.563,149c8.128,8.987,8.128,22.669,0,31.656
			l-19.44,21.495l6.089,28.335c2.546,11.847-4.297,23.696-15.829,27.415l-27.582,8.896l-8.896,27.583
			c-3.719,11.533-15.567,18.373-27.415,15.829l-28.335-6.089l-21.494,19.44c-8.987,8.129-22.67,8.129-31.656,0l-21.495-19.44
			l-28.335,6.089c-11.847,2.545-23.696-4.296-27.415-15.829l-8.896-27.583L35.279,257.9c-11.532-3.718-18.373-15.567-15.828-27.415
			l6.088-28.335L6.096,180.657c-8.128-8.987-8.128-22.669,0-31.656l19.44-21.495l-6.089-28.335
			c-2.545-11.847,4.297-23.696,15.829-27.415L62.86,62.86l8.896-27.583c3.719-11.533,15.568-18.373,27.415-15.829l28.335,6.089
			L149,6.097C157.988-2.032,171.67-2.032,180.658,6.096L180.658,6.096z"/>
		<path fill="#FCE3A0" d="M164.829,289.52c-68.754,0-124.69-55.937-124.69-124.689c0-68.755,55.937-124.69,124.69-124.69
			s124.689,55.936,124.689,124.69C289.52,233.583,233.583,289.52,164.829,289.52L164.829,289.52z"/>
		<path fill="#FFCE71" d="M107.795,164.829c0-57.034,38.493-105.245,90.862-120.024c-10.763-3.037-22.108-4.666-33.828-4.666
			c-68.754,0-124.69,55.936-124.69,124.69s55.937,124.688,124.69,124.688c11.72,0,23.065-1.629,33.828-4.664
			C146.288,270.073,107.795,221.863,107.795,164.829L107.795,164.829z"/>
		
			<ellipse transform="matrix(-1 -0.003 0.003 -1 203.7404 313.9077)" fill="#FF8E9E" cx="102.105" cy="156.801" rx="23.152" ry="18.438"/>
		<ellipse transform="matrix(1 0.003 -0.003 1 0.4736 -0.6831)" fill="#FF8E9E" cx="227.554" cy="157.24" rx="23.153" ry="18.437"/>
		<g>
			<path fill="#313D40" d="M109.199,118.509c-4.268,0-7.728,3.459-7.728,7.727v10.302c0,4.267,3.459,7.727,7.728,7.727
				c4.268,0,7.727-3.46,7.727-7.727v-10.302C116.926,121.968,113.466,118.509,109.199,118.509z"/>
			<path fill="#313D40" d="M220.459,118.509c-4.268,0-7.728,3.459-7.728,7.727v10.302c0,4.267,3.459,7.727,7.728,7.727
				c4.267,0,7.726-3.46,7.726-7.727v-10.302C228.185,121.968,224.726,118.509,220.459,118.509z"/>
			<path fill="#313D40" d="M185.16,137.808c-3.851-1.843-8.464-0.212-10.304,3.638c-1.716,3.59-5.451,5.908-9.513,5.908
				s-7.796-2.318-9.513-5.908c-1.841-3.85-6.455-5.478-10.304-3.638c-3.85,1.842-5.479,6.454-3.637,10.304
				c4.27,8.927,13.476,14.695,23.453,14.695s19.185-5.769,23.453-14.695C190.638,144.261,189.009,139.649,185.16,137.808z"/>
		</g>
		<path fill="#D4D4D5" d="M377.764,118.995c-8.438-2.14-17.271-3.28-26.365-3.28c-46.57,0-86.184,29.765-100.872,71.306v0.006
			c-38.277,0.507-70.244,31.775-70.244,71.317c0,39.387,31.928,71.313,71.313,71.313h151.747L377.764,118.995z"/>
		<path fill="#EFEDEE" d="M458.355,222.684c-0.003-50.09-34.343-91.959-80.592-103.688c-46.312,11.759-80.572,53.723-80.572,103.692
			c0,58.808,47.451,106.523,106.151,106.97h55.171c29.54,0,53.485-23.946,53.485-53.485
			C512,246.245,487.541,222.528,458.355,222.684L458.355,222.684z"/>
		
			<ellipse transform="matrix(-1 -0.003 0.003 -1 574.3558 499.8567)" fill="#FF8E9E" cx="287.553" cy="249.497" rx="23.153" ry="18.437"/>
		<ellipse transform="matrix(1 0.003 -0.003 1 0.7531 -1.24)" fill="#FF8E9E" cx="412.978" cy="249.986" rx="23.152" ry="18.438"/>
		<path fill="#313D40" d="M294.632,211.225c-4.268,0-7.728,3.46-7.728,7.727v10.302c0,4.268,3.46,7.727,7.728,7.727
			c4.267,0,7.726-3.459,7.726-7.727v-10.302C302.357,214.685,298.898,211.225,294.632,211.225z"/>
		<path fill="#313D40" d="M405.891,211.225c-4.266,0-7.727,3.46-7.727,7.727v10.302c0,4.268,3.46,7.727,7.727,7.727
			c4.268,0,7.727-3.459,7.727-7.727v-10.302C413.616,214.685,410.157,211.225,405.891,211.225z"/>
		<path fill="#313D40" d="M370.592,230.525c-3.851-1.843-8.463-0.212-10.304,3.638c-1.716,3.589-5.449,5.908-9.513,5.908
			c-4.062,0-7.796-2.319-9.513-5.908c-1.841-3.85-6.455-5.478-10.303-3.638c-3.851,1.841-5.479,6.454-3.639,10.303
			c4.271,8.928,13.477,14.695,23.453,14.695c9.979,0,19.186-5.768,23.453-14.695C376.07,236.978,374.441,232.365,370.592,230.525
			L370.592,230.525z"/>
		<path fill="#7CE3FF" d="M295.456,418.225l0.015,0.015c12.544-12.544,15.539-39.513,15.49-57.242v-0.028
			c-0.024-2.82-2.33-5.115-5.152-5.121c-17.455-0.05-44.955,3.202-57.241,15.489l-0.001,0.001l0.015,0.014
			c-13.24,13.24-12.753,33.85,0.136,46.738C261.665,431.039,282.588,431.091,295.456,418.225z"/>
		<path fill="#B9F0FF" d="M174.418,411.268l0.008,0.008c7.168-7.168,8.879-22.577,8.851-32.709v-0.018
			c-0.014-1.611-1.331-2.923-2.942-2.927c-9.975-0.028-25.688,1.831-32.71,8.853h-0.001l0.008,0.008
			c-7.565,7.564-7.287,19.343,0.078,26.707C155.108,418.59,167.064,418.62,174.418,411.268L174.418,411.268z"/>
		<path fill="#7CE3FF" d="M389.405,409.377l0.011,0.012c9.636-9.635,11.937-30.348,11.898-43.966V365.4
			c-0.019-2.166-1.789-3.928-3.957-3.934c-13.406-0.037-34.529,2.46-43.965,11.896l-0.002,0.001l0.012,0.011
			c-10.169,10.169-9.795,25.998,0.104,35.896C363.451,419.221,379.523,419.26,389.405,409.377z"/>
		<path fill="#7CE3FF" d="M215.894,445.628c-13.407-0.037-34.529,2.46-43.965,11.896l-0.001,0.001l0.012,0.012
			c-10.169,10.169-9.795,25.997,0.104,35.896c9.944,9.946,26.015,9.987,35.897,0.104l0.012,0.011
			c9.634-9.634,11.935-30.347,11.897-43.965v-0.022C219.833,447.396,218.062,445.634,215.894,445.628L215.894,445.628z"/>
		<path fill="#7CE3FF" d="M124.346,440.006c-17.455-0.047-44.956,3.203-57.242,15.49l-0.001,0.001l0.015,0.015
			c-13.24,13.24-12.754,33.85,0.136,46.738c12.948,12.95,33.872,13.004,46.739,0.136l0.014,0.016
			c12.545-12.545,15.54-39.514,15.491-57.242v-0.029C129.473,442.308,127.167,440.014,124.346,440.006z"/>
		<path fill="#B9F0FF" d="M322.975,456.705c-13.407-0.037-34.529,2.461-43.965,11.896l-0.002,0.001l0.012,0.012
			c-10.169,10.169-9.795,25.998,0.104,35.896c9.944,9.947,26.016,9.988,35.897,0.104l0.012,0.012
			c9.636-9.635,11.937-30.348,11.898-43.966v-0.022C326.911,458.474,325.141,456.711,322.975,456.705L322.975,456.705z"/>
		<path fill="#7CE3FF" d="M416.889,459.784c-9.976-0.028-25.689,1.83-32.711,8.851l0,0l0.008,0.009
			c-7.566,7.565-7.287,19.344,0.077,26.707c7.398,7.401,19.355,7.432,26.708,0.077l0.009,0.009
			c7.168-7.168,8.879-22.578,8.851-32.711v-0.017C419.817,461.099,418.501,459.788,416.889,459.784z"/>
	</g>
	<rect x="0" fill="none" width="512" height="512"/>
</g>
</svg>
