<?xml version="1.0" encoding="utf-8"?>
<!-- Generator: Adobe Illustrator 16.0.0, SVG Export Plug-In . SVG Version: 6.00 Build 0)  -->
<!DOCTYPE svg PUBLIC "-//W3C//DTD SVG 1.1//EN" "http://www.w3.org/Graphics/SVG/1.1/DTD/svg11.dtd">
<svg version="1.1" id="Layer_1" xmlns="http://www.w3.org/2000/svg" xmlns:xlink="http://www.w3.org/1999/xlink" x="0px" y="0px"
	 width="512px" height="512px" viewBox="0 0 512 512" enable-background="new 0 0 512 512" xml:space="preserve">
<g>
	<g>
		<path fill="#7CE3FF" d="M295.457,418.225l0.014,0.016c12.545-12.545,15.539-39.512,15.49-57.242v-0.029
			c-0.023-2.82-2.33-5.113-5.151-5.121c-17.455-0.048-44.956,3.202-57.241,15.489l-0.001,0.001l0.015,0.016
			c-13.239,13.238-12.753,33.849,0.137,46.737C261.666,431.04,282.588,431.093,295.457,418.225L295.457,418.225z"/>
		<path fill="#B9F0FF" d="M174.418,411.268l0.008,0.008c7.168-7.168,8.879-22.577,8.852-32.709v-0.018
			c-0.015-1.611-1.331-2.922-2.942-2.927c-9.975-0.026-25.688,1.831-32.71,8.853h-0.001l0.008,0.008
			c-7.564,7.565-7.287,19.343,0.077,26.707C155.109,418.59,167.065,418.621,174.418,411.268L174.418,411.268z"/>
		<g>
			<path fill="#7CE3FF" d="M389.406,409.377l0.011,0.012c9.635-9.635,11.936-30.348,11.897-43.965v-0.021
				c-0.019-2.168-1.789-3.93-3.957-3.936c-13.406-0.037-34.528,2.46-43.965,11.896l-0.001,0.001l0.011,0.012
				c-10.168,10.169-9.795,25.997,0.104,35.897C363.451,419.221,379.523,419.261,389.406,409.377z"/>
			<path fill="#7CE3FF" d="M215.895,445.628c-13.406-0.037-34.527,2.46-43.965,11.896l-0.001,0.001l0.012,0.012
				c-10.169,10.168-9.795,25.996,0.104,35.896c9.944,9.946,26.016,9.987,35.898,0.104l0.012,0.011
				c9.635-9.634,11.935-30.346,11.896-43.964v-0.022C219.832,447.396,218.062,445.635,215.895,445.628L215.895,445.628z"/>
			<path fill="#7CE3FF" d="M124.348,440.007c-17.455-0.048-44.956,3.202-57.242,15.489l-0.001,0.001l0.016,0.015
				c-13.24,13.24-12.754,33.849,0.136,46.737c12.948,12.95,33.872,13.004,46.739,0.136l0.015,0.016
				c12.544-12.545,15.539-39.513,15.49-57.241v-0.028C129.475,442.309,127.169,440.015,124.348,440.007z"/>
		</g>
		<path fill="#B9F0FF" d="M322.975,456.706c-13.406-0.037-34.529,2.46-43.965,11.896l-0.002,0.003l0.012,0.01
			c-10.168,10.169-9.795,25.998,0.104,35.896c9.944,9.947,26.015,9.988,35.897,0.104l0.011,0.012
			c9.636-9.635,11.937-30.348,11.898-43.965v-0.022C326.911,458.474,325.141,456.712,322.975,456.706z"/>
		<path fill="#7CE3FF" d="M416.888,459.784c-9.975-0.028-25.688,1.83-32.71,8.851h-0.002l0.009,0.008
			c-7.565,7.566-7.288,19.344,0.077,26.707c7.399,7.401,19.355,7.432,26.709,0.077l0.008,0.009
			c7.168-7.168,8.879-22.577,8.852-32.71v-0.016C419.817,461.1,418.5,459.788,416.888,459.784z"/>
		<path fill="#FCE3A0" d="M275.1,221.303c31.123-85.508-12.904-179.873-98.384-210.985c-18.279-6.654-37-10.205-55.386-10.316
			c-5.8-0.035-11.532,0.573-17.249,1.146c-3.435,0.343-6.38,2.591-7.562,5.834c-1.529,4.203,0.271,8.929,4.257,10.961
			c58.771,29.962,87.298,99.65,64.146,163.259c-4.549,12.496-10.771,23.87-18.31,33.983l77.625,77.625
			C246.59,274.684,264.498,250.435,275.1,221.303L275.1,221.303z"/>
		<path fill="#FFCE71" d="M228.477,204.333c13.26-36.43,11.548-75.818-4.816-110.908c-16.364-35.087-45.436-61.711-81.857-74.968
			v-0.001c-13.975-5.086-28.539-7.994-43.29-8.644l-2.517-0.11c-0.131,3.369,1.645,6.64,4.782,8.24
			c58.771,29.962,87.298,99.65,64.146,163.259c-23.236,63.842-90.021,98.584-154.078,83.83c-3.183-0.732-6.747,0.385-8.962,3.238
			c0,0-0.001,0-0.002,0.002c-0.558,0.72-1.02,1.526-1.344,2.42l-0.001,0.005c-1.182,3.241-0.367,6.856,2.042,9.329
			c16.731,17.152,37.489,30.91,61.537,39.662c56.23,20.468,116.607,8.412,160.123-26.877l-32.486-32.487
			C208.019,245.005,220.602,225.971,228.477,204.333L228.477,204.333z"/>
		<path fill="#D4D4D5" d="M377.765,118.997c-8.438-2.14-17.271-3.28-26.365-3.28c-46.571,0-86.185,29.764-100.872,71.305v0.005
			c-38.276,0.507-70.244,31.777-70.244,71.317c0,39.387,31.929,71.314,71.313,71.314h151.746L377.765,118.997z"/>
		<path fill="#EFEDEE" d="M458.354,222.685c-0.003-50.09-34.343-91.958-80.591-103.688c-46.313,11.758-80.572,53.722-80.572,103.692
			c0,58.807,47.449,106.523,106.15,106.97h55.171c29.539,0,53.484-23.947,53.484-53.486
			C511.998,246.246,487.54,222.529,458.354,222.685L458.354,222.685z"/>
		
			<ellipse transform="matrix(-1 -0.003 0.003 -1 574.3402 499.8401)" fill="#FF8E9E" cx="287.546" cy="249.489" rx="23.152" ry="18.437"/>
		
			<ellipse transform="matrix(1 0.003 -0.003 1 0.7531 -1.2399)" fill="#FF8E9E" cx="412.969" cy="249.978" rx="23.153" ry="18.437"/>
		<path fill="#313D40" d="M294.633,211.226c-4.269,0-7.728,3.459-7.728,7.727v10.302c0,4.267,3.46,7.727,7.728,7.727
			c4.267,0,7.726-3.46,7.726-7.727v-10.302C302.358,214.685,298.899,211.226,294.633,211.226z"/>
		<path fill="#313D40" d="M405.892,211.226c-4.267,0-7.728,3.459-7.728,7.727v10.302c0,4.267,3.461,7.727,7.728,7.727
			s7.727-3.46,7.727-7.727v-10.302C413.617,214.685,410.157,211.226,405.892,211.226z"/>
		<path fill="#313D40" d="M370.592,230.526c-3.851-1.844-8.463-0.213-10.304,3.637c-1.716,3.59-5.449,5.908-9.512,5.908
			s-7.797-2.318-9.514-5.908c-1.84-3.85-6.455-5.477-10.303-3.637c-3.851,1.841-5.479,6.454-3.638,10.303
			c4.27,8.927,13.476,14.695,23.453,14.695c9.979,0,19.186-5.769,23.453-14.695C376.07,236.98,374.442,232.366,370.592,230.526
			L370.592,230.526z"/>
	</g>
	<rect x="0.001" y="0.001" fill="none" width="511.997" height="511.999"/>
</g>
</svg>
