<?xml version="1.0" encoding="utf-8"?>
<!-- Generator: Adobe Illustrator 16.0.0, SVG Export Plug-In . SVG Version: 6.00 Build 0)  -->
<!DOCTYPE svg PUBLIC "-//W3C//DTD SVG 1.1//EN" "http://www.w3.org/Graphics/SVG/1.1/DTD/svg11.dtd">
<svg version="1.1" id="Layer_1" xmlns="http://www.w3.org/2000/svg" xmlns:xlink="http://www.w3.org/1999/xlink" x="0px" y="0px"
	 width="512px" height="512px" viewBox="0 0 512 512" enable-background="new 0 0 512 512" xml:space="preserve">
<g>
	<path fill="#FFB357" d="M285.107,372.545h-16.305c9.328-8.693,36.605-34.113,45.855-42.732l-44.455-44.453l-88.744,95.228
		c-4.501,4.852-7.22,11.373-7.133,18.513c0.18,14.77,12.3,26.598,27.07,26.417h26.071l-56.358,69.356
		c-3.394,4.178-3.081,10.244,0.725,14.051c3.8,3.8,9.855,4.118,14.033,0.736l114.578-92.72c5.498-4.494,9.131-11.372,9.223-19.027
		C309.838,384.181,298.84,372.713,285.107,372.545L285.107,372.545z"/>
	<path fill="#FCE3A0" d="M134.768,355.107H123.65c6.36-5.928,24.958-23.26,31.264-29.137l-30.308-30.309L64.1,360.588
		c-3.069,3.308-4.922,7.754-4.864,12.623c0.123,10.069,8.387,18.134,18.457,18.011h17.775l-38.426,47.289
		c-2.313,2.849-2.101,6.983,0.494,9.579c2.591,2.592,6.72,2.809,9.568,0.503l78.122-63.218c3.748-3.064,6.225-7.754,6.288-12.975
		C151.628,363.039,144.13,355.221,134.768,355.107L134.768,355.107z"/>
	<path fill="#FCE3A0" d="M409.611,352.121h-9.209c5.27-4.91,20.678-19.27,25.902-24.14l-25.111-25.11l-50.129,53.791
		c-2.543,2.74-4.08,6.425-4.029,10.457c0.102,8.345,6.947,15.024,15.291,14.923h14.727l-31.834,39.178
		c-1.918,2.358-1.742,5.787,0.408,7.937c2.146,2.147,5.566,2.326,7.928,0.417l64.723-52.374c3.104-2.539,5.156-6.423,5.209-10.748
		C423.582,358.695,417.369,352.216,409.611,352.121L409.611,352.121z"/>
	<path fill="#B9BBBC" d="M304.811,5.063C291.787,1.76,278.152,0,264.115,0c-71.881,0-133.022,45.94-155.694,110.06v0.007
		C49.34,110.85,0,159.114,0,220.145c0,60.79,49.281,110.07,110.072,110.07h234.217L304.811,5.063z"/>
	<path fill="#D4D4D5" d="M429.201,165.104c-0.004-77.312-53.01-141.938-124.391-160.041
		c-71.482,18.148-124.363,82.92-124.363,160.048c0,90.767,73.237,164.415,163.842,165.104h85.156
		c45.594,0,82.555-36.961,82.555-82.554C512,201.472,474.25,164.863,429.201,165.104z"/>
	
		<ellipse transform="matrix(-1 -0.003 0.003 -1 410.449 394.8799)" fill="#FF8E9E" cx="205.52" cy="197.133" rx="26.24" ry="20.895"/>
	<ellipse transform="matrix(1 0.003 -0.003 1 0.5937 -1.0407)" fill="#FF8E9E" cx="347.686" cy="197.65" rx="26.24" ry="20.895"/>
	<g>
		<path fill="#313D40" d="M210.672,156.631c-4.267,0-7.726,3.459-7.726,7.726v10.304c0,4.267,3.459,7.726,7.726,7.726
			s7.727-3.459,7.727-7.726v-10.304C218.398,160.09,214.939,156.631,210.672,156.631z"/>
		<path fill="#313D40" d="M342.535,156.631c-4.268,0-7.727,3.459-7.727,7.726v10.304c0,4.267,3.459,7.726,7.727,7.726
			s7.727-3.459,7.727-7.726v-10.304C350.262,160.09,346.803,156.631,342.535,156.631z"/>
		<path fill="#313D40" d="M225.348,138.482l-13.382-7.726c-3.695-2.135-8.421-0.869-10.554,2.827
			c-2.133,3.694-0.867,8.421,2.828,10.555l13.382,7.728c1.217,0.701,2.545,1.035,3.856,1.035c2.67,0,5.267-1.386,6.698-3.863
			C230.311,145.341,229.043,140.615,225.348,138.482L225.348,138.482z"/>
		<path fill="#313D40" d="M351.797,133.583c-2.133-3.696-6.859-4.962-10.555-2.827l-13.383,7.726
			c-3.693,2.135-4.961,6.859-2.826,10.556c1.43,2.479,4.027,3.863,6.697,3.863c1.311,0,2.641-0.334,3.855-1.036l13.383-7.727
			C352.666,142.004,353.932,137.279,351.797,133.583L351.797,133.583z"/>
		<path fill="#313D40" d="M257.303,195.02c3.85,1.843,8.463,0.212,10.303-3.638c1.719-3.589,5.451-5.908,9.516-5.908
			c4.061,0,7.795,2.319,9.512,5.908c1.842,3.85,6.455,5.478,10.303,3.638c3.852-1.841,5.479-6.454,3.639-10.303
			c-4.27-8.928-13.475-14.696-23.453-14.696s-19.186,5.77-23.454,14.696C251.826,188.566,253.455,193.179,257.303,195.02
			L257.303,195.02z"/>
	</g>
</g>
<rect y="0" fill="none" width="512" height="512"/>
<rect y="0" fill="none" width="512" height="512"/>
</svg>
