<?xml version="1.0" encoding="utf-8"?>
<!-- Generator: Adobe Illustrator 16.0.0, SVG Export Plug-In . SVG Version: 6.00 Build 0)  -->
<!DOCTYPE svg PUBLIC "-//W3C//DTD SVG 1.1//EN" "http://www.w3.org/Graphics/SVG/1.1/DTD/svg11.dtd">
<svg version="1.1" id="Layer_1" xmlns="http://www.w3.org/2000/svg" xmlns:xlink="http://www.w3.org/1999/xlink" x="0px" y="0px"
	 width="512px" height="512px" viewBox="0 0 512 512" enable-background="new 0 0 512 512" xml:space="preserve">
<g>
	<g>
		<path fill="#D4D4D5" d="M304.811,5.063C291.787,1.76,278.152,0,264.115,0c-71.881,0-133.022,45.94-155.694,110.06v0.007
			C49.34,110.85,0,159.114,0,220.145c0,60.791,49.281,110.071,110.072,110.071h234.217L304.811,5.063z"/>
		<path fill="#EFEDEE" d="M429.2,165.104c-0.004-77.312-53.009-141.938-124.39-160.041
			c-71.482,18.148-124.364,82.92-124.364,160.048c0,90.767,73.237,164.416,163.841,165.105h85.157
			c45.594,0,82.554-36.961,82.554-82.555C512,201.472,474.25,164.863,429.2,165.104z"/>
		<path fill="#EFEDEE" d="M502.949,450.189l4.524-4.526c6.034-6.033,6.034-15.817,0-21.854c-6.033-6.033-15.817-6.033-21.854,0
			l-10.927,10.928h-9.054v-9.053l10.928-10.926c6.033-6.034,6.033-15.818,0-21.854c-6.034-6.033-15.819-6.033-21.854,0l-4.524,4.525
			l-4.527-4.526c-6.033-6.034-15.818-6.034-21.854,0c-6.034,6.034-6.034,15.818,0,21.854l10.928,10.927v9.053h-9.053l-10.927-10.927
			c-6.033-6.033-15.818-6.033-21.854,0c-6.034,6.034-6.034,15.818,0,21.854l4.525,4.526l-4.525,4.527
			c-6.034,6.033-6.034,15.817,0,21.853c3.018,3.017,6.972,4.524,10.927,4.524c3.954,0,7.909-1.509,10.926-4.526l10.928-10.926h9.053
			v9.052l-10.927,10.927c-6.035,6.033-6.035,15.818,0,21.854c6.033,6.034,15.818,6.034,21.854,0l4.527-4.526l4.525,4.526
			c3.017,3.018,6.97,4.526,10.925,4.526s7.91-1.51,10.928-4.526c6.033-6.033,6.033-15.818,0-21.854l-10.928-10.927v-9.052h9.054
			l10.926,10.926c3.018,3.019,6.973,4.526,10.927,4.526c3.955,0,7.91-1.51,10.927-4.526c6.034-6.034,6.034-15.818,0-21.854
			L502.949,450.189z"/>
		<path fill="#EFEDEE" d="M248.333,333.993l-4.707-3.777l4.707-3.781c6.655-5.343,7.718-15.069,2.375-21.723
			c-5.341-6.655-15.069-7.722-21.724-2.376l-18.199,14.611l-18.485,8.389v-4.144l22.318-17.917
			c6.655-5.344,7.718-15.068,2.376-21.724c-5.344-6.654-15.066-7.719-21.724-2.377l-2.97,2.384v-4.73
			c0-8.534-6.918-15.453-15.453-15.453c-8.535,0-15.453,6.919-15.453,15.453v4.729l-2.969-2.383
			c-6.655-5.342-16.381-4.277-21.724,2.377c-5.343,6.654-4.278,16.38,2.376,21.724l22.317,17.917v4.144l-18.485-8.389l-18.2-14.612
			c-6.656-5.342-16.381-4.277-21.723,2.377c-5.344,6.653-4.279,16.381,2.375,21.724l4.708,3.78l-4.708,3.777
			c-6.655,5.345-7.718,15.07-2.376,21.726c3.052,3.802,7.536,5.778,12.06,5.778c3.394,0,6.811-1.112,9.664-3.402l12.31-9.883
			l14.167,6.43l-7.212,7.97h-21.028c-8.534,0-15.453,6.918-15.453,15.452s6.919,15.453,15.453,15.453h12.431v6.933
			c0,8.534,6.919,15.453,15.453,15.453c8.534,0,15.453-6.919,15.453-15.453v-16.433l10.563-11.672l10.563,11.674v16.431
			c0,8.534,6.918,15.453,15.453,15.453c8.534,0,15.453-6.919,15.453-15.453v-6.933h12.431c8.534,0,15.453-6.919,15.453-15.453
			s-6.918-15.452-15.453-15.452h-21.027l-7.212-7.97l14.167-6.429l12.309,9.882c2.854,2.29,6.27,3.402,9.664,3.402
			c4.524,0,9.008-1.978,12.061-5.778C256.051,349.065,254.988,339.338,248.333,333.993L248.333,333.993z"/>
		<g>
			<circle fill="#D4D4D5" cx="337.385" cy="471.99" r="23.179"/>
			<circle fill="#D4D4D5" cx="48.934" cy="416.36" r="23.179"/>
			<circle fill="#D4D4D5" cx="323.99" cy="382.879" r="30.905"/>
			<circle fill="#D4D4D5" cx="233.851" cy="496.547" r="15.453"/>
			<circle fill="#D4D4D5" cx="162.832" cy="457.567" r="15.453"/>
		</g>
		
			<ellipse transform="matrix(-1 -0.003 0.003 -1 410.4481 394.8799)" fill="#FF8E9E" cx="205.52" cy="197.133" rx="26.24" ry="20.895"/>
		<ellipse transform="matrix(1 0.003 -0.003 1 0.5937 -1.0407)" fill="#FF8E9E" cx="347.686" cy="197.65" rx="26.24" ry="20.895"/>
		<path fill="#313D40" d="M210.672,156.631c-4.267,0-7.726,3.459-7.726,7.726v10.304c0,4.267,3.459,7.726,7.726,7.726
			s7.727-3.459,7.727-7.726v-10.304C218.398,160.09,214.939,156.631,210.672,156.631z"/>
		<path fill="#313D40" d="M342.535,156.631c-4.268,0-7.727,3.459-7.727,7.726v10.304c0,4.267,3.459,7.726,7.727,7.726
			s7.727-3.459,7.727-7.726v-10.304C350.262,160.09,346.803,156.631,342.535,156.631z"/>
		<path fill="#313D40" d="M296.934,170.78c-3.85-1.843-8.463-0.213-10.303,3.639c-1.716,3.589-5.449,5.908-9.512,5.908
			s-7.797-2.319-9.514-5.908c-1.84-3.852-6.455-5.479-10.304-3.639c-3.85,1.842-5.478,6.454-3.637,10.304
			c4.269,8.928,13.476,14.694,23.454,14.694s19.186-5.768,23.453-14.694C302.412,177.234,300.784,172.62,296.934,170.78
			L296.934,170.78z"/>
	</g>
	<rect y="0" fill="none" width="512" height="512"/>
</g>
</svg>
