<?xml version="1.0" encoding="utf-8"?>
<!-- Generator: Adobe Illustrator 16.0.0, SVG Export Plug-In . SVG Version: 6.00 Build 0)  -->
<!DOCTYPE svg PUBLIC "-//W3C//DTD SVG 1.1 Tiny//EN" "http://www.w3.org/Graphics/SVG/1.1/DTD/svg11-tiny.dtd">
<svg version="1.1" baseProfile="tiny" id="Layer_1" xmlns="http://www.w3.org/2000/svg" xmlns:xlink="http://www.w3.org/1999/xlink"
	 x="0px" y="0px" width="512px" height="512px" viewBox="0 0 512 512" xml:space="preserve">
<g>
	<rect x="0" fill="none" width="512" height="512"/>
	<g>
		<g>
			<path fill="#D4D4D5" d="M305.823,47.336c-10.631-2.697-21.763-4.135-33.222-4.135c-58.688,0-108.603,37.51-127.112,89.857v0.006
				c-48.235,0.639-88.519,40.041-88.519,89.869c0,49.629,40.235,89.863,89.865,89.863h191.217L305.823,47.336z"/>
			<path fill="#EFEDEE" d="M407.377,177.996c-0.005-63.119-43.276-115.881-101.557-130.66
				c-58.354,14.816-101.529,67.697-101.529,130.666c0,74.101,59.791,134.232,133.762,134.795h69.523
				c37.223-0.002,67.4-30.178,67.4-67.399C474.979,207.688,444.156,177.799,407.377,177.996z"/>
			
				<ellipse transform="matrix(0.003 -1 1 0.003 0.2358 418.3908)" fill="#FF8E9E" cx="209.945" cy="209.077" rx="19.269" ry="24.198"/>
			
				<ellipse transform="matrix(-0.003 1 -1 -0.003 551.5809 -130.8414)" fill="#FF8E9E" cx="341.016" cy="209.546" rx="19.27" ry="24.198"/>
			<path fill="#313D40" d="M214.675,171.72c-3.937,0-7.127,3.19-7.127,7.126v9.501c0,3.937,3.189,7.124,7.127,7.124
				c3.933,0,7.125-3.188,7.125-7.124v-9.501C221.8,174.91,218.609,171.72,214.675,171.72z"/>
			<path fill="#313D40" d="M336.275,171.72c-3.936,0-7.125,3.19-7.125,7.126v9.501c0,3.937,3.188,7.124,7.125,7.124
				c3.938,0,7.126-3.188,7.126-7.124v-9.501C343.401,174.91,340.211,171.72,336.275,171.72z"/>
			<path fill="#313D40" d="M294.225,184.767c-3.552-1.699-7.806-0.195-9.503,3.354c-1.583,3.312-5.026,5.449-8.771,5.449
				c-3.748,0-7.191-2.139-8.773-5.449c-1.697-3.553-5.952-5.052-9.501-3.354c-3.552,1.7-5.053,5.952-3.355,9.503
				c3.938,8.232,12.426,13.551,21.628,13.551c9.2,0,17.691-5.32,21.628-13.551C299.276,190.719,297.773,186.467,294.225,184.767
				L294.225,184.767z"/>
		</g>
		<g>
			<path fill="#A5E4F9" d="M54.796,297.361c4.595-6.33,13.881-13.328,23.307-14.459c26.518-3.18,53.444-6.158,80.275-3.895
				c15.082,1.273,30.123,3.105,44.773,6.307c8.683,1.895,17.313,3.717,26.149,4.967c5.627,0.428,11.264,0.566,16.901,0.285
				c1.811-0.318,3.599-0.697,5.366-1.146c13.764-5.014,29.385-4.262,41,2.512c-0.367-1.602-0.877-3.176-1.541-4.701
				c-0.766-1.762-1.721-3.461-2.885-5.066c-10.889-14.992-32.938-18.764-51.575-11.975c-1.77,0.447-3.558,0.828-5.366,1.145
				c-5.64,0.281-11.274,0.145-16.901-0.285c-8.837-1.25-17.469-3.07-26.149-4.967c-14.65-3.201-29.691-5.031-44.773-6.305
				c-26.831-2.268-53.76,0.713-80.275,3.893c-9.426,1.131-18.712,8.129-23.307,14.459c-5.277,7.268-6.701,16.123-3.934,24.244
				c1.586,4.648,4.523,8.928,8.455,12.506c1.763,1.604,3.737,3.047,5.868,4.336C48.42,311.775,50.031,303.922,54.796,297.361z"/>
			<path fill="#C4EBF7" d="M83.839,324.348c1.364-0.162,2.729-0.313,4.098-0.473c18.826-1.828,37.676-2.58,56.559-1.049
				c17.107,2.377,33.565,6.889,50.712,9.146c27.271,3.59,53.706,3.479,78.948-6.764c14.941-6.063,21.354-20.523,18.42-33.277
				c-11.617-6.771-27.238-7.523-41-2.512c-1.771,0.449-3.56,0.828-5.368,1.146c-5.64,0.281-11.274,0.145-16.901-0.283
				c-8.837-1.25-17.469-3.074-26.148-4.969c-14.651-3.199-29.692-5.029-44.774-6.305c-26.831-2.268-53.76,0.713-80.275,3.893
				c-9.426,1.131-18.712,8.131-23.307,14.461c-4.765,6.559-6.376,14.412-4.608,21.854c1.156,0.699,2.347,1.367,3.601,1.961
				C63.663,325.844,72.967,325.65,83.839,324.348z"/>
		</g>
		<g>
			<path fill="#A5E4F9" d="M250.577,365.779c4.596-5.443,13.882-11.465,23.308-12.438c26.515-2.734,53.442-5.297,80.272-3.348
				c15.083,1.096,30.124,2.668,44.777,5.422c8.679,1.633,17.312,3.199,26.148,4.275c5.627,0.367,11.263,0.486,16.9,0.244
				c1.81-0.273,3.599-0.602,5.367-0.986c17.915-5.613,38.982-2.828,50.258,8.855c-0.251-4.402-1.928-8.742-5.093-12.492
				c-10.888-12.898-32.939-16.143-51.574-10.303c-1.77,0.387-3.559,0.713-5.367,0.986c-5.639,0.242-11.273,0.121-16.9-0.246
				c-8.837-1.074-17.471-2.643-26.148-4.273c-14.652-2.754-29.693-4.326-44.777-5.422c-26.829-1.949-53.758,0.613-80.272,3.348
				c-9.426,0.971-18.712,6.994-23.308,12.438c-4.986,5.908-6.527,13.035-4.348,19.697c0.507-2.012,1.337-3.98,2.48-5.867
				c-1.142,1.887-1.972,3.854-2.478,5.863c0.127,0.387,0.263,0.775,0.413,1.158c1.087,2.742,2.813,5.332,5.051,7.684
				C245.048,375.299,246.848,370.197,250.577,365.779z"/>
			<path fill="#D4D4D5" d="M247.316,382.316L247.316,382.316c0.397-0.916,0.859-1.822,1.396-2.707
				C248.174,380.494,247.713,381.4,247.316,382.316z"/>
			<path fill="#C4EBF7" d="M288.211,391.598c1.364-0.139,2.73-0.27,4.099-0.404c18.827-1.572,37.677-2.219,56.558-0.902
				c17.109,2.045,33.566,5.926,50.711,7.867c27.273,3.088,53.707,2.992,78.949-5.818c10.498-3.664,16.784-10.896,18.583-18.682
				c0,0-0.001,0-0.001-0.002c0.445-1.932,0.612-3.896,0.501-5.85c-11.274-11.684-32.343-14.471-50.258-8.855
				c-1.771,0.387-3.559,0.713-5.367,0.986c-5.639,0.242-11.273,0.123-16.9-0.244c-8.838-1.076-17.471-2.645-26.148-4.275
				c-14.653-2.754-29.694-4.326-44.777-5.422c-26.83-1.949-53.759,0.613-80.272,3.348c-9.426,0.973-18.712,6.994-23.308,12.438
				c-3.729,4.418-5.53,9.52-5.29,14.598c0.635,0.666,1.311,1.314,2.027,1.939c0.397-0.916,0.858-1.822,1.396-2.707
				c-0.536,0.885-0.998,1.791-1.396,2.709c2.991,2.613,6.661,4.852,10.845,6.553C268.036,392.885,277.34,392.721,288.211,391.598z"
				/>
		</g>
		<g>
			<path fill="#A5E4F9" d="M54.093,440.078c5.016-7.996,15.152-16.846,25.44-18.273c28.939-4.016,58.333-7.779,87.616-4.916
				c16.463,1.609,32.88,3.92,48.874,7.967c9.474,2.396,18.896,4.701,28.541,6.279c6.143,0.539,12.293,0.715,18.448,0.359
				c1.974-0.402,3.927-0.883,5.858-1.449c19.554-8.248,42.549-4.156,54.854,13.01c-0.274-6.467-2.104-12.844-5.559-18.354
				c-11.885-18.949-35.953-23.715-56.293-15.135c-1.932,0.564-3.884,1.045-5.857,1.447c-6.155,0.355-12.306,0.18-18.448-0.357
				c-9.646-1.58-19.067-3.885-28.541-6.281c-15.993-4.045-32.41-6.355-48.874-7.967c-29.284-2.863-58.677,0.902-87.616,4.92
				c-10.288,1.426-20.425,10.273-25.44,18.271c-5.442,8.68-7.125,19.15-4.744,28.938c0.552-2.953,1.458-5.85,2.707-8.619
				c-1.247,2.77-2.152,5.662-2.705,8.613c0.14,0.566,0.287,1.139,0.452,1.703c1.187,4.027,3.07,7.832,5.512,11.287
				C48.057,454.063,50.023,446.568,54.093,440.078z"/>
			<path fill="#D4D4D5" d="M50.533,464.375L50.533,464.375c0.434-1.348,0.938-2.678,1.521-3.979
				C51.47,461.697,50.967,463.027,50.533,464.375z"/>
			<path fill="#C4EBF7" d="M95.17,478.008c1.489-0.203,2.98-0.395,4.474-0.594c20.549-2.313,41.124-3.26,61.732-1.328
				c18.674,3.006,36.637,8.709,55.35,11.561c29.769,4.537,58.621,4.396,86.171-8.547c11.459-5.385,18.32-16.012,20.283-27.445
				c0-0.004-0.001-0.004-0.001-0.004c0.485-2.838,0.668-5.727,0.547-8.596c-12.308-17.166-35.302-21.258-54.854-13.01
				c-1.933,0.566-3.886,1.047-5.858,1.449c-6.154,0.355-12.306,0.18-18.448-0.359c-9.645-1.578-19.067-3.883-28.541-6.279
				c-15.994-4.047-32.411-6.355-48.874-7.967c-29.285-2.863-58.677,0.9-87.617,4.916c-10.287,1.43-20.424,10.277-25.439,18.273
				c-4.07,6.49-6.036,13.984-5.773,21.445c0.693,0.979,1.432,1.932,2.213,2.852c0.435-1.348,0.938-2.678,1.522-3.979
				c-0.585,1.301-1.089,2.631-1.522,3.979c3.265,3.84,7.271,7.129,11.837,9.625C73.149,479.898,83.304,479.658,95.17,478.008z"/>
		</g>
		<g>
			<path fill="#A5E4F9" d="M50.54,230.228c0-8.618,6.008-15.817,14.061-17.681c-1.317-0.305-2.688-0.481-4.1-0.481
				c-10.031,0-18.162,8.131-18.162,18.162c0,10.03,8.131,18.161,18.162,18.161c1.412,0,2.781-0.178,4.1-0.482
				C56.548,246.045,50.54,238.845,50.54,230.228z"/>
			<path fill="#C4EBF7" d="M78.662,230.228c0-8.618-6.011-15.817-14.063-17.681c-8.053,1.861-14.061,9.063-14.061,17.681
				s6.008,15.817,14.061,17.679C72.653,246.045,78.662,238.845,78.662,230.228z"/>
		</g>
		<g>
			<path fill="#A5E4F9" d="M321.504,308.229c0-8.619,6.009-15.818,14.062-17.682c-1.319-0.305-2.688-0.48-4.101-0.48
				c-10.031,0-18.162,8.133-18.162,18.162s8.131,18.16,18.162,18.16c1.412,0,2.779-0.178,4.101-0.48
				C327.513,324.045,321.504,316.846,321.504,308.229z"/>
			<path fill="#C4EBF7" d="M349.627,308.229c0-8.619-6.012-15.818-14.063-17.682c-8.053,1.861-14.062,9.063-14.062,17.682
				c0,8.617,6.009,15.816,14.062,17.68C343.615,324.045,349.627,316.846,349.627,308.229z"/>
		</g>
		<g>
			<path fill="#A5E4F9" d="M85.476,357.875c0-7.193,5.017-13.205,11.739-14.76c-1.103-0.254-2.244-0.402-3.423-0.402
				c-8.375,0-15.162,6.789-15.162,15.162s6.788,15.16,15.162,15.16c1.179,0,2.32-0.146,3.423-0.4
				C90.492,371.08,85.476,365.068,85.476,357.875z"/>
			<path fill="#E3FAFF" d="M108.954,357.875c0-7.193-5.019-13.205-11.74-14.76c-6.723,1.555-11.739,7.564-11.739,14.76
				c0,7.193,5.017,13.205,11.739,14.76C103.936,371.08,108.954,365.068,108.954,357.875z"/>
		</g>
		<g>
			<path fill="#A5E4F9" d="M368.25,450.047c0-14.896,10.387-27.344,24.306-30.561c-2.279-0.527-4.646-0.832-7.088-0.832
				c-17.34,0-31.396,14.053-31.396,31.393c0,17.336,14.057,31.395,31.396,31.395c2.44,0,4.809-0.309,7.088-0.834
				C378.637,477.387,368.25,464.943,368.25,450.047z"/>
			<path fill="#C4EBF7" d="M416.861,450.047c0-14.896-10.386-27.344-24.305-30.561c-13.919,3.217-24.306,15.664-24.306,30.561
				s10.387,27.34,24.306,30.561C406.475,477.387,416.861,464.943,416.861,450.047z"/>
		</g>
	</g>
</g>
</svg>
