<?xml version="1.0" encoding="utf-8"?>
<!-- Generator: Adobe Illustrator 16.0.0, SVG Export Plug-In . SVG Version: 6.00 Build 0)  -->
<!DOCTYPE svg PUBLIC "-//W3C//DTD SVG 1.1//EN" "http://www.w3.org/Graphics/SVG/1.1/DTD/svg11.dtd">
<svg version="1.1" id="Layer_1" xmlns="http://www.w3.org/2000/svg" xmlns:xlink="http://www.w3.org/1999/xlink" x="0px" y="0px"
	 width="512px" height="512px" viewBox="0 0 512 512" enable-background="new 0 0 512 512" xml:space="preserve">
<g>
	<path fill="#EDE7DF" d="M435.559,276.207c0.001-19.227-13.236-35.352-31.092-39.781c13.25-12.762,16.649-33.35,7.039-50
		c-9.614-16.649-29.139-23.996-46.814-18.905c5.092-17.676-2.257-37.207-18.906-46.819c-16.649-9.614-37.233-6.214-49.995,7.035
		c-4.43-17.857-20.558-31.096-39.782-31.096c-19.226,0-35.353,13.236-39.782,31.091c-12.763-13.25-33.351-16.65-50-7.037
		c-16.646,9.611-23.997,29.138-18.904,46.814c-17.678-5.092-37.208,2.256-46.818,18.906c-9.614,16.647-6.212,37.232,7.035,49.996
		c-17.857,4.428-31.096,20.556-31.096,39.782c-0.001,19.224,13.234,35.352,31.09,39.779c-13.25,12.764-16.649,33.35-7.037,50
		c9.613,16.648,29.138,23.997,46.813,18.905c-5.091,17.679,2.257,37.207,18.907,46.82c16.647,9.612,37.229,6.213,49.995-7.035
		c4.43,17.854,20.556,31.094,39.783,31.095c19.225,0.001,35.35-13.234,39.779-31.091c12.763,13.248,33.348,16.65,50,7.037
		c16.648-9.611,23.997-29.138,18.905-46.813c17.678,5.092,37.207-2.257,46.818-18.906c9.614-16.647,6.216-37.232-7.032-49.996
		C422.32,311.561,435.555,295.432,435.559,276.207z"/>
	
		<ellipse transform="matrix(-1 -0.003 0.003 -1 409.0191 539.1415)" fill="#FF8E9E" cx="204.914" cy="269.264" rx="18.861" ry="15.02"/>
	<ellipse transform="matrix(1 0.003 -0.003 1 0.8111 -0.921)" fill="#FF8E9E" cx="307.1" cy="269.621" rx="18.862" ry="15.022"/>
	<g>
		<path fill="#313D40" d="M214.355,241.979c-2.676,0-4.844,2.168-4.844,4.843v6.456c0,2.674,2.168,4.842,4.844,4.842
			c2.674,0,4.843-2.168,4.843-4.842v-6.456C219.198,244.147,217.029,241.979,214.355,241.979z"/>
		<path fill="#313D40" d="M296.998,241.979c-2.673,0-4.842,2.168-4.842,4.843v6.456c0,2.674,2.169,4.842,4.842,4.842
			c2.675,0,4.844-2.168,4.844-4.842v-6.456C301.842,244.147,299.673,241.979,296.998,241.979z"/>
		<path fill="#313D40" d="M268.418,260.532c-2.411-1.156-5.304-0.134-6.456,2.278c-1.076,2.25-3.416,3.703-5.962,3.703
			c-2.545,0-4.889-1.453-5.961-3.703c-1.156-2.412-4.047-3.433-6.457-2.278c-2.416,1.153-3.436,4.046-2.281,6.457
			c2.676,5.595,8.444,9.21,14.699,9.21c6.254,0,12.023-3.615,14.699-9.21C271.852,264.578,270.832,261.688,268.418,260.532z"/>
	</g>
	<polygon fill="#3EB574" points="279.067,139.984 374.962,62.934 374.263,185.948 	"/>
	<path fill="#FFFFFF" d="M378.899,189.541c-2.639,5.465-9.205,7.755-14.671,5.117l-86.841-41.93
		c-5.465-2.637-7.756-9.205-5.117-14.67l0,0c2.637-5.463,9.205-7.754,14.67-5.115l86.842,41.928
		C379.244,177.51,381.535,184.076,378.899,189.541L378.899,189.541z"/>
	<circle fill="#FFFFFF" cx="372.541" cy="69.674" r="13.428"/>
</g>
</svg>
