<?xml version="1.0" encoding="utf-8"?>
<!-- Generator: Adobe Illustrator 16.0.0, SVG Export Plug-In . SVG Version: 6.00 Build 0)  -->
<!DOCTYPE svg PUBLIC "-//W3C//DTD SVG 1.1//EN" "http://www.w3.org/Graphics/SVG/1.1/DTD/svg11.dtd">
<svg version="1.1" id="Layer_1" xmlns="http://www.w3.org/2000/svg" xmlns:xlink="http://www.w3.org/1999/xlink" x="0px" y="0px"
	 width="512px" height="512px" viewBox="0 0 512 512" enable-background="new 0 0 512 512" xml:space="preserve">
<g>
	<path fill="#EDE7DF" d="M435.559,276.207c0.002-19.225-13.236-35.352-31.09-39.781c13.248-12.762,16.649-33.35,7.037-50
		c-9.613-16.648-29.14-23.996-46.816-18.904c5.094-17.677-2.256-37.207-18.904-46.82c-16.647-9.613-37.231-6.213-49.997,7.035
		c-4.427-17.857-20.556-31.096-39.78-31.096c-19.227,0-35.354,13.236-39.782,31.092c-12.762-13.25-33.35-16.65-50-7.038
		c-16.646,9.612-23.996,29.138-18.904,46.815c-17.678-5.092-37.207,2.256-46.819,18.906c-9.612,16.646-6.213,37.232,7.035,49.996
		c-17.855,4.428-31.095,20.555-31.095,39.781c-0.001,19.225,13.235,35.352,31.092,39.779c-13.252,12.764-16.65,33.351-7.038,50
		c9.61,16.648,29.137,23.998,46.813,18.906c-5.092,17.678,2.256,37.206,18.906,46.82c16.647,9.611,37.229,6.213,49.996-7.035
		c4.429,17.854,20.555,31.094,39.782,31.094c19.225,0.002,35.35-13.234,39.779-31.091c12.762,13.249,33.35,16.65,50,7.038
		c16.648-9.611,23.998-29.137,18.906-46.814c17.678,5.092,37.207-2.257,46.817-18.906c9.615-16.647,6.214-37.231-7.034-49.996
		C422.319,311.563,435.557,295.434,435.559,276.207z"/>
	<g>
		
			<ellipse transform="matrix(-1 -0.003 0.003 -1 427.3624 542.7803)" fill="#FF8E9E" cx="214.084" cy="271.073" rx="15.473" ry="12.321"/>
		
			<ellipse transform="matrix(1 0.0029 -0.0029 1 0.7892 -0.8638)" fill="#FF8E9E" cx="297.924" cy="271.392" rx="15.472" ry="12.321"/>
		<g>
			<path fill="#313D40" d="M217.124,247.194c-2.519,0-4.557,2.04-4.557,4.556v6.074c0,2.517,2.038,4.557,4.557,4.557
				c2.515,0,4.557-2.04,4.557-4.557v-6.074C221.68,249.234,219.638,247.194,217.124,247.194z"/>
			<path fill="#313D40" d="M294.875,247.194c-2.515,0-4.556,2.04-4.556,4.556v6.074c0,2.517,2.041,4.557,4.556,4.557
				c2.518,0,4.557-2.04,4.557-4.557v-6.074C299.432,249.234,297.393,247.194,294.875,247.194z"/>
			<path fill="#313D40" d="M267.987,255.537c-2.268-1.087-4.989-0.125-6.073,2.145c-1.013,2.117-3.216,3.484-5.608,3.484
				c-2.396,0-4.598-1.367-5.61-3.484c-1.085-2.27-3.806-3.229-6.073-2.145c-2.271,1.086-3.23,3.806-2.146,6.074
				c2.519,5.266,7.946,8.666,13.831,8.666c5.881,0,11.312-3.4,13.827-8.666C271.219,259.343,270.256,256.623,267.987,255.537
				L267.987,255.537z"/>
			<path fill="#313D40" d="M225.777,236.492l-7.89-4.555c-2.181-1.259-4.967-0.513-6.225,1.667
				c-1.259,2.179-0.513,4.966,1.667,6.224l7.892,4.556c0.717,0.414,1.5,0.61,2.273,0.61c1.573,0,3.104-0.816,3.947-2.277
				C228.703,240.537,227.956,237.751,225.777,236.492z"/>
			<path fill="#313D40" d="M300.338,233.604c-1.261-2.18-4.045-2.926-6.226-1.667l-7.891,4.555c-2.18,1.259-2.924,4.045-1.666,6.225
				c0.844,1.461,2.375,2.277,3.947,2.277c0.772,0,1.557-0.196,2.272-0.61l7.894-4.556
				C300.848,238.57,301.596,235.783,300.338,233.604L300.338,233.604z"/>
		</g>
	</g>
	<g>
		<polygon fill="#FFC747" points="278.471,139.984 374.366,62.934 373.668,185.948 		"/>
		<path fill="#FFFFFF" d="M378.303,189.541c-2.64,5.465-9.205,7.755-14.67,5.117l-86.842-41.93
			c-5.465-2.637-7.756-9.205-5.117-14.67l0,0c2.637-5.463,9.205-7.754,14.67-5.115l86.842,41.928
			C378.651,177.51,380.942,184.076,378.303,189.541L378.303,189.541z"/>
		<path fill="#FFFFFF" d="M384.038,75.513c3.226-6.679,0.427-14.706-6.252-17.933c-6.682-3.225-14.709-0.424-17.934,6.256
			c-3.227,6.678-0.426,14.707,6.254,17.932S380.817,82.191,384.038,75.513z"/>
	</g>
</g>
</svg>
