<?xml version="1.0" encoding="utf-8"?>
<!-- Generator: Adobe Illustrator 16.0.0, SVG Export Plug-In . SVG Version: 6.00 Build 0)  -->
<!DOCTYPE svg PUBLIC "-//W3C//DTD SVG 1.1//EN" "http://www.w3.org/Graphics/SVG/1.1/DTD/svg11.dtd">
<svg version="1.1" id="Layer_1" xmlns="http://www.w3.org/2000/svg" xmlns:xlink="http://www.w3.org/1999/xlink" x="0px" y="0px"
	 width="512px" height="512px" viewBox="0 0 512 512" enable-background="new 0 0 512 512" xml:space="preserve">
<g>
	<path fill="#EDE7DF" d="M435.559,276.207c0-19.227-13.236-35.352-31.092-39.781c13.25-12.762,16.649-33.35,7.039-50
		c-9.613-16.649-29.14-23.996-46.814-18.905c5.092-17.676-2.256-37.207-18.908-46.819c-16.647-9.614-37.231-6.214-49.993,7.035
		c-4.431-17.857-20.558-31.096-39.782-31.096c-19.228,0-35.354,13.236-39.782,31.091c-12.762-13.25-33.35-16.65-50-7.037
		c-16.646,9.611-23.996,29.138-18.905,46.814c-17.678-5.092-37.206,2.256-46.817,18.906c-9.613,16.647-6.214,37.232,7.034,49.996
		c-17.855,4.428-31.095,20.556-31.095,39.782c-0.001,19.224,13.234,35.352,31.09,39.779c-13.249,12.764-16.648,33.35-7.036,50
		c9.61,16.648,29.138,23.997,46.813,18.905c-5.092,17.679,2.256,37.207,18.907,46.82c16.646,9.612,37.229,6.213,49.996-7.035
		c4.428,17.854,20.554,31.094,39.779,31.095c19.225,0.001,35.352-13.234,39.781-31.091c12.762,13.248,33.35,16.65,50,7.037
		c16.648-9.611,23.996-29.138,18.906-46.813c17.678,5.092,37.207-2.257,46.817-18.906c9.615-16.647,6.216-37.232-7.032-49.996
		C422.321,311.561,435.557,295.432,435.559,276.207z"/>
	
		<ellipse transform="matrix(-1 -0.0029 0.0029 -1 409.0197 539.0852)" fill="#FF8E9E" cx="204.901" cy="269.246" rx="18.861" ry="15.021"/>
	<ellipse transform="matrix(1 0.003 -0.003 1 0.811 -0.921)" fill="#FF8E9E" cx="307.09" cy="269.613" rx="18.861" ry="15.022"/>
	<g>
		<path fill="#313D40" d="M214.354,241.979c-2.674,0-4.842,2.168-4.842,4.843v6.456c0,2.674,2.168,4.842,4.842,4.842
			c2.676,0,4.843-2.168,4.843-4.842v-6.456C219.197,244.147,217.03,241.979,214.354,241.979z"/>
		<path fill="#313D40" d="M296.998,241.979c-2.675,0-4.843,2.168-4.843,4.843v6.456c0,2.674,2.168,4.842,4.843,4.842
			c2.674,0,4.844-2.168,4.844-4.842v-6.456C301.842,244.147,299.672,241.979,296.998,241.979z"/>
		<path fill="#313D40" d="M268.418,260.532c-2.41-1.156-5.304-0.134-6.455,2.278c-1.076,2.25-3.416,3.703-5.962,3.703
			c-2.545,0-4.888-1.453-5.961-3.703c-1.156-2.412-4.048-3.433-6.457-2.278c-2.416,1.153-3.436,4.046-2.281,6.457
			c2.676,5.595,8.445,9.21,14.699,9.21c6.253,0,12.022-3.615,14.699-9.21C271.852,264.578,270.832,261.688,268.418,260.532z"/>
	</g>
	<g>
		<polygon fill="#84C6E7" points="279.067,139.984 374.963,62.934 374.264,185.948 		"/>
		<path fill="#FFFFFF" d="M378.899,189.541c-2.639,5.465-9.205,7.755-14.67,5.117l-86.844-41.93
			c-5.463-2.637-7.754-9.205-5.115-14.67l0,0c2.637-5.463,9.205-7.754,14.67-5.115l86.842,41.928
			C379.245,177.51,381.534,184.076,378.899,189.541L378.899,189.541z"/>
		<path fill="#FFFFFF" d="M384.633,75.513c3.227-6.679,0.428-14.706-6.25-17.933c-6.683-3.225-14.709-0.424-17.935,6.256
			c-3.227,6.678-0.426,14.707,6.254,17.932C373.383,84.993,381.411,82.191,384.633,75.513z"/>
	</g>
</g>
</svg>
