<?xml version="1.0" encoding="utf-8"?>
<!-- Generator: Adobe Illustrator 16.0.0, SVG Export Plug-In . SVG Version: 6.00 Build 0)  -->
<!DOCTYPE svg PUBLIC "-//W3C//DTD SVG 1.1//EN" "http://www.w3.org/Graphics/SVG/1.1/DTD/svg11.dtd">
<svg version="1.1" id="Layer_1" xmlns="http://www.w3.org/2000/svg" xmlns:xlink="http://www.w3.org/1999/xlink" x="0px" y="0px"
	 width="512px" height="512px" viewBox="0 0 512 512" enable-background="new 0 0 512 512" xml:space="preserve">
<path fill="#EFEDEE" d="M0,209.873v215.876c0,34.137,27.674,61.811,61.811,61.811h388.378c34.137,0,61.811-27.674,61.811-61.811
	V209.873l-256-61.811L0,209.873z"/>
<path fill="#D4D4D5" d="M123.622,425.748V209.873H0v215.876c0,34.137,27.674,61.811,61.811,61.811h123.622
	C151.295,487.559,123.622,459.885,123.622,425.748z"/>
<path fill="#FF8E9E" d="M450.189,86.252H61.811C27.674,86.252,0,113.926,0,148.063v61.811h512v-61.811
	C512,113.926,484.326,86.252,450.189,86.252L450.189,86.252z"/>
<path fill="#EA5B70" d="M61.811,86.252C27.674,86.252,0,113.926,0,148.063v61.811h123.622c0-68.273,55.348-123.621,123.622-123.621
	C240.021,86.252,66.541,86.252,61.811,86.252L61.811,86.252z"/>
<path fill="#D4D4D5" d="M154.527,24.441c-17.068,0-30.906,13.838-30.906,30.906v92.716c0,7.593,2.739,14.539,7.281,19.919
	l54.53-65.188V55.347C185.433,38.278,171.595,24.441,154.527,24.441z"/>
<path fill="#EFEDEE" d="M130.903,167.982c5.669,6.716,14.149,10.986,23.625,10.986c17.068,0,30.905-13.837,30.905-30.905v-45.27
	C160.358,117.299,140.852,140.357,130.903,167.982z"/>
<path fill="#D4D4D5" d="M357.473,178.968c-17.068,0-30.905-13.837-30.905-30.905V55.347c0-17.068,13.837-30.906,30.905-30.906
	s30.906,13.838,30.906,30.906v92.716C388.379,165.131,374.541,178.968,357.473,178.968z"/>
</svg>
