<svg width="374" height="585" viewBox="0 0 374 585" fill="none" xmlns="http://www.w3.org/2000/svg">
<rect width="374" height="585" fill="#FFD880"/>
<path d="M346 37.3325H339.333V44C339.333 44.7328 338.733 45.3325 338 45.3325C337.267 45.3325 336.667 44.7322 336.667 44V37.3325H330C329.267 37.3325 328.667 36.7322 328.667 36C328.667 35.2665 329.268 34.6662 330 34.6662H336.667V28C336.667 27.2665 337.268 26.6662 338 26.6662C338.733 26.6662 339.333 27.2665 339.333 28V34.6662H346C346.733 34.6662 347.333 35.2665 347.333 36C347.333 36.7328 346.733 37.3325 346 37.3325Z" fill="#0A394B"/>
<path d="M24.3331 43H45.6669C46.4003 43 47 42.3997 47 41.6663C47 40.9335 46.3997 40.3325 45.6669 40.3325H24.3331C23.6003 40.3325 23 40.9335 23 41.6663C23 42.4003 23.601 43 24.3331 43ZM24.3331 36.3325H45.6669C46.4003 36.3325 47 35.7322 47 35C47 34.2666 46.3997 33.6663 45.6669 33.6663H24.3331C23.6003 33.6663 23 34.2666 23 35C23 35.7328 23.601 36.3325 24.3331 36.3325ZM23 28.3325C23 29.0659 23.6003 29.6663 24.3331 29.6663H45.6669C46.4003 29.6663 47 29.0659 47 28.3325C47 27.5997 46.3997 27 45.6669 27H24.3331C23.601 27 23 27.6003 23 28.3325Z" fill="#0A394B"/>
<path d="M294.346 34.3884V43.0034C294.346 44.4731 295.545 45.6718 297.014 45.6718H307.679C309.147 45.6718 310.346 44.4737 310.346 43.0034V34.3843C310.346 32.9158 309.148 31.7159 307.679 31.7159H306.542C306.251 31.7159 306.014 31.9514 306.014 32.2443C306.014 32.5354 306.25 32.7738 306.542 32.7738H307.679C308.57 32.7738 309.294 33.4986 309.294 34.389V43.004C309.294 43.8939 308.569 44.6193 307.679 44.6193H297.014C296.126 44.6193 295.399 43.8933 295.399 43.004V34.3849C295.399 33.4938 296.126 32.7697 297.014 32.7697H298.148C298.443 32.7697 298.678 32.5342 298.678 32.2396C298.678 31.9485 298.443 31.7124 298.148 31.7124H297.014C295.541 31.7154 294.346 32.9146 294.346 34.3884Z" fill="#0A394B" stroke="#0A394B" stroke-width="1.5" stroke-miterlimit="10"/>
<path d="M302.346 36.8077C302.637 36.8077 302.876 36.5698 302.876 36.2776V26.4023L305.581 29.1109C305.788 29.318 306.119 29.318 306.323 29.1109C306.53 28.9038 306.53 28.5748 306.323 28.3666L302.719 24.7635C302.621 24.6641 302.488 24.606 302.346 24.606C302.208 24.606 302.072 24.6641 301.972 24.7635L298.366 28.3666C298.159 28.5748 298.159 28.9038 298.366 29.1109C298.574 29.318 298.903 29.318 299.11 29.1109L301.819 26.4023V36.2776C301.821 36.5698 302.053 36.8077 302.346 36.8077Z" fill="#0A394B" stroke="#0A394B" stroke-width="1.5" stroke-miterlimit="10"/>
<path d="M128.618 30.408H131.858V37.644H128.618V30.408ZM126.278 39.516H134.198V28.536H126.278V39.516ZM141.164 33.216H138.752V26.988H136.376V43.548H138.752V35.178H141.164V33.216ZM148.111 30.228H151.495V34.926H148.111V30.228ZM150.991 39.768V36.816H156.049V34.926H153.853V30.228H156.103V28.338H143.503V30.228H145.753V34.926H143.593V36.816H148.615V39.768H142.333V41.676H157.345V39.768H150.991ZM173.885 34.98H171.707C172.121 32.658 172.121 30.966 172.121 29.418V27.924H160.619V29.832H169.799C169.799 31.254 169.763 32.874 169.349 34.98H158.909V36.888H165.101V43.548H167.513V36.888H173.885V34.98ZM188.626 39.768V35.988H193.36V34.098H184V28.23H181.624V35.988H186.25V39.768H179.932V41.694H194.944V39.768H188.626ZM209.397 37.914C210.063 34.386 210.063 32.046 210.063 29.976V28.392H198.021V30.282H207.687C207.687 32.208 207.651 34.512 207.021 37.644L209.397 37.914ZM204.177 39.642V33.936H201.801V39.642H196.509V41.55H211.503V39.642H204.177ZM222.967 34.836C220.285 33.972 219.169 31.884 219.169 29.778V27.978H216.757V29.76C216.757 32.028 215.587 34.242 212.797 35.142L214.057 36.996C215.947 36.366 217.261 35.07 217.999 33.414C218.719 34.908 219.943 36.096 221.743 36.69L222.967 34.836ZM217.801 37.95H215.425V43.26H226.675V41.37H217.801V37.95ZM226.099 31.776V26.97H223.723V39.102H226.099V33.738H228.295V31.776H226.099ZM237.06 41.766C234.846 41.766 233.712 41.388 233.712 40.524C233.712 39.66 234.846 39.264 237.06 39.264C239.274 39.264 240.408 39.66 240.408 40.524C240.408 41.388 239.274 41.766 237.06 41.766ZM237.06 37.464C233.478 37.464 231.318 38.562 231.318 40.524C231.318 42.468 233.478 43.566 237.06 43.566C240.642 43.566 242.82 42.468 242.82 40.524C242.82 38.562 240.642 37.464 237.06 37.464ZM238.302 34.764V33.396H242.91V31.506H233.802V29.562H242.82V27.672H231.444V33.396H235.926V34.764H229.626V36.654H244.62V34.764H238.302Z" fill="#0A394B"/>
<path d="M113.25 27C110.348 27 108 29.3475 108 32.25C108 36.1875 113.25 42 113.25 42C113.25 42 118.5 36.1875 118.5 32.25C118.5 29.3475 116.152 27 113.25 27ZM113.25 34.125C112.215 34.125 111.375 33.285 111.375 32.25C111.375 31.215 112.215 30.375 113.25 30.375C114.285 30.375 115.125 31.215 115.125 32.25C115.125 33.285 114.285 34.125 113.25 34.125Z" fill="#0A394B"/>
<path d="M252.988 32.6765C252.583 33.083 252.583 33.739 252.988 34.1455L257.77 38.927C258.177 39.3335 258.833 39.3335 259.238 38.927L264.02 34.1455C264.427 33.739 264.427 33.083 264.02 32.6765C263.614 32.27 262.958 32.27 262.552 32.6765L258.5 36.7175L254.458 32.6765C254.053 32.2705 253.385 32.28 252.988 32.6765Z" fill="#0A394B"/>
<rect x="86" y="86" width="200" height="50" rx="25" fill="white" fill-opacity="0.3"/>
<path d="M115.854 107.314C114.132 107.65 112.494 107.762 110.968 107.79V103.87H109.12V109.33H110.212C112.018 109.33 113.964 109.204 116.064 108.784L115.854 107.314ZM112.102 113.768H118.752V110.198H110.24V111.654H116.904V112.41H110.254V116.05H119.13V114.608H112.102V113.768ZM118.752 105.718V103.296H116.904V109.666H118.752V107.216H120.46V105.718H118.752ZM129.069 104.332H127.319V106.502C127.319 108.014 127.193 109.694 126.423 110.996C125.639 109.68 125.513 107.986 125.513 106.502V104.332H123.777V106.502C123.777 108.56 123.539 110.8 121.901 112.074L123.091 113.334C123.875 112.704 124.365 111.78 124.673 110.688C124.995 111.836 125.527 112.858 126.423 113.544C127.319 112.858 127.865 111.836 128.173 110.646C128.481 111.794 128.999 112.746 129.839 113.404L130.959 112.074C129.307 110.8 129.069 108.574 129.069 106.502V104.332ZM131.323 103.31V116.204H133.171V103.31H131.323ZM145.238 108.434H141.71V105.13H145.238V108.434ZM146.358 104.206H140.59V109.344H146.358V104.206ZM142.48 113.656H145.42V110.772H141.332V111.64H144.314V112.83H141.36V115.868H142.116C144.146 115.868 145.14 115.84 146.372 115.574L146.246 114.706C145.14 114.93 144.202 114.972 142.48 114.972V113.656ZM145.952 111.682H148.682V115.938H149.816V110.772H145.952V111.682ZM151.678 106.278H149.816V103.492H148.668V110.114H149.816V107.216H151.678V106.278ZM159.321 103.758C156.605 103.758 154.911 104.64 154.911 106.138C154.911 107.622 156.605 108.504 159.321 108.504C162.037 108.504 163.731 107.622 163.731 106.138C163.731 104.64 162.037 103.758 159.321 103.758ZM159.321 104.668C161.309 104.668 162.555 105.214 162.555 106.138C162.555 107.062 161.309 107.608 159.321 107.608C157.333 107.608 156.087 107.062 156.087 106.138C156.087 105.214 157.333 104.668 159.321 104.668ZM155.051 111.738V115.868H163.619V111.738H155.051ZM162.499 112.648V114.944H156.171V112.648H162.499ZM153.651 109.582V110.506H165.005V109.582H153.651ZM173.04 116.846H171.844V105.047H173.04V116.846ZM180.32 104.472V113.138H186.522V104.472H180.32ZM184.702 105.928V111.682H182.14V105.928H184.702ZM188.524 103.31V116.232H190.372V103.31H188.524ZM197.385 104.43H195.607V106.6C195.607 108.798 194.921 111.108 193.031 112.256L194.137 113.642C195.299 112.942 196.055 111.71 196.503 110.282C196.909 111.584 197.595 112.676 198.687 113.348L199.695 111.92C197.945 110.758 197.385 108.616 197.385 106.53V104.43ZM199.961 107.664H198.337V109.162H199.961V115.63H201.683V103.52H199.961V107.664ZM202.579 103.31V116.204H204.329V103.31H202.579ZM211.65 109.12H209.2V105.788H211.65V109.12ZM213.456 108.196H215.78V112.704H217.628V103.31H215.78V106.712H213.456V104.346H207.38V110.562H213.456V108.196ZM210.978 114.51V111.808H209.13V115.98H217.922V114.51H210.978ZM225.411 106.068H228.071V104.542H220.847V106.068H223.535V106.782C223.535 108.98 222.485 111.346 220.329 112.312L221.379 113.782C222.891 113.096 223.927 111.682 224.501 110.002C225.075 111.556 226.097 112.816 227.595 113.46L228.603 112.004C226.447 111.108 225.411 108.882 225.411 106.782V106.068ZM229.261 103.31V116.204H231.109V103.31H229.261ZM239.299 107.972C241.413 107.776 243.331 106.95 244.003 105.662C244.689 106.95 246.593 107.762 248.707 107.972L249.071 107.09C246.887 106.922 244.899 106.012 244.759 104.766H248.637V103.87H239.369V104.766H243.247C243.107 106.012 241.105 106.922 238.921 107.09L239.299 107.972ZM243.989 115.322C242.323 115.322 241.399 115.028 241.399 114.468C241.399 113.88 242.323 113.6 243.989 113.6C245.655 113.6 246.593 113.88 246.593 114.468C246.593 115.028 245.655 115.322 243.989 115.322ZM243.989 112.788C241.567 112.788 240.223 113.362 240.223 114.468C240.223 115.546 241.567 116.106 243.989 116.106C246.411 116.106 247.769 115.546 247.769 114.468C247.769 113.362 246.411 112.788 243.989 112.788ZM244.577 110.114H243.429V111.29H239.369V112.172H248.623V111.29H244.577V110.114ZM244.563 108.686V107.188H243.415V108.686H238.319V109.61H249.687V108.686H244.563ZM257.567 103.758C254.851 103.758 253.157 104.64 253.157 106.138C253.157 107.622 254.851 108.504 257.567 108.504C260.283 108.504 261.977 107.622 261.977 106.138C261.977 104.64 260.283 103.758 257.567 103.758ZM257.567 104.668C259.555 104.668 260.801 105.214 260.801 106.138C260.801 107.062 259.555 107.608 257.567 107.608C255.579 107.608 254.333 107.062 254.333 106.138C254.333 105.214 255.579 104.668 257.567 104.668ZM253.297 111.738V115.868H261.865V111.738H253.297ZM260.745 112.648V114.944H254.417V112.648H260.745ZM251.897 109.582V110.506H263.251V109.582H251.897Z" fill="#0A394B"/>
<path d="M182.494 455H154.545V451.104L169.311 434.697C171.498 432.217 173.002 430.205 173.822 428.662C174.662 427.1 175.082 425.488 175.082 423.828C175.082 421.602 174.408 419.775 173.061 418.35C171.713 416.924 169.916 416.211 167.67 416.211C164.975 416.211 162.875 416.982 161.371 418.525C159.887 420.049 159.145 422.178 159.145 424.912H153.725C153.725 420.986 154.984 417.812 157.504 415.391C160.043 412.969 163.432 411.758 167.67 411.758C171.635 411.758 174.77 412.803 177.074 414.893C179.379 416.963 180.531 419.727 180.531 423.184C180.531 427.383 177.855 432.383 172.504 438.184L161.078 450.576H182.494V455ZM206.049 455H200.6V418.877L189.672 422.891V417.969L205.199 412.139H206.049V455ZM222.191 419.375C222.191 417.344 222.914 415.566 224.359 414.043C225.824 412.52 227.592 411.758 229.662 411.758C231.693 411.758 233.422 412.52 234.848 414.043C236.293 415.547 237.016 417.324 237.016 419.375C237.016 421.445 236.293 423.213 234.848 424.678C233.422 426.143 231.693 426.875 229.662 426.875C227.611 426.875 225.854 426.143 224.389 424.678C222.924 423.213 222.191 421.445 222.191 419.375ZM229.662 423.125C230.717 423.125 231.605 422.783 232.328 422.1C233.051 421.396 233.412 420.488 233.412 419.375C233.412 418.242 233.051 417.314 232.328 416.592C231.605 415.85 230.717 415.479 229.662 415.479C228.588 415.479 227.68 415.869 226.938 416.65C226.215 417.412 225.854 418.32 225.854 419.375C225.854 420.43 226.215 421.318 226.938 422.041C227.68 422.764 228.588 423.125 229.662 423.125Z" fill="#0A394B"/>
<path d="M139.516 495.588C138.484 495.588 137.764 494.46 137.764 492.708C137.764 490.968 138.484 489.84 139.516 489.84C140.536 489.84 141.256 490.968 141.256 492.708C141.256 494.46 140.536 495.588 139.516 495.588ZM144.52 488.124V492.228H142.18C142.024 490.212 140.968 488.952 139.516 488.952C137.944 488.952 136.828 490.416 136.828 492.708C136.828 495 137.944 496.464 139.516 496.464C141.016 496.464 142.084 495.144 142.18 493.032H144.52V498.912H145.504V488.124H144.52ZM150.831 490.188H152.751V489.384H147.843V490.188H149.883V491.16C149.883 493.14 149.043 495.096 147.543 495.996L148.143 496.728C149.211 496.056 149.991 494.796 150.363 493.32C150.735 494.688 151.479 495.84 152.523 496.464L153.123 495.744C151.635 494.904 150.831 493.032 150.831 491.16V490.188ZM153.711 491.988H151.935V492.792H153.711V498.324H154.647V488.364H153.711V491.988ZM155.871 488.112V498.876H156.819V488.112H155.871ZM160.838 491.616H166.334V493.596H160.838V491.616ZM164.078 496.704V494.388H167.294V488.892H166.334V490.812H160.838V488.892H159.866V494.388H163.082V496.704H158.714V497.508H168.47V496.704H164.078ZM171.193 489.972H175.213V489.156H170.209V496.224H171.061C173.089 496.224 174.505 496.152 176.149 495.84L176.041 495.024C174.481 495.3 173.101 495.384 171.193 495.384V489.972ZM179.809 492.372H178.033V488.124H177.049V498.912H178.033V493.188H179.809V492.372ZM187.404 498H186.314V490.775L184.129 491.578V490.594L187.234 489.428H187.404V498ZM190.633 490.875C190.633 490.469 190.777 490.113 191.066 489.809C191.359 489.504 191.713 489.352 192.127 489.352C192.533 489.352 192.879 489.504 193.164 489.809C193.453 490.109 193.598 490.465 193.598 490.875C193.598 491.289 193.453 491.643 193.164 491.936C192.879 492.229 192.533 492.375 192.127 492.375C191.717 492.375 191.365 492.229 191.072 491.936C190.779 491.643 190.633 491.289 190.633 490.875ZM192.127 491.625C192.338 491.625 192.516 491.557 192.66 491.42C192.805 491.279 192.877 491.098 192.877 490.875C192.877 490.648 192.805 490.463 192.66 490.318C192.516 490.17 192.338 490.096 192.127 490.096C191.912 490.096 191.73 490.174 191.582 490.33C191.438 490.482 191.365 490.664 191.365 490.875C191.365 491.086 191.438 491.264 191.582 491.408C191.73 491.553 191.912 491.625 192.127 491.625ZM201.668 495.684H204.02V497.952H201.668V495.684ZM204.992 495.684H206.636V494.892H199.052V495.684H200.696V497.952H198.956V498.744H206.732V497.952H204.992V495.684ZM203.336 493.032V491.664H206.612V490.872H200.276V488.364H199.292V491.664H202.352V493.032H197.984V493.824H207.716V493.032H203.336ZM211.879 495.588C210.835 495.588 210.103 494.46 210.103 492.708C210.103 490.968 210.835 489.84 211.879 489.84C212.911 489.84 213.643 490.968 213.643 492.708C213.643 494.46 212.911 495.588 211.879 495.588ZM211.879 488.952C210.295 488.952 209.167 490.416 209.167 492.708C209.167 495 210.295 496.464 211.879 496.464C213.463 496.464 214.579 495 214.579 492.708C214.579 490.416 213.463 488.952 211.879 488.952ZM219.067 492.42H217.291V488.136H216.307V498.888H217.291V493.248H219.067V492.42ZM223.422 494.16C223.866 494.268 224.382 494.328 224.91 494.328C225.45 494.328 225.966 494.268 226.422 494.16V496.692H223.422V494.16ZM224.91 489.576C226.638 489.576 227.886 490.368 227.886 491.568C227.886 492.768 226.638 493.56 224.91 493.56C223.182 493.56 221.946 492.768 221.946 491.568C221.946 490.368 223.182 489.576 224.91 489.576ZM227.406 496.692V493.776C228.294 493.308 228.822 492.54 228.822 491.568C228.822 489.888 227.202 488.808 224.91 488.808C222.63 488.808 220.998 489.888 220.998 491.568C220.998 492.54 221.538 493.32 222.438 493.788V496.692H220.038V497.508H229.818V496.692H227.406ZM232.486 495.592H231.508L231.432 489.469H232.568L232.486 495.592ZM231.391 497.455C231.391 497.279 231.443 497.133 231.549 497.016C231.658 496.895 231.818 496.834 232.029 496.834C232.24 496.834 232.4 496.895 232.51 497.016C232.619 497.133 232.674 497.279 232.674 497.455C232.674 497.631 232.619 497.777 232.51 497.895C232.4 498.008 232.24 498.064 232.029 498.064C231.818 498.064 231.658 498.008 231.549 497.895C231.443 497.777 231.391 497.631 231.391 497.455Z" fill="#0A394B"/>
<path d="M132.722 476.534C134.22 476.058 135.382 475.064 135.928 473.748C136.502 474.994 137.65 475.946 139.134 476.394L139.666 475.512C137.832 474.966 136.516 473.636 136.488 472.04H139.386V471.116H136.488V469.562H135.34V471.116H132.484V472.04H135.34C135.312 473.692 134.038 475.078 132.19 475.638L132.722 476.534ZM136.488 476.114H135.34V478.452C134.066 478.494 132.848 478.494 131.812 478.494L131.966 479.46C134.206 479.446 137.286 479.432 140.1 478.914L140.002 478.06C138.882 478.242 137.664 478.326 136.488 478.396V476.114ZM140.828 469.478V482.05H141.976V469.478H140.828ZM153.483 471.984C153.483 473.496 153.483 475.26 153.007 477.668L154.155 477.794C154.631 475.26 154.631 473.538 154.631 471.984V470.738H145.825V471.676H153.483V471.984ZM150.193 479.334V474.84H149.045V479.334H144.635V480.272H155.989V479.334H150.193ZM167.579 481H161.058V480.091L164.503 476.263C165.013 475.684 165.364 475.215 165.556 474.854C165.752 474.49 165.85 474.114 165.85 473.727C165.85 473.207 165.692 472.781 165.378 472.448C165.063 472.116 164.644 471.949 164.12 471.949C163.491 471.949 163.001 472.129 162.65 472.489C162.304 472.845 162.131 473.341 162.131 473.979H160.866C160.866 473.063 161.16 472.323 161.748 471.758C162.34 471.193 163.131 470.91 164.12 470.91C165.045 470.91 165.777 471.154 166.314 471.642C166.852 472.125 167.121 472.77 167.121 473.576C167.121 474.556 166.497 475.723 165.248 477.076L162.582 479.968H167.579V481ZM170.758 475.408H171.708C172.305 475.399 172.774 475.242 173.116 474.937C173.458 474.631 173.629 474.219 173.629 473.699C173.629 472.533 173.048 471.949 171.886 471.949C171.339 471.949 170.901 472.106 170.573 472.421C170.25 472.731 170.088 473.143 170.088 473.658H168.823C168.823 472.87 169.11 472.216 169.685 471.696C170.263 471.172 170.997 470.91 171.886 470.91C172.825 470.91 173.561 471.159 174.094 471.655C174.627 472.152 174.894 472.842 174.894 473.727C174.894 474.16 174.752 474.579 174.47 474.984C174.192 475.39 173.811 475.693 173.328 475.894C173.875 476.067 174.297 476.354 174.593 476.755C174.894 477.156 175.044 477.646 175.044 478.225C175.044 479.118 174.752 479.826 174.169 480.351C173.586 480.875 172.827 481.137 171.893 481.137C170.958 481.137 170.197 480.884 169.609 480.378C169.026 479.872 168.734 479.204 168.734 478.375H170.006C170.006 478.899 170.177 479.318 170.519 479.633C170.86 479.947 171.318 480.104 171.893 480.104C172.503 480.104 172.97 479.945 173.294 479.626C173.618 479.307 173.779 478.849 173.779 478.252C173.779 477.673 173.602 477.229 173.246 476.919C172.891 476.609 172.378 476.45 171.708 476.44H170.758V475.408ZM176.842 472.688C176.842 472.214 177.01 471.799 177.348 471.443C177.689 471.088 178.102 470.91 178.585 470.91C179.059 470.91 179.462 471.088 179.795 471.443C180.132 471.794 180.301 472.209 180.301 472.688C180.301 473.171 180.132 473.583 179.795 473.925C179.462 474.267 179.059 474.438 178.585 474.438C178.106 474.438 177.696 474.267 177.354 473.925C177.013 473.583 176.842 473.171 176.842 472.688ZM178.585 473.562C178.831 473.562 179.038 473.483 179.207 473.323C179.376 473.159 179.46 472.947 179.46 472.688C179.46 472.423 179.376 472.207 179.207 472.038C179.038 471.865 178.831 471.778 178.585 471.778C178.334 471.778 178.122 471.869 177.949 472.052C177.781 472.229 177.696 472.441 177.696 472.688C177.696 472.934 177.781 473.141 177.949 473.31C178.122 473.478 178.334 473.562 178.585 473.562ZM185.872 481.854H184.785L188.941 471.047H190.021L185.872 481.854ZM195.626 476.534C197.124 476.058 198.286 475.064 198.832 473.748C199.406 474.994 200.554 475.946 202.038 476.394L202.57 475.512C200.736 474.966 199.42 473.636 199.392 472.04H202.29V471.116H199.392V469.562H198.244V471.116H195.388V472.04H198.244C198.216 473.692 196.942 475.078 195.094 475.638L195.626 476.534ZM199.392 476.114H198.244V478.452C196.97 478.494 195.752 478.494 194.716 478.494L194.87 479.46C197.11 479.446 200.19 479.432 203.004 478.914L202.906 478.06C201.786 478.242 200.568 478.326 199.392 478.396V476.114ZM203.732 469.478V482.05H204.88V469.478H203.732ZM211.865 471.704H214.721V470.766H207.875V471.704H210.717V473.16C210.717 475.386 209.219 477.766 207.427 478.648L208.099 479.558C209.527 478.802 210.745 477.192 211.291 475.344C211.865 477.08 213.069 478.578 214.469 479.292L215.155 478.396C213.335 477.528 211.865 475.246 211.865 473.16V471.704ZM216.723 469.478V474.042H214.007V474.98H216.723V482.05H217.871V469.478H216.723ZM224.646 481H223.374V472.571L220.824 473.508V472.359L224.447 470.999H224.646V481ZM232.507 481H231.235V472.571L228.686 473.508V472.359L232.309 470.999H232.507V481ZM236.273 472.688C236.273 472.214 236.442 471.799 236.779 471.443C237.121 471.088 237.534 470.91 238.017 470.91C238.491 470.91 238.894 471.088 239.227 471.443C239.564 471.794 239.732 472.209 239.732 472.688C239.732 473.171 239.564 473.583 239.227 473.925C238.894 474.267 238.491 474.438 238.017 474.438C237.538 474.438 237.128 474.267 236.786 473.925C236.444 473.583 236.273 473.171 236.273 472.688ZM238.017 473.562C238.263 473.562 238.47 473.483 238.639 473.323C238.807 473.159 238.892 472.947 238.892 472.688C238.892 472.423 238.807 472.207 238.639 472.038C238.47 471.865 238.263 471.778 238.017 471.778C237.766 471.778 237.554 471.869 237.381 472.052C237.212 472.229 237.128 472.441 237.128 472.688C237.128 472.934 237.212 473.141 237.381 473.31C237.554 473.478 237.766 473.562 238.017 473.562Z" fill="#0A394B"/>
<path d="M116.5 529H55.6875C50.8892 529 47 532.134 47 536C47 539.866 50.8892 543 55.6875 543H116.5" fill="#9FCFEE"/>
<path d="M116.5 529H55.6875C50.8892 529 47 532.134 47 536C47 539.866 50.8892 543 55.6875 543H116.5" stroke="white" stroke-width="2" stroke-miterlimit="10"/>
<path d="M255.5 529H316.312C321.111 529 325 532.134 325 536C325 539.866 321.111 543 316.312 543H255.5" fill="#F9817E"/>
<path d="M255.5 529H316.312C321.111 529 325 532.134 325 536C325 539.866 321.111 543 316.312 543H255.5" stroke="white" stroke-width="2" stroke-miterlimit="10"/>
<path d="M186 543H116.5V529H186V543Z" fill="#71CE9B" stroke="white" stroke-width="2" stroke-miterlimit="10"/>
<path d="M255.5 543H186V529H255.5V543Z" fill="#FFD880" stroke="white" stroke-width="2" stroke-miterlimit="10"/>
<path d="M105 544V528C105 525.791 103.209 524 101 524C98.7909 524 97 525.791 97 528V544C97 546.209 98.7909 548 101 548C103.209 548 105 546.209 105 544Z" fill="#F3F8FF"/>
<path d="M317 282.554C317 276.086 312.545 270.659 306.537 269.168C310.997 264.874 312.141 257.947 308.906 252.345C305.67 246.743 299.103 244.27 293.155 245.984C294.868 240.036 292.394 233.464 286.793 230.229C281.189 226.994 274.264 228.138 269.968 232.597C268.481 226.588 263.052 222.133 256.585 222.133C250.114 222.133 244.688 226.588 243.197 232.595C238.904 228.137 231.977 226.993 226.373 230.226C220.771 233.461 218.3 240.032 220.012 245.98C214.063 244.266 207.492 246.738 204.259 252.341C201.023 257.942 202.169 264.869 206.627 269.164C200.618 270.654 196.163 276.08 196.163 282.55C196.163 289.018 200.615 294.445 206.625 295.934C202.167 300.229 201.021 307.157 204.257 312.759C207.49 318.361 214.061 320.833 220.008 319.12C218.296 325.068 220.769 331.64 226.37 334.873C231.971 338.11 238.896 336.964 243.191 332.507C244.683 338.515 250.109 342.969 256.579 342.969C263.048 342.97 268.475 338.516 269.964 332.508C274.259 336.965 281.187 338.111 286.788 334.876C292.39 331.642 294.863 325.072 293.149 319.124C299.097 320.837 305.67 318.365 308.904 312.763C312.137 307.16 310.993 300.234 306.537 295.939C312.545 294.45 317 289.022 317 282.554Z" fill="#EDE7DF"/>
<path d="M239.405 275.16C242.908 275.171 245.745 277.443 245.735 280.234C245.727 283.025 242.879 285.279 239.374 285.269C235.869 285.258 233.034 282.987 233.041 280.196C233.052 277.404 235.898 275.149 239.405 275.16Z" fill="#FF8E9E"/>
<path d="M273.759 285.39C270.255 285.38 267.418 283.108 267.427 280.316C267.437 277.526 270.285 275.271 273.788 275.282C277.295 275.292 280.128 277.563 280.119 280.356C280.111 283.146 277.262 285.401 273.759 285.39Z" fill="#FF8E9E"/>
<path d="M242.569 271.036C241.669 271.036 240.938 271.766 240.938 272.667V274.839C240.938 275.739 241.669 276.468 242.569 276.468C243.468 276.468 244.198 275.739 244.198 274.839V272.667C244.198 271.766 243.468 271.036 242.569 271.036Z" fill="#313D40"/>
<path d="M270.376 271.036C269.476 271.036 268.747 271.766 268.747 272.667V274.839C268.747 275.739 269.476 276.468 270.376 276.468C271.277 276.468 272.005 275.739 272.005 274.839V272.667C272.005 271.766 271.277 271.036 270.376 271.036Z" fill="#313D40"/>
<path d="M260.76 277.28C259.948 276.89 258.976 277.235 258.586 278.046C258.226 278.804 257.438 279.292 256.581 279.292C255.726 279.292 254.937 278.804 254.574 278.046C254.187 277.234 253.213 276.892 252.403 277.28C251.59 277.668 251.248 278.641 251.635 279.452C252.536 281.335 254.476 282.551 256.582 282.551C258.685 282.551 260.629 281.336 261.526 279.452C261.916 278.641 261.571 277.668 260.76 277.28Z" fill="#313D40"/>
<path d="M264.344 236.717L296.611 210.792L296.375 252.183L264.344 236.717Z" fill="#FFC747"/>
<path d="M297.935 253.392C297.048 255.232 294.836 256.002 292.998 255.115L263.778 241.006C261.939 240.119 261.168 237.909 262.055 236.07C262.944 234.232 265.155 233.461 266.992 234.348L296.214 248.457C298.052 249.344 298.822 251.554 297.935 253.392Z" fill="white"/>
<path d="M299.866 215.024C300.948 212.777 300.008 210.075 297.761 208.99C295.512 207.905 292.81 208.848 291.727 211.095C290.641 213.342 291.585 216.044 293.83 217.129C296.079 218.214 298.78 217.271 299.866 215.024Z" fill="white"/>
<path d="M148.797 195.095L159.72 204.976L174.117 201.882C180.138 200.589 186.158 204.068 188.049 209.926L192.569 223.942L206.584 228.461C212.444 230.35 215.921 236.372 214.627 242.39L211.532 256.791L221.412 267.712C225.542 272.28 225.542 279.233 221.412 283.8L211.532 294.719L214.627 309.116C215.921 315.137 212.445 321.159 206.584 323.048L192.569 327.566L188.049 341.585C186.158 347.446 180.138 350.922 174.117 349.627L159.72 346.535L148.797 356.415C144.231 360.543 137.279 360.543 132.713 356.415L121.788 346.535L107.39 349.627C101.37 350.92 95.3507 347.446 93.4598 341.585L88.9407 327.566L74.9251 323.048C69.0642 321.159 65.5887 315.137 66.8816 309.116L69.975 294.719L60.0967 283.8C55.9678 279.233 55.9678 272.28 60.0967 267.712L69.975 256.791L66.8816 242.39C65.5887 236.372 69.0639 230.35 74.9251 228.461L88.9407 223.942L93.4598 209.926C95.3507 204.068 101.37 200.589 107.39 201.882L121.788 204.976L132.713 195.095C137.279 190.968 144.231 190.968 148.797 195.095Z" fill="#FFB357"/>
<path d="M140.754 339.114C105.82 339.114 77.3961 310.688 77.3961 275.756C77.3961 240.818 105.82 212.396 140.754 212.396C175.689 212.396 204.114 240.818 204.114 275.756C204.114 310.688 175.689 339.114 140.754 339.114Z" fill="#FCE3A0"/>
<path d="M111.775 275.756C111.775 246.773 131.332 222.276 157.943 214.768C152.476 213.221 146.709 212.396 140.754 212.396C105.82 212.396 77.3961 240.818 77.3961 275.755C77.3961 310.688 105.82 339.114 140.754 339.114C146.709 339.114 152.476 338.289 157.943 336.742C131.333 329.233 111.775 304.739 111.775 275.756Z" fill="#FFCE71"/>
<path d="M114.107 265.299C119.543 265.316 123.941 268.837 123.929 273.168C123.915 277.502 119.495 280.995 114.059 280.979C108.622 280.963 104.224 277.441 104.236 273.11C104.249 268.781 108.669 265.283 114.107 265.299Z" fill="#FF8E9E"/>
<path d="M167.404 281.169C161.966 281.151 157.569 277.632 157.581 273.298C157.594 268.969 162.012 265.47 167.451 265.485C172.888 265.504 177.284 269.029 177.273 273.36C177.26 277.689 172.842 281.186 167.404 281.169Z" fill="#FF8E9E"/>
<path d="M119.016 258.903C117.618 258.903 116.487 260.034 116.487 261.43V264.8C116.487 266.198 117.618 267.329 119.016 267.329C120.412 267.329 121.544 266.198 121.544 264.8V261.43C121.544 260.034 120.412 258.903 119.016 258.903Z" fill="#313D40"/>
<path d="M162.157 258.903C160.761 258.903 159.629 260.034 159.629 261.43V264.8C159.629 266.198 160.761 267.329 162.157 267.329C163.552 267.329 164.686 266.198 164.686 264.8V261.43C164.686 260.034 163.552 258.903 162.157 258.903Z" fill="#313D40"/>
<path d="M147.239 268.588C145.978 267.985 144.469 268.52 143.865 269.78C143.306 270.951 142.084 271.711 140.754 271.711C139.426 271.711 138.204 270.951 137.641 269.78C137.04 268.52 135.53 267.986 134.27 268.588C133.012 269.191 132.479 270.699 133.081 271.958C134.479 274.878 137.49 276.768 140.754 276.768C144.018 276.768 147.029 274.878 148.428 271.958C149.031 270.699 148.498 269.191 147.239 268.588Z" fill="#313D40"/>
</svg>
