<?xml version="1.0" encoding="utf-8"?>
<!-- Generator: Adobe Illustrator 16.0.0, SVG Export Plug-In . SVG Version: 6.00 Build 0)  -->
<!DOCTYPE svg PUBLIC "-//W3C//DTD SVG 1.1//EN" "http://www.w3.org/Graphics/SVG/1.1/DTD/svg11.dtd">
<svg version="1.1" id="Layer_1" xmlns="http://www.w3.org/2000/svg" xmlns:xlink="http://www.w3.org/1999/xlink" x="0px" y="0px"
	 width="24px" height="24px" viewBox="-3 -3 24 24" enable-background="new -3 -3 24 24" xml:space="preserve">
<path fill="#3492E9" d="M9-0.333c5.146,0,9.332,4.187,9.332,9.333c0,5.146-4.187,9.332-9.332,9.332
	c-5.146,0-9.333-4.187-9.333-9.332C-0.333,3.854,3.854-0.333,9-0.333 M9-0.333c5.146,0,9.332,4.187,9.332,9.333
	c0,5.146-4.187,9.332-9.332,9.332c-5.146,0-9.333-4.187-9.333-9.332C-0.333,3.854,3.854-0.333,9-0.333 M9-3C2.373-3-3,2.373-3,9
	c0,6.629,5.373,12,12,12c6.629,0,12-5.371,12-12C21,2.373,15.629-3,9-3L9-3z"/>
</svg>
