<?xml version="1.0" encoding="utf-8"?>
<!-- Generator: Adobe Illustrator 16.0.0, SVG Export Plug-In . SVG Version: 6.00 Build 0)  -->
<!DOCTYPE svg PUBLIC "-//W3C//DTD SVG 1.1//EN" "http://www.w3.org/Graphics/SVG/1.1/DTD/svg11.dtd">
<svg version="1.1" id="Layer_1" xmlns="http://www.w3.org/2000/svg" xmlns:xlink="http://www.w3.org/1999/xlink" x="0px" y="0px"
	 width="12px" height="12px" viewBox="3 3 12 12" enable-background="new 3 3 12 12" xml:space="preserve">
<path fill="#3492E9" d="M9,4.333c2.573,0,4.666,2.093,4.666,4.667S11.573,13.666,9,13.666S4.333,11.573,4.333,9S6.427,4.333,9,4.333
	 M9,4.333c2.573,0,4.666,2.093,4.666,4.667S11.573,13.666,9,13.666S4.333,11.573,4.333,9S6.427,4.333,9,4.333 M9,3
	C5.686,3,3,5.687,3,9c0,3.314,2.686,6,6,6c3.314,0,6-2.686,6-6C15,5.687,12.314,3,9,3L9,3z"/>
</svg>
