<?xml version="1.0" encoding="utf-8"?>
<!-- Generator: Adobe Illustrator 16.0.0, SVG Export Plug-In . SVG Version: 6.00 Build 0)  -->
<!DOCTYPE svg PUBLIC "-//W3C//DTD SVG 1.1//EN" "http://www.w3.org/Graphics/SVG/1.1/DTD/svg11.dtd">
<svg version="1.1" id="Layer_1" xmlns="http://www.w3.org/2000/svg" xmlns:xlink="http://www.w3.org/1999/xlink" x="0px" y="0px"
	 width="12px" height="12px" viewBox="0 0 12 12" enable-background="new 0 0 12 12" xml:space="preserve">
<g>
	<path fill="#FFFFFF" d="M6,11.5c-3.033,0-5.5-2.468-5.5-5.5c0-3.033,2.467-5.5,5.5-5.5c3.032,0,5.5,2.467,5.5,5.5
		C11.5,9.032,9.032,11.5,6,11.5z"/>
	<path fill="#3492E9" d="M6,1c2.757,0,5,2.243,5,5s-2.243,5-5,5S1,8.757,1,6S3.243,1,6,1 M6,0C2.687,0,0,2.687,0,6
		c0,3.313,2.687,6,6,6c3.313,0,6-2.688,6-6C12,2.687,9.313,0,6,0L6,0z"/>
</g>
</svg>
