<?xml version="1.0" encoding="utf-8"?>
<!-- Generator: Adobe Illustrator 16.0.0, SVG Export Plug-In . SVG Version: 6.00 Build 0)  -->
<!DOCTYPE svg PUBLIC "-//W3C//DTD SVG 1.1 Tiny//EN" "http://www.w3.org/Graphics/SVG/1.1/DTD/svg11-tiny.dtd">
<svg version="1.1" baseProfile="tiny" id="Layer_1" xmlns="http://www.w3.org/2000/svg" xmlns:xlink="http://www.w3.org/1999/xlink"
	 x="0px" y="0px" width="18px" height="18px" viewBox="3 3 18 18" xml:space="preserve">
<circle fill="#FFFFFF" cx="12" cy="12" r="9"/>
<path fill="#3492E9" d="M12,5c3.859,0,7,3.14,7,7c0,3.859-3.141,7-7,7c-3.86,0-7-3.141-7-7C5,8.14,8.14,5,12,5 M12,3
	c-4.971,0-9,4.03-9,9c0,4.97,4.029,9,9,9c4.97,0,9-4.03,9-9C21,7.03,16.97,3,12,3L12,3z"/>
</svg>
