<?xml version="1.0" encoding="utf-8"?>
<!-- Generator: Adobe Illustrator 16.0.0, SVG Export Plug-In . SVG Version: 6.00 Build 0)  -->
<!DOCTYPE svg PUBLIC "-//W3C//DTD SVG 1.1//EN" "http://www.w3.org/Graphics/SVG/1.1/DTD/svg11.dtd">
<svg version="1.1" id="Layer_1" xmlns="http://www.w3.org/2000/svg" xmlns:xlink="http://www.w3.org/1999/xlink" x="0px" y="0px"
	 width="36px" height="36px" viewBox="-9 -9 36 36" enable-background="new -9 -9 36 36" xml:space="preserve">
<path fill="#3492E9" d="M9-5c7.719,0,13.998,6.28,13.998,14c0,7.719-6.279,13.998-13.998,13.998C1.28,22.998-5,16.719-5,9
	C-5,1.28,1.28-5,9-5 M9-5c7.719,0,13.998,6.28,13.998,14c0,7.719-6.279,13.998-13.998,13.998C1.28,22.998-5,16.719-5,9
	C-5,1.28,1.28-5,9-5 M9-9C-0.941-9-9-0.94-9,9c0,9.943,8.059,18,18,18c9.943,0,18-8.057,18-18C27-0.94,18.943-9,9-9L9-9z"/>
</svg>
