<?xml version="1.0" encoding="utf-8"?>
<!-- Generator: Adobe Illustrator 16.0.0, SVG Export Plug-In . SVG Version: 6.00 Build 0)  -->
<!DOCTYPE svg PUBLIC "-//W3C//DTD SVG 1.1//EN" "http://www.w3.org/Graphics/SVG/1.1/DTD/svg11.dtd">
<svg version="1.1" id="Layer_1" xmlns="http://www.w3.org/2000/svg" xmlns:xlink="http://www.w3.org/1999/xlink" x="0px" y="0px"
	 width="18px" height="18px" viewBox="0 0 18 18" enable-background="new 0 0 18 18" xml:space="preserve">
<path fill="#3492E9" d="M9,2c3.859,0,6.999,3.14,6.999,7c0,3.859-3.14,6.999-6.999,6.999c-3.86,0-7-3.14-7-6.999C2,5.14,5.14,2,9,2
	 M9,2c3.859,0,6.999,3.14,6.999,7c0,3.859-3.14,6.999-6.999,6.999c-3.86,0-7-3.14-7-6.999C2,5.14,5.14,2,9,2 M9,0
	C4.029,0,0,4.03,0,9c0,4.972,4.029,9,9,9c4.972,0,9-4.028,9-9C18,4.03,13.972,0,9,0L9,0z"/>
</svg>
