<?xml version="1.0" encoding="utf-8"?>
<!-- Generator: Adobe Illustrator 16.0.0, SVG Export Plug-In . SVG Version: 6.00 Build 0)  -->
<!DOCTYPE svg PUBLIC "-//W3C//DTD SVG 1.1//EN" "http://www.w3.org/Graphics/SVG/1.1/DTD/svg11.dtd">
<svg version="1.1" id="Layer_1" xmlns="http://www.w3.org/2000/svg" xmlns:xlink="http://www.w3.org/1999/xlink" x="0px" y="0px"
	 width="512px" height="512px" viewBox="0 0 512 512" enable-background="new 0 0 512 512" xml:space="preserve">
<g>
	<path fill="#EDE7DF" d="M435.559,276.207c0.001-19.226-13.236-35.352-31.092-39.781c13.25-12.762,16.65-33.35,7.039-50
		c-9.614-16.649-29.138-23.996-46.814-18.905c5.092-17.676-2.257-37.207-18.906-46.819c-16.65-9.614-37.234-6.214-49.996,7.035
		c-4.429-17.857-20.557-31.096-39.782-31.096s-35.352,13.236-39.782,31.091c-12.763-13.25-33.351-16.65-50-7.037
		c-16.647,9.611-23.997,29.138-18.904,46.814c-17.678-5.092-37.208,2.256-46.819,18.906c-9.614,16.647-6.212,37.232,7.035,49.996
		c-17.857,4.428-31.095,20.556-31.095,39.782c-0.001,19.224,13.234,35.352,31.09,39.78c-13.25,12.763-16.65,33.349-7.038,49.999
		c9.614,16.649,29.138,23.998,46.814,18.906c-5.091,17.678,2.257,37.207,18.907,46.82c16.648,9.613,37.229,6.213,49.995-7.035
		c4.43,17.855,20.556,31.094,39.783,31.095c19.225,0.001,35.35-13.235,39.78-31.091c12.763,13.248,33.348,16.65,50,7.037
		c16.648-9.611,23.997-29.137,18.905-46.814c17.678,5.092,37.207-2.256,46.819-18.905c9.614-16.648,6.215-37.233-7.033-49.997
		C422.32,311.561,435.555,295.432,435.559,276.207z"/>
	
		<ellipse transform="matrix(0.003 -1 1 0.003 -64.9534 473.361)" fill="#FF8E9E" cx="204.905" cy="269.253" rx="15.02" ry="18.861"/>
	
		<ellipse transform="matrix(-0.003 1 -1 -0.003 577.6359 -36.6637)" fill="#FF8E9E" cx="307.094" cy="269.614" rx="15.021" ry="18.862"/>
	<g>
		<path fill="#313D40" d="M214.355,241.979c-2.676,0-4.844,2.168-4.844,4.843v6.456c0,2.674,2.168,4.842,4.844,4.842
			c2.674,0,4.843-2.168,4.843-4.842v-6.456C219.198,244.147,217.029,241.979,214.355,241.979z"/>
		<path fill="#313D40" d="M296.998,241.979c-2.673,0-4.841,2.168-4.841,4.843v6.456c0,2.674,2.168,4.842,4.841,4.842
			c2.675,0,4.844-2.168,4.844-4.842v-6.456C301.842,244.147,299.673,241.979,296.998,241.979z"/>
		<path fill="#313D40" d="M268.418,260.532c-2.411-1.156-5.303-0.134-6.456,2.279c-1.076,2.25-3.416,3.702-5.962,3.702
			c-2.545,0-4.888-1.452-5.961-3.702c-1.156-2.413-4.047-3.433-6.457-2.279c-2.416,1.154-3.435,4.046-2.281,6.457
			c2.676,5.595,8.444,9.21,14.699,9.21c6.254,0,12.024-3.615,14.699-9.21C271.852,264.578,270.832,261.687,268.418,260.532z"/>
	</g>
	<polygon fill="#A4D643" points="279.067,139.984 374.962,62.934 374.263,185.948 	"/>
	<path fill="#FFFFFF" d="M378.899,189.541c-2.639,5.465-9.205,7.755-14.671,5.117l-86.841-41.93
		c-5.465-2.637-7.756-9.205-5.117-14.67l0,0c2.637-5.463,9.205-7.754,14.67-5.115l86.842,41.928
		C379.245,177.51,381.536,184.076,378.899,189.541L378.899,189.541z"/>
	<circle fill="#FFFFFF" cx="372.542" cy="69.674" r="13.428"/>
</g>
</svg>
