<?xml version="1.0" encoding="utf-8"?>
<!-- Generator: Adobe Illustrator 16.0.0, SVG Export Plug-In . SVG Version: 6.00 Build 0)  -->
<!DOCTYPE svg PUBLIC "-//W3C//DTD SVG 1.1//EN" "http://www.w3.org/Graphics/SVG/1.1/DTD/svg11.dtd">
<svg version="1.1" id="Layer_1" xmlns="http://www.w3.org/2000/svg" xmlns:xlink="http://www.w3.org/1999/xlink" x="0px" y="0px"
	 width="512px" height="512px" viewBox="0 0 512 512" enable-background="new 0 0 512 512" xml:space="preserve">
<g>
	<g>
		<path fill="#EDE7DF" d="M435.559,276.207c0.001-19.227-13.236-35.351-31.091-39.781c13.248-12.762,16.65-33.35,7.038-50
			c-9.613-16.65-29.14-23.997-46.817-18.906c5.094-17.676-2.254-37.206-18.903-46.818c-16.648-9.615-37.232-6.215-49.998,7.035
			c-4.427-17.857-20.555-31.096-39.78-31.096s-35.354,13.236-39.782,31.09c-12.762-13.25-33.35-16.65-50-7.037
			c-16.646,9.611-23.996,29.139-18.904,46.815c-17.678-5.093-37.206,2.255-46.821,18.905c-9.612,16.648-6.212,37.232,7.036,49.996
			c-17.855,4.429-31.094,20.556-31.094,39.783c-0.002,19.223,13.236,35.351,31.091,39.779c-13.251,12.764-16.65,33.35-7.038,50
			c9.611,16.648,29.137,23.997,46.814,18.906c-5.093,17.677,2.256,37.206,18.906,46.82c16.649,9.612,37.23,6.213,49.996-7.035
			c4.429,17.855,20.556,31.094,39.782,31.094c19.226,0.002,35.351-13.235,39.779-31.091c12.762,13.249,33.35,16.65,50,7.038
			c16.649-9.611,23.998-29.137,18.907-46.815c17.677,5.092,37.207-2.256,46.818-18.905c9.614-16.648,6.213-37.232-7.035-49.996
			C422.32,311.561,435.556,295.432,435.559,276.207z"/>
	</g>
	<g>
		
			<ellipse transform="matrix(0.003 -1 1 0.003 -57.636 484.3434)" fill="#FF8E9E" cx="214.084" cy="271.077" rx="12.321" ry="15.472"/>
		<path fill="#FF8E9E" d="M297.879,283.701c-8.546-0.025-15.456-5.563-15.436-12.367c0.02-6.804,6.962-12.299,15.507-12.273
			c8.548,0.025,15.458,5.563,15.438,12.367C313.366,278.232,306.423,283.728,297.879,283.701z"/>
		<g>
			<path fill="#313D40" d="M217.122,247.194c-2.518,0-4.555,2.04-4.555,4.557v6.074c0,2.516,2.037,4.555,4.555,4.555
				c2.517,0,4.558-2.039,4.558-4.555v-6.074C221.68,249.234,219.639,247.194,217.122,247.194z"/>
			<path fill="#313D40" d="M294.875,247.194c-2.515,0-4.555,2.04-4.555,4.557v6.074c0,2.516,2.04,4.555,4.555,4.555
				c2.517,0,4.557-2.039,4.557-4.555v-6.074C299.432,249.234,297.392,247.194,294.875,247.194z"/>
			<path fill="#313D40" d="M267.987,255.537c-2.268-1.087-4.989-0.126-6.075,2.145c-1.011,2.115-3.213,3.483-5.607,3.483
				c-2.396,0-4.598-1.368-5.61-3.483c-1.085-2.271-3.806-3.23-6.074-2.145c-2.271,1.084-3.231,3.805-2.147,6.075
				c2.518,5.264,7.947,8.665,13.832,8.665c5.883,0,11.313-3.401,13.827-8.665C271.219,259.342,270.255,256.621,267.987,255.537
				L267.987,255.537z"/>
			<path fill="#313D40" d="M225.777,236.493l-7.89-4.556c-2.181-1.259-4.968-0.513-6.225,1.667
				c-1.258,2.179-0.513,4.965,1.667,6.223l7.891,4.557c0.717,0.414,1.501,0.611,2.274,0.611c1.574,0,3.105-0.817,3.949-2.279
				C228.702,240.537,227.954,237.75,225.777,236.493z"/>
			<path fill="#313D40" d="M300.337,233.604c-1.259-2.18-4.044-2.926-6.223-1.667l-7.892,4.556c-2.18,1.258-2.925,4.044-1.667,6.223
				c0.844,1.462,2.375,2.279,3.947,2.279c0.774,0,1.558-0.197,2.274-0.611l7.893-4.557
				C300.848,238.569,301.596,235.783,300.337,233.604L300.337,233.604z"/>
		</g>
	</g>
	<g>
		<polygon fill="#DD655B" points="278.471,139.985 374.366,62.932 373.667,185.948 		"/>
		<path fill="#FFFFFF" d="M378.303,189.541c-2.64,5.464-9.206,7.755-14.671,5.116l-86.841-41.928
			c-5.465-2.639-7.757-9.205-5.117-14.67l0,0c2.636-5.465,9.205-7.756,14.67-5.117l86.841,41.928
			C378.65,177.508,380.941,184.077,378.303,189.541L378.303,189.541z"/>
		<path fill="#FFFFFF" d="M384.038,75.512c3.226-6.68,0.426-14.707-6.252-17.932c-6.682-3.225-14.708-0.424-17.933,6.254
			c-3.227,6.68-0.426,14.707,6.254,17.932S380.817,82.192,384.038,75.512z"/>
	</g>
	<path fill="#FFFFFF" d="M296.428,280.413c0,14.107-11.438,25.543-25.545,25.543h-29.769c-14.104,0-25.541-11.436-25.541-25.543l0,0
		c0-14.107,11.437-25.543,25.541-25.543h29.769C284.99,254.87,296.428,266.306,296.428,280.413L296.428,280.413z"/>
	<path fill="none" stroke="#FFFFFF" stroke-width="5" stroke-miterlimit="10" d="M423.716,247.391
		c-41.763,22.987-99.722,37.227-163.785,37.227c-66.589,0-126.582-15.387-168.648-39.987"/>
	
		<line fill="none" stroke="#E5E1DA" stroke-width="5" stroke-linecap="round" stroke-miterlimit="10" x1="240.686" y1="273.555" x2="271.919" y2="273.555"/>
	
		<line fill="none" stroke="#E5E1DA" stroke-width="5" stroke-linecap="round" stroke-miterlimit="10" x1="240.383" y1="285.618" x2="271.617" y2="285.618"/>
</g>
</svg>
