<svg height="432pt" viewBox="-60 0 432 432.96" width="432pt" xmlns="http://www.w3.org/2000/svg"><path d="m64.734375 160.808594.089844-127.777344c.011719-18.242188 13.820312-33.03125 30.851562-33.03125h.007813c17.042968 0 30.863281 14.800781 30.863281 33.050781v126.460938c.558594-17.742188 14.136719-31.921875 30.828125-31.921875h.730469c17.039062 0 30.851562 14.800781 30.851562 33.058594v10.640624c0-18.257812 13.816407-33.058593 30.859375-33.058593h.070313c17.039062 0 30.859375 14.800781 30.859375 33.058593v16.761719c0-18.25 13.808594-33.050781 30.847656-33.050781h.691406c17.011719 0 30.808594 14.738281 30.859375 32.960938.128907 59.609374.050781 65.46875-.039062 154.507812-.050781 49.992188-37.890625 90.492188-84.558594 90.492188h-100.203125c-30.667969 0-58.9375-17.789063-73.867188-46.480469l-51.332031-133.589844c-5.832031-15.164063-1.90625-32.351563 9.929688-43.480469zm0 0" fill="#f7caa5"/></svg>