<?xml version="1.0" encoding="utf-8"?>
<!-- Generator: Adobe Illustrator 16.0.0, SVG Export Plug-In . SVG Version: 6.00 Build 0)  -->
<!DOCTYPE svg PUBLIC "-//W3C//DTD SVG 1.1//EN" "http://www.w3.org/Graphics/SVG/1.1/DTD/svg11.dtd">
<svg version="1.1" id="Layer_1" xmlns="http://www.w3.org/2000/svg" xmlns:xlink="http://www.w3.org/1999/xlink" x="0px" y="0px"
	 width="150px" height="150px" viewBox="0 0 150 150" enable-background="new 0 0 150 150" xml:space="preserve">
<g>
	<g>
		<path fill="#ECE7DF" d="M146.17,75.011c0-3.188-2.194-5.861-5.155-6.595c2.196-2.116,2.761-5.529,1.168-8.289
			c-1.595-2.761-4.831-3.979-7.762-3.135c0.846-2.931-0.373-6.168-3.134-7.761c-2.761-1.594-6.173-1.031-8.288,1.167
			c-0.733-2.961-3.408-5.155-6.595-5.155c-3.188,0-5.861,2.194-6.595,5.155c-2.115-2.198-5.528-2.763-8.288-1.169
			c-2.761,1.594-3.979,4.832-3.135,7.762c-2.931-0.845-6.168,0.373-7.761,3.133c-1.595,2.76-1.031,6.172,1.166,8.288
			c-2.96,0.735-5.154,3.408-5.154,6.596s2.193,5.86,5.153,6.594c-2.197,2.117-2.761,5.529-1.165,8.289
			c1.593,2.761,4.83,3.978,7.759,3.134c-0.844,2.931,0.374,6.168,3.135,7.763c2.76,1.594,6.172,1.029,8.287-1.167
			c0.734,2.959,3.406,5.154,6.596,5.154c3.187,0,5.86-2.195,6.595-5.153c2.115,2.195,5.528,2.761,8.289,1.167
			c2.759-1.594,3.977-4.832,3.134-7.762c2.931,0.845,6.168-0.374,7.762-3.135c1.592-2.758,1.029-6.172-1.167-8.288
			C143.975,80.87,146.17,78.198,146.17,75.011z"/>
		<ellipse transform="matrix(0.003 -1 1 0.003 32.0155 179.281)" fill="#F48D9E" cx="105.918" cy="73.584" rx="3.083" ry="3.87"/>
		
			<ellipse transform="matrix(-0.003 1 -1 -0.003 200.9272 -53.0065)" fill="#F48D9E" cx="126.887" cy="73.658" rx="3.083" ry="3.871"/>
		<g>
			<path fill="#323E41" d="M107.857,67.988c-0.548,0-0.993,0.444-0.993,0.993v1.324c0,0.549,0.445,0.994,0.993,0.994
				c0.549,0,0.994-0.445,0.994-0.994v-1.324C108.852,68.432,108.406,67.988,107.857,67.988z"/>
			<path fill="#323E41" d="M124.816,67.988c-0.548,0-0.995,0.444-0.995,0.993v1.324c0,0.549,0.447,0.994,0.995,0.994
				c0.549,0,0.994-0.445,0.994-0.994v-1.324C125.811,68.432,125.365,67.988,124.816,67.988z"/>
			<path fill="#323E41" d="M118.952,71.794c-0.496-0.237-1.089-0.027-1.326,0.468c-0.221,0.461-0.7,0.76-1.224,0.76
				c-0.521,0-1.003-0.299-1.223-0.76c-0.236-0.495-0.83-0.704-1.324-0.468c-0.496,0.237-0.704,0.83-0.469,1.325
				c0.549,1.147,1.733,1.89,3.016,1.89c1.283,0,2.468-0.743,3.018-1.89C119.656,72.624,119.447,72.032,118.952,71.794z"/>
		</g>
	</g>
	<g>
		<path fill="#FBB359" d="M59.241,12.177l6.593,5.963l8.691-1.867c3.633-0.782,7.269,1.317,8.408,4.854l2.729,8.46l8.461,2.729
			c3.538,1.141,5.635,4.775,4.854,8.408l-1.867,8.691l5.962,6.593c2.493,2.757,2.493,6.953,0,9.71l-5.962,6.593l1.867,8.69
			c0.78,3.635-1.316,7.268-4.854,8.408l-8.461,2.729l-2.729,8.461c-1.141,3.536-4.775,5.636-8.408,4.854l-8.691-1.866l-6.593,5.962
			c-2.757,2.492-6.954,2.492-9.71,0l-6.593-5.962l-8.69,1.866c-3.633,0.782-7.268-1.317-8.409-4.854l-2.728-8.461L14.65,89.41
			c-3.537-1.141-5.635-4.773-4.854-8.408l1.867-8.69l-5.963-6.593c-2.492-2.757-2.492-6.953,0-9.71l5.963-6.593l-1.867-8.691
			c-0.781-3.633,1.317-7.267,4.854-8.408l8.46-2.729l2.729-8.46c1.141-3.537,4.774-5.636,8.408-4.854l8.691,1.867l6.593-5.963
			C52.288,9.685,56.484,9.685,59.241,12.177z"/>
		<path fill="#FBE3A0" d="M54.387,99.108c-21.088,0-38.245-17.157-38.245-38.245c0-21.088,17.156-38.245,38.245-38.245
			c21.088,0,38.245,17.156,38.245,38.245S75.475,99.108,54.387,99.108L54.387,99.108z"/>
		<path fill="#FFCE73" d="M36.893,60.864c0-17.495,11.806-32.28,27.869-36.814c-3.3-0.931-6.781-1.43-10.375-1.43
			c-21.088,0-38.245,17.156-38.245,38.244c0,21.088,17.156,38.246,38.245,38.246c3.595,0,7.075-0.5,10.375-1.432
			C48.699,93.144,36.893,78.357,36.893,60.864z"/>
		<ellipse transform="matrix(0.003 -1 1 0.003 -29.1814 91.763)" fill="#F48D9E" cx="31.43" cy="60.516" rx="6.462" ry="8.114"/>
		
			<ellipse transform="matrix(-0.0029 1 -1 -0.0029 136.2855 -14.5551)" fill="#F48D9E" cx="75.399" cy="60.667" rx="6.461" ry="8.115"/>
		<g>
			<path fill="#323E41" d="M35.498,48.781c-1.15,0-2.084,0.932-2.084,2.083v2.777c0,1.151,0.934,2.084,2.084,2.084
				s2.083-0.933,2.083-2.084v-2.777C37.581,49.713,36.648,48.781,35.498,48.781z"/>
			<path fill="#323E41" d="M71.054,48.781c-1.15,0-2.084,0.932-2.084,2.083v2.777c0,1.151,0.934,2.084,2.084,2.084
				c1.149,0,2.083-0.933,2.083-2.084v-2.777C73.137,49.713,72.203,48.781,71.054,48.781z"/>
			<path fill="#323E41" d="M58.757,53.984c-1.038-0.497-2.282-0.057-2.778,0.981c-0.462,0.968-1.469,1.592-2.565,1.592
				c-1.095,0-2.102-0.624-2.564-1.592c-0.497-1.038-1.742-1.477-2.779-0.981c-1.038,0.496-1.478,1.741-0.981,2.777
				c1.152,2.407,3.634,3.963,6.324,3.963c2.691,0,5.173-1.556,6.325-3.963C60.234,55.724,59.795,54.48,58.757,53.984z"/>
		</g>
	</g>
	<g>
		<path fill="#D5D4D5" d="M81.038,62.072c-3.109-0.789-6.363-1.209-9.715-1.209c-17.159,0-31.754,10.969-37.166,26.274v0.002
			C20.053,87.326,8.274,98.848,8.274,113.415c0,14.513,11.764,26.277,26.276,26.277h55.911L81.038,62.072z"/>
		<path fill="#F0EDEE" d="M110.732,100.277c-0.001-18.455-12.653-33.884-29.694-38.206c-17.063,4.333-29.688,19.794-29.688,38.207
			c0,21.668,17.484,39.249,39.111,39.414h20.329c10.884,0,19.709-8.823,19.709-19.707C130.5,108.958,121.486,100.22,110.732,100.277
			z"/>
		
			<ellipse transform="matrix(0.0029 -1 1 0.0029 -56.5141 162.0447)" fill="#F48D9E" cx="53.004" cy="109.363" rx="5.634" ry="7.074"/>
		
			<ellipse transform="matrix(-0.003 1 -1 -0.003 201.1041 18.5108)" fill="#F48D9E" cx="91.325" cy="109.503" rx="5.635" ry="7.075"/>
		<path fill="#323E41" d="M54.387,98.442c-1.151,0-2.084,0.932-2.084,2.082v2.778c0,1.151,0.933,2.083,2.084,2.083
			c1.15,0,2.083-0.932,2.083-2.083v-2.778C56.47,99.374,55.537,98.442,54.387,98.442z"/>
		<path fill="#323E41" d="M89.941,98.442c-1.149,0-2.083,0.932-2.083,2.082v2.778c0,1.151,0.934,2.083,2.083,2.083
			c1.15,0,2.085-0.932,2.085-2.083v-2.778C92.026,99.374,91.092,98.442,89.941,98.442z"/>
		<path fill="#323E41" d="M77.646,102.257c-1.038-0.496-2.282-0.058-2.778,0.981c-0.463,0.968-1.47,1.593-2.565,1.593
			c-1.096,0-2.102-0.625-2.565-1.593c-0.497-1.039-1.74-1.478-2.778-0.981s-1.477,1.74-0.98,2.778
			c1.15,2.406,3.633,3.963,6.323,3.963c2.691,0,5.173-1.557,6.325-3.963C79.124,103.997,78.685,102.753,77.646,102.257
			L77.646,102.257z"/>
	</g>
</g>
</svg>
