<?xml version="1.0" encoding="utf-8"?>
<!-- Generator: Adobe Illustrator 16.0.0, SVG Export Plug-In . SVG Version: 6.00 Build 0)  -->
<!DOCTYPE svg PUBLIC "-//W3C//DTD SVG 1.1//EN" "http://www.w3.org/Graphics/SVG/1.1/DTD/svg11.dtd">
<svg version="1.1" id="Layer_1" xmlns="http://www.w3.org/2000/svg" xmlns:xlink="http://www.w3.org/1999/xlink" x="0px" y="0px"
	 width="150px" height="150px" viewBox="0 0 150 150" enable-background="new 0 0 150 150" xml:space="preserve">
<g>
	<g>
		<path fill="#ECE7DF" d="M147.36,72.93c0.001-7.603-5.235-13.984-12.297-15.733c5.239-5.05,6.584-13.192,2.781-19.778
			c-3.8-6.584-11.522-9.491-18.515-7.478c2.014-6.991-0.891-14.714-7.477-18.517c-6.587-3.804-14.729-2.458-19.776,2.781
			C90.328,7.144,83.946,1.908,76.345,1.908c-7.606,0-13.985,5.236-15.733,12.297c-5.051-5.242-13.192-6.584-19.78-2.785
			c-6.585,3.804-9.489,11.525-7.476,18.518c-6.992-2.014-14.717,0.891-18.518,7.477c-3.803,6.585-2.457,14.728,2.783,19.774
			c-7.062,1.752-12.299,8.13-12.299,15.735c-0.002,7.604,5.234,13.983,12.298,15.735c-5.242,5.048-6.586,13.19-2.785,19.774
			c3.8,6.586,11.525,9.492,18.518,7.479c-2.015,6.989,0.891,14.715,7.475,18.519c6.588,3.8,14.728,2.456,19.777-2.782
			c1.752,7.06,8.13,12.299,15.734,12.299c7.605,0,13.98-5.236,15.733-12.299c5.05,5.241,13.189,6.588,19.777,2.785
			c6.584-3.804,9.488-11.526,7.478-18.518c6.991,2.013,14.714-0.892,18.518-7.477c3.802-6.584,2.457-14.727-2.784-19.773
			C142.125,86.913,147.36,80.534,147.36,72.93z"/>
		
			<ellipse transform="matrix(0.0031 -1 1 0.0031 -18.3596 120.638)" fill="#F48D9E" cx="51.324" cy="69.527" rx="7.354" ry="9.235"/>
		<path fill="#F48D9E" d="M101.334,77.057c-5.103-0.016-9.225-3.32-9.213-7.383c0.014-4.059,4.154-7.341,9.257-7.325
			c5.098,0.016,9.223,3.318,9.213,7.381C110.577,73.791,106.435,77.074,101.334,77.057z"/>
		<g>
			<path fill="#323E41" d="M55.952,56.173c-1.31,0-2.373,1.062-2.373,2.373v3.158c0,1.311,1.063,2.374,2.373,2.374
				c1.309,0,2.37-1.063,2.37-2.374v-3.158C58.322,57.235,57.261,56.173,55.952,56.173z"/>
			<path fill="#323E41" d="M96.411,56.173c-1.308,0-2.368,1.062-2.368,2.373v3.158c0,1.311,1.061,2.374,2.368,2.374
				c1.311,0,2.374-1.063,2.374-2.374v-3.158C98.785,57.235,97.722,56.173,96.411,56.173z"/>
			<path fill="#323E41" d="M82.421,65.256c-1.181-0.566-2.598-0.064-3.161,1.114c-0.526,1.104-1.674,1.814-2.921,1.814
				c-1.245,0-2.392-0.709-2.917-1.814c-0.565-1.179-1.982-1.678-3.163-1.114c-1.183,0.567-1.68,1.981-1.115,3.162
				c1.311,2.739,4.136,4.508,7.195,4.508c3.063,0,5.888-1.77,7.197-4.508C84.102,67.237,83.601,65.823,82.421,65.256z"/>
		</g>
	</g>
	<g>
		<path fill="#FBB359" d="M40.726,78.753l4.656,4.208l6.135-1.314c2.566-0.555,5.133,0.928,5.938,3.426l1.926,5.972l5.973,1.929
			c2.498,0.805,3.979,3.369,3.428,5.936l-1.319,6.135l4.21,4.657c1.762,1.944,1.762,4.907,0,6.855l-4.21,4.654l1.319,6.134
			c0.551,2.567-0.931,5.133-3.428,5.939l-5.973,1.925l-1.926,5.973c-0.805,2.497-3.372,3.979-5.938,3.429l-6.135-1.316l-4.656,4.207
			c-1.944,1.762-4.908,1.762-6.855,0l-4.654-4.207l-6.136,1.316c-2.565,0.551-5.131-0.932-5.937-3.429l-1.927-5.973l-5.972-1.925
			c-2.499-0.807-3.979-3.372-3.429-5.939l1.319-6.134l-4.211-4.654c-1.758-1.948-1.758-4.911,0-6.855l4.211-4.657l-1.319-6.135
			c-0.551-2.566,0.93-5.131,3.429-5.936l5.972-1.929l1.927-5.972c0.806-2.498,3.372-3.98,5.937-3.426l6.136,1.314l4.654-4.208
			C35.817,76.99,38.781,76.99,40.726,78.753z"/>
		<path fill="#FBE3A0" d="M37.299,140.128c-14.889,0-27.001-12.111-27.001-27.001c0-14.891,12.112-27.002,27.001-27.002
			c14.89,0,27.003,12.111,27.003,27.002C64.302,128.017,52.189,140.128,37.299,140.128L37.299,140.128z"/>
		<path fill="#FFCE73" d="M24.949,113.127c0-12.351,8.335-22.791,19.678-25.991c-2.334-0.657-4.792-1.011-7.328-1.011
			c-14.889,0-27.001,12.111-27.001,27.002c0,14.89,12.112,27.001,27.001,27.001c2.536,0,4.994-0.354,7.328-1.01
			C33.284,135.918,24.949,125.479,24.949,113.127z"/>
	</g>
	<g>
		<path fill="#D5D4D5" d="M105.214,84.938c-2.516-0.612-5.146-0.927-7.852-0.898c-13.852,0.137-25.545,9.108-29.788,21.506v0.001
			c-11.384,0.266-20.799,9.66-20.678,21.421c0.116,11.714,9.706,21.114,21.418,20.998l45.131-0.45L105.214,84.938z"/>
		<path fill="#F0EDEE" d="M129.487,115.535c-0.149-14.896-10.485-27.248-24.273-30.598c-13.74,3.633-23.804,16.217-23.655,31.079
			c0.172,17.488,14.429,31.537,31.887,31.498l16.41-0.164c8.785-0.088,15.834-7.281,15.746-16.067
			C145.514,122.383,138.168,115.402,129.487,115.535z"/>
	</g>
</g>
</svg>
