<?xml version="1.0" encoding="utf-8"?>
<!-- Generator: Adobe Illustrator 16.0.0, SVG Export Plug-In . SVG Version: 6.00 Build 0)  -->
<!DOCTYPE svg PUBLIC "-//W3C//DTD SVG 1.1//EN" "http://www.w3.org/Graphics/SVG/1.1/DTD/svg11.dtd">
<svg version="1.1" id="Layer_1" xmlns="http://www.w3.org/2000/svg" xmlns:xlink="http://www.w3.org/1999/xlink" x="0px" y="0px"
	 width="150px" height="30px" viewBox="0 0 150 30" enable-background="new 0 0 150 30" xml:space="preserve">
<g>
	<g>
		<path fill="#FFE168" stroke="#000000" stroke-linecap="round" stroke-miterlimit="10" d="M45.5,21.563
			c3.625,0,6.563-2.938,6.563-6.563S49.125,8.438,45.5,8.438S38.937,11.375,38.937,15S41.876,21.563,45.5,21.563z"/>
		<path fill="none" stroke="#000000" stroke-linecap="round" stroke-miterlimit="10" d="M45.5,4.688V1.875"/>
		<path fill="none" stroke="#000000" stroke-linecap="round" stroke-miterlimit="10" d="M38.208,7.708L36.22,5.72"/>
		<path fill="none" stroke="#000000" stroke-linecap="round" stroke-miterlimit="10" d="M35.188,15h-2.813"/>
		<path fill="none" stroke="#000000" stroke-linecap="round" stroke-miterlimit="10" d="M38.208,22.292L36.22,24.28"/>
		<path fill="none" stroke="#000000" stroke-linecap="round" stroke-miterlimit="10" d="M45.5,25.313v2.813"/>
		<path fill="none" stroke="#000000" stroke-linecap="round" stroke-miterlimit="10" d="M52.792,22.292l1.988,1.988"/>
		<path fill="none" stroke="#000000" stroke-linecap="round" stroke-miterlimit="10" d="M55.813,15h2.813"/>
		<path fill="none" stroke="#000000" stroke-linecap="round" stroke-miterlimit="10" d="M52.792,7.708L54.78,5.72"/>
	</g>
	<rect x="30.5" fill="none" width="30" height="30"/>
</g>
<g>
	<g>
		
			<path fill="#A2CDFF" fill-opacity="0.1" stroke="#000000" stroke-linecap="round" stroke-linejoin="round" stroke-miterlimit="10" d="
			M107.6,15.85c-1.16,1.158-3.039,1.158-4.199,0l-8.113-8.115c-0.639,0.675-1.037,1.576-1.037,2.578v9.375
			c0,2.07,1.68,3.75,3.75,3.75h15c2.07,0,3.75-1.68,3.75-3.75v-9.375c0-1-0.398-1.903-1.037-2.576L107.6,15.85z"/>
		<path fill="#A2CDFF" stroke="#000000" stroke-linecap="round" stroke-linejoin="round" stroke-miterlimit="10" d="M107.6,15.85
			l8.113-8.113c-0.684-0.721-1.643-1.174-2.713-1.174H98c-1.07,0-2.029,0.453-2.713,1.172l8.113,8.115
			C104.561,17.01,106.439,17.01,107.6,15.85z"/>
	</g>
	<rect x="90.5" fill="none" width="30" height="30"/>
</g>
<g>
	<g>
		<path fill="#F4F4F4" stroke="#010101" stroke-linecap="round" stroke-linejoin="round" stroke-miterlimit="10" d="M85.419,15
			c1.466-1.637,1.79-4.086,0.632-6.093c-1.156-2.007-3.443-2.949-5.592-2.501C79.775,4.32,77.816,2.813,75.5,2.813
			c-2.314,0-4.275,1.508-4.959,3.594c-2.147-0.449-4.433,0.494-5.591,2.5c-1.156,2.006-0.832,4.457,0.633,6.094
			c-1.465,1.637-1.79,4.088-0.633,6.094c1.157,2.006,3.444,2.949,5.591,2.5c0.685,2.088,2.644,3.596,4.959,3.594
			c2.316,0.002,4.275-1.506,4.959-3.594c2.148,0.449,4.434-0.492,5.592-2.5C87.209,19.09,86.883,16.637,85.419,15z"/>
		<path fill="#010101" d="M72.024,15.209c0.509,0,0.922-0.413,0.922-0.922c0-0.51-0.413-0.924-0.922-0.924
			c-0.51,0-0.923,0.414-0.923,0.924C71.101,14.796,71.514,15.209,72.024,15.209z"/>
		<path fill="#010101" d="M78.977,15.209c0.51,0,0.922-0.413,0.922-0.923c0-0.509-0.412-0.923-0.922-0.923s-0.922,0.414-0.922,0.923
			C78.055,14.796,78.467,15.209,78.977,15.209z"/>
		<path fill="none" stroke="#010101" stroke-linecap="round" stroke-linejoin="round" stroke-miterlimit="10" d="M71.731,17.107
			c0.575,1.528,2.04,2.623,3.77,2.623c1.729,0,3.192-1.095,3.771-2.623"/>
	</g>
	<rect x="60.5" fill="none" width="30" height="30"/>
</g>
<g>
	<g>
		<defs>
			<rect id="SVGID_1_" x="0.5" width="30" height="30"/>
		</defs>
		<clipPath id="SVGID_2_">
			<use xlink:href="#SVGID_1_"  overflow="visible"/>
		</clipPath>
		<g clip-path="url(#SVGID_2_)">
			<path fill="#F68383" stroke="#010101" stroke-linecap="round" stroke-linejoin="round" stroke-miterlimit="10" d="M26.75,11.953
				c0-2.07-1.68-3.75-3.75-3.75h-1.875v0.938c0,0.776-0.63,1.406-1.406,1.406c-0.776,0-1.406-0.63-1.406-1.406V8.203h-5.625v0.938
				c0,0.776-0.63,1.406-1.406,1.406c-0.776,0-1.406-0.63-1.406-1.406V8.203H8c-2.071,0-3.75,1.68-3.75,3.75v0.938h22.5V11.953z"/>
			
				<path fill="#F68383" fill-opacity="0.1" stroke="#010101" stroke-linecap="round" stroke-linejoin="round" stroke-miterlimit="10" d="
				M4.25,12.891v8.438c0,2.069,1.679,3.75,3.75,3.75h15c2.07,0,3.75-1.681,3.75-3.75v-8.438H4.25z"/>
			<path fill="none" stroke="#010101" stroke-linecap="round" stroke-linejoin="round" stroke-miterlimit="10" d="M11.281,4.922
				c-0.776,0-1.406,0.63-1.406,1.406v1.875v0.938c0,0.776,0.63,1.406,1.406,1.406c0.776,0,1.406-0.63,1.406-1.406V8.203V6.328
				C12.688,5.552,12.059,4.922,11.281,4.922z"/>
			<path fill="none" stroke="#010101" stroke-linecap="round" stroke-linejoin="round" stroke-miterlimit="10" d="M19.719,4.922
				c-0.776,0-1.406,0.63-1.406,1.406v1.875v0.938c0,0.776,0.63,1.406,1.406,1.406c0.776,0,1.406-0.63,1.406-1.406V8.203V6.328
				C21.125,5.552,20.495,4.922,19.719,4.922z"/>
		</g>
	</g>
</g>
<g>
	<path fill="#DDDDDD" stroke="#010101" stroke-miterlimit="10" d="M146.182,19.002l-1.123-0.648
		c0.367-1.051,0.578-2.176,0.578-3.354c0-1.177-0.211-2.302-0.578-3.352L146.182,11c0.896-0.52,1.202-1.666,0.687-2.563
		c-0.519-0.897-1.664-1.205-2.562-0.688l-1.123,0.646c-1.472-1.711-3.5-2.924-5.809-3.354V3.748c0-1.035-0.84-1.875-1.875-1.875
		s-1.875,0.84-1.875,1.875v1.294c-2.307,0.433-4.337,1.646-5.809,3.354l-1.123-0.646c-0.896-0.518-2.041-0.211-2.561,0.688
		c-0.52,0.896-0.211,2.043,0.686,2.561l1.123,0.648c-0.369,1.049-0.578,2.174-0.578,3.352s0.211,2.303,0.58,3.354L124.818,19
		c-0.896,0.52-1.203,1.666-0.686,2.563c0.52,0.896,1.664,1.205,2.561,0.687l1.123-0.646c1.472,1.709,3.5,2.922,5.808,3.354v1.295
		c0,1.036,0.84,1.875,1.875,1.876c1.036,0,1.875-0.84,1.875-1.876v-1.295c2.308-0.432,4.336-1.645,5.808-3.354l1.123,0.646
		c0.896,0.521,2.043,0.211,2.562-0.687C147.387,20.666,147.079,19.52,146.182,19.002z M136.908,19.535
		c-0.445,0.139-0.918,0.215-1.407,0.215s-0.962-0.076-1.405-0.215c-0.686-0.211-1.3-0.577-1.813-1.051
		c-0.693-0.644-1.194-1.482-1.409-2.438c-0.076-0.337-0.12-0.688-0.12-1.049s0.043-0.71,0.12-1.048
		c0.215-0.951,0.716-1.795,1.409-2.437c0.513-0.475,1.127-0.84,1.812-1.053c0.444-0.137,0.918-0.213,1.407-0.213
		s0.962,0.074,1.407,0.213c0.685,0.213,1.3,0.578,1.813,1.053c0.691,0.642,1.193,1.482,1.408,2.437
		c0.076,0.338,0.121,0.688,0.121,1.048s-0.045,0.712-0.121,1.049c-0.215,0.952-0.717,1.794-1.408,2.438
		C138.208,18.958,137.592,19.324,136.908,19.535z"/>
	<rect x="120.501" fill="none" width="30" height="30"/>
</g>
</svg>
