<svg width="288" height="59" viewBox="0 0 288 59" fill="none" xmlns="http://www.w3.org/2000/svg">
<path d="M250.281 35.0281C250.281 39.0149 253.513 42.2468 257.5 42.2468C261.487 42.2468 264.719 39.0149 264.719 35.0281" fill="#FD6666"/>
<path d="M250.281 35.0281C250.281 39.0149 253.513 42.2468 257.5 42.2468C261.487 42.2468 264.719 39.0149 264.719 35.0281" stroke="#07394B" stroke-width="1.5" stroke-miterlimit="10" stroke-linecap="round"/>
<path d="M257.5 47.1406V50.2344" stroke="#07394B" stroke-width="1.5" stroke-miterlimit="10" stroke-linecap="round"/>
<path d="M264.792 44.1201L266.979 46.3074" stroke="#07394B" stroke-width="1.5" stroke-miterlimit="10" stroke-linecap="round"/>
<path d="M267.813 38.8906H270.906" stroke="#07394B" stroke-width="1.5" stroke-miterlimit="10" stroke-linecap="round"/>
<path d="M247.186 38.8906H244.094" stroke="#07394B" stroke-width="1.5" stroke-miterlimit="10" stroke-linecap="round"/>
<path d="M250.207 44.1211L248.021 46.3073" stroke="#07394B" stroke-width="1.5" stroke-miterlimit="10" stroke-linecap="round"/>
<path d="M271.938 34.7656H243.062" stroke="#07394B" stroke-width="1.5" stroke-miterlimit="10" stroke-linecap="round"/>
<path d="M37.7188 23.9719C37.7188 19.9851 34.4868 16.7532 30.5 16.7532C26.5132 16.7532 23.2812 19.9851 23.2812 23.9719" fill="#FFE168"/>
<path d="M37.7188 23.9719C37.7188 19.9851 34.4868 16.7532 30.5 16.7532C26.5132 16.7532 23.2812 19.9851 23.2812 23.9719" stroke="#07394B" stroke-width="1.5" stroke-miterlimit="10" stroke-linecap="round"/>
<path d="M30.5 11.8594L30.5 8.76562" stroke="#07394B" stroke-width="1.5" stroke-miterlimit="10" stroke-linecap="round"/>
<path d="M23.208 14.8799L21.0207 12.6926" stroke="#07394B" stroke-width="1.5" stroke-miterlimit="10" stroke-linecap="round"/>
<path d="M20.1865 20.1094L17.0938 20.1094" stroke="#07394B" stroke-width="1.5" stroke-miterlimit="10" stroke-linecap="round"/>
<path d="M40.8135 20.1094L43.9062 20.1094" stroke="#07394B" stroke-width="1.5" stroke-miterlimit="10" stroke-linecap="round"/>
<path d="M37.793 14.8787L39.9792 12.6924" stroke="#07394B" stroke-width="1.5" stroke-miterlimit="10" stroke-linecap="round"/>
<path d="M16.0625 24.2344L44.9375 24.2344" stroke="#07394B" stroke-width="1.5" stroke-miterlimit="10" stroke-linecap="round"/>
<line y1="29.25" x2="288" y2="29.25" stroke="#07394B" stroke-width="1.5"/>
</svg>
