<?xml version="1.0" encoding="utf-8"?>
<!-- Generator: Adobe Illustrator 16.0.0, SVG Export Plug-In . SVG Version: 6.00 Build 0)  -->
<!DOCTYPE svg PUBLIC "-//W3C//DTD SVG 1.1//EN" "http://www.w3.org/Graphics/SVG/1.1/DTD/svg11.dtd">
<svg version="1.1" id="Layer_1" xmlns="http://www.w3.org/2000/svg" xmlns:xlink="http://www.w3.org/1999/xlink" x="0px" y="0px"
	 width="288px" height="59px" viewBox="0 0 288 59" enable-background="new 0 0 288 59" xml:space="preserve">
<path fill="#FD6666" d="M250.281,35.028c0,3.986,3.232,7.218,7.219,7.218s7.219-3.231,7.219-7.218"/>
<path fill="none" stroke="#082C18" stroke-width="1.5" stroke-linecap="round" stroke-miterlimit="10" d="M250.281,35.028
	c0,3.986,3.232,7.218,7.219,7.218s7.219-3.231,7.219-7.218"/>
<path fill="none" stroke="#082C18" stroke-width="1.5" stroke-linecap="round" stroke-miterlimit="10" d="M257.5,47.141v3.094"/>
<path fill="none" stroke="#082C18" stroke-width="1.5" stroke-linecap="round" stroke-miterlimit="10" d="M264.792,44.12
	l2.187,2.188"/>
<path fill="none" stroke="#082C18" stroke-width="1.5" stroke-linecap="round" stroke-miterlimit="10" d="M267.813,38.891h3.094"/>
<path fill="none" stroke="#082C18" stroke-width="1.5" stroke-linecap="round" stroke-miterlimit="10" d="M247.186,38.891h-3.092"/>
<path fill="none" stroke="#082C18" stroke-width="1.5" stroke-linecap="round" stroke-miterlimit="10" d="M250.207,44.121
	l-2.186,2.186"/>
<path fill="none" stroke="#082C18" stroke-width="1.5" stroke-linecap="round" stroke-miterlimit="10" d="M271.938,34.766h-28.875"
	/>
<path fill="#FFE168" d="M37.719,23.972c0-3.986-3.232-7.218-7.219-7.218s-7.219,3.232-7.219,7.218"/>
<path fill="none" stroke="#082C18" stroke-width="1.5" stroke-linecap="round" stroke-miterlimit="10" d="M37.719,23.972
	c0-3.986-3.232-7.218-7.219-7.218s-7.219,3.232-7.219,7.218"/>
<path fill="none" stroke="#082C18" stroke-width="1.5" stroke-linecap="round" stroke-miterlimit="10" d="M30.5,11.859V8.766"/>
<path fill="none" stroke="#082C18" stroke-width="1.5" stroke-linecap="round" stroke-miterlimit="10" d="M23.208,14.88
	l-2.188-2.188"/>
<path fill="none" stroke="#082C18" stroke-width="1.5" stroke-linecap="round" stroke-miterlimit="10" d="M20.187,20.109h-3.093"/>
<path fill="none" stroke="#082C18" stroke-width="1.5" stroke-linecap="round" stroke-miterlimit="10" d="M40.813,20.109h3.093"/>
<path fill="none" stroke="#082C18" stroke-width="1.5" stroke-linecap="round" stroke-miterlimit="10" d="M37.793,14.879
	l2.186-2.187"/>
<path fill="none" stroke="#082C18" stroke-width="1.5" stroke-linecap="round" stroke-miterlimit="10" d="M16.063,24.234h28.875"/>
<line fill="none" stroke="#082C18" stroke-width="1.5" x1="0" y1="29.25" x2="288" y2="29.25"/>
</svg>
