<svg width="50" height="50" viewBox="0 0 50 50" fill="none" xmlns="http://www.w3.org/2000/svg">
<path d="M24.9151 0.00118371C23.2718 0.0468327 21.9822 1.43685 21.9822 3.08097V48.4918C21.9822 49.3257 22.6578 50.0005 23.4909 50.0005H26.509C27.3429 50.0005 28.0177 49.3249 28.0177 48.4918V3.01859C28.0177 1.32273 26.6201 -0.0459869 24.9151 0.00118371Z" fill="#D4D4D5"/>
<path d="M0.00218917 27.4195C-0.0457423 28.1597 0.702141 28.6931 1.3884 28.4131C5.55007 26.7111 10.1872 26.6092 14.406 28.1072C15.8127 28.6071 17.4059 28.636 18.8902 28.1103C18.9093 28.1027 18.9298 28.0958 18.9488 28.089C22.5619 26.8215 24.9996 23.4381 24.9996 19.6089V4.02435C11.721 4.02359 0.854304 14.3555 0.00218917 27.4195Z" fill="#EA5B70"/>
<path d="M25.0004 4.02362V19.6082C25.0004 23.4366 27.438 26.82 31.0511 28.0883C31.0702 28.0959 31.0907 28.1027 31.1105 28.1096C32.4936 28.601 34.0891 28.6406 35.594 28.1065C39.8127 26.6085 44.4506 26.7104 48.6116 28.4124C49.2978 28.6923 50.0465 28.159 49.9978 27.4187C49.1449 14.3555 38.2797 4.02362 25.0004 4.02362Z" fill="#FF8E9E"/>
<path d="M16.6519 28.4923C17.4006 28.4923 18.1591 28.369 18.8902 28.1096C22.8381 26.7081 27.1611 26.7081 31.1105 28.1096C31.815 28.3591 32.5743 28.4915 33.348 28.4915C33.2438 14.9254 29.547 4.02362 24.9996 4.02362C20.4522 4.02362 16.7554 14.9254 16.6519 28.4923Z" fill="#EFEDEE"/>
</svg>
