<svg width="58" height="29" viewBox="0 0 58 29" fill="none" xmlns="http://www.w3.org/2000/svg">
<path d="M13.24 28.6C9.16 28.6 6.08 27.5333 4 25.4C1.92 23.24 0.88 20.3467 0.88 16.72V0.0399976H6.96V16.8C6.96 18.8267 7.52 20.3733 8.64 21.44C9.76 22.5067 11.2933 23.04 13.24 23.04C15.16 23.04 16.6667 22.5067 17.76 21.44C18.88 20.3733 19.44 18.8267 19.44 16.8V0.0399976H25.52V16.72C25.52 20.3467 24.4933 23.24 22.44 25.4C20.3867 27.5333 17.32 28.6 13.24 28.6ZM28.7175 0.0399976H35.1975L42.8775 19.92L50.5975 0.0399976H57.0375L45.8775 28H39.9175L28.7175 0.0399976Z" fill="#FFC127"/>
</svg>
