<svg width="50" height="41" viewBox="0 0 50 41" fill="none" xmlns="http://www.w3.org/2000/svg">
<path d="M17.3591 1.69878C17.2867 1.62567 17.2144 1.55411 17.1428 1.48253L17.1328 1.47253C16.1962 0.552047 14.6815 0.555895 13.7495 1.48253C7.98571 7.21476 0 17.3424 0 25.435V25.4358H0.0100056C0.0100056 34.1558 6.95671 40.7831 15.4473 40.7831C17.8209 40.7831 20.069 40.2505 22.0777 39.2992L17.3591 1.69878Z" fill="#7CE3FF"/>
<path d="M30.8831 25.4358H30.8931C30.8931 17.2746 23.1898 7.54724 17.3591 1.69879C13.6441 7.03543 9.65735 14.2615 9.65735 20.7934H9.66967C9.66967 29.3533 14.8108 36.3646 22.0769 39.3C27.2858 36.8326 30.8831 31.5521 30.8831 25.4358Z" fill="#B9F0FF"/>
<path d="M42.5507 0.502769C42.5107 0.462749 42.4707 0.422734 42.4322 0.384252L42.4268 0.37885C41.9112 -0.128338 41.0769 -0.126015 40.5643 0.384252C37.3911 3.53975 32.9957 9.11421 32.9957 13.5681V13.5688H33.0011C33.0011 18.3683 36.8254 22.0163 41.4979 22.0163C42.8039 22.0163 44.0423 21.7231 45.1475 21.199C48.0144 19.8413 49.9946 16.9345 49.9946 13.5681H50C50.0008 9.0765 45.7609 3.72292 42.5507 0.502769Z" fill="#B9F0FF"/>
</svg>
