<?xml version="1.0" encoding="utf-8"?>
<!-- Generator: Adobe Illustrator 16.0.0, SVG Export Plug-In . SVG Version: 6.00 Build 0)  -->
<!DOCTYPE svg PUBLIC "-//W3C//DTD SVG 1.1//EN" "http://www.w3.org/Graphics/SVG/1.1/DTD/svg11.dtd">
<svg version="1.1" id="Layer_1" xmlns="http://www.w3.org/2000/svg" xmlns:xlink="http://www.w3.org/1999/xlink" x="0px" y="0px"
	 width="440px" height="80px" viewBox="0 0 440 80" enable-background="new 0 0 440 80" xml:space="preserve">
<g>
	<rect x="0" y="40" fill="none" width="37" height="37"/>
	<g>
		<path fill="#07394B" d="M18.47,72.822h-0.007c-2.735,0-5.194-1.659-6.275-4.133c-2.671,0.279-5.324-1.063-6.657-3.375
			c-1.367-2.371-1.159-5.33,0.442-7.502c-1.567-2.17-1.759-5.111-0.408-7.453c1.218-2.105,3.494-3.414,5.939-3.414
			c0.261,0,0.522,0.015,0.781,0.043c1.093-2.439,3.543-4.075,6.249-4.075c2.735,0,5.195,1.657,6.276,4.13
			c2.675-0.282,5.325,1.063,6.656,3.378c1.366,2.368,1.162,5.33-0.44,7.501c1.571,2.169,1.763,5.111,0.404,7.455
			c-1.216,2.104-3.49,3.413-5.937,3.413l0,0c-0.262,0-0.521-0.017-0.78-0.045C23.624,71.186,21.175,72.822,18.47,72.822z
			 M12.875,66.471c0.458,0,0.876,0.303,1.004,0.762c0.578,2.063,2.464,3.504,4.586,3.504h0.005c2.099,0,3.977-1.424,4.567-3.463
			c0.157-0.543,0.715-0.861,1.261-0.722c0.391,0.101,0.792,0.151,1.197,0.151c1.704,0,3.285-0.909,4.129-2.371
			c1.055-1.82,0.762-4.16-0.71-5.691c-0.39-0.406-0.388-1.05,0.007-1.451c1.496-1.532,1.8-3.889,0.74-5.727
			c-0.854-1.486-2.396-2.371-4.125-2.371c-0.39,0-0.781,0.047-1.161,0.141c-0.545,0.14-1.103-0.188-1.254-0.729
			C22.543,46.439,20.658,45,18.536,45c-2.103,0-3.98,1.424-4.571,3.462c-0.157,0.542-0.716,0.861-1.261,0.722
			c-0.393-0.101-0.794-0.15-1.198-0.15c-1.729,0-3.273,0.886-4.133,2.371c-1.066,1.847-0.779,4.135,0.715,5.693
			c0.391,0.405,0.386,1.049-0.007,1.451c-1.498,1.531-1.803,3.885-0.743,5.723c0.855,1.483,2.399,2.369,4.13,2.369
			c0.39,0,0.779-0.047,1.156-0.141C12.709,66.479,12.792,66.471,12.875,66.471z"/>
		<g>
			<path fill="#07394B" d="M18.5,62.706c-2.191,0.009-4.193-1.237-5.15-3.206c-0.112-0.225-0.021-0.496,0.203-0.607
				c0.225-0.11,0.496-0.02,0.607,0.205l0.001,0.002c1.176,2.396,4.074,3.383,6.47,2.205c0.958-0.471,1.732-1.246,2.204-2.205
				c0.11-0.227,0.38-0.317,0.605-0.209c0.227,0.109,0.319,0.381,0.209,0.606c0,0,0,0.001-0.001,0.003
				C22.693,61.469,20.69,62.715,18.5,62.706z"/>
			<path fill="#07394B" d="M18.523,63.055H18.5c-2.323,0-4.458-1.336-5.463-3.404c-0.194-0.393-0.033-0.873,0.361-1.069
				c0.379-0.188,0.866-0.026,1.063,0.342l0.049,0.095c0.771,1.506,2.293,2.438,3.993,2.438c0.688,0,1.354-0.156,1.976-0.463
				c0.883-0.435,1.61-1.16,2.046-2.048c0.188-0.385,0.681-0.557,1.07-0.366c0.193,0.094,0.336,0.258,0.407,0.458
				c0.06,0.175,0.059,0.359-0.002,0.527v0.076l-0.063,0.063C22.922,61.742,20.804,63.055,18.523,63.055z M13.755,59.191
				c-0.097,0.037-0.12,0.102-0.093,0.152c0.889,1.833,2.778,3.014,4.814,3.014h0.046c2.036,0,3.925-1.181,4.815-3.012l0.003-0.005
				c0.022-0.053,0.002-0.112-0.051-0.139c-0.077-0.011-0.12,0.005-0.142,0.05c-0.504,1.023-1.343,1.863-2.362,2.364
				c-0.72,0.353-1.487,0.532-2.283,0.532c-1.985,0-3.762-1.102-4.643-2.877l-0.036-0.055C13.802,59.199,13.776,59.191,13.755,59.191
				z"/>
		</g>
		<ellipse fill="#07394B" cx="14.213" cy="55.721" rx="1.132" ry="1.301"/>
		<ellipse fill="#07394B" cx="22.788" cy="55.721" rx="1.131" ry="1.301"/>
	</g>
</g>
<g>
	<rect x="40.119" y="40" fill="none" width="37" height="37"/>
	<g>
		<path fill="#07394B" d="M58.59,73.454c-0.001,0-0.007,0-0.007,0c-2.733,0-5.195-1.659-6.274-4.132
			c-2.672,0.279-5.323-1.063-6.658-3.377c-1.367-2.369-1.161-5.329,0.441-7.502c-1.566-2.168-1.759-5.109-0.406-7.451
			c1.217-2.105,3.494-3.414,5.939-3.414c0.262,0,0.521,0.014,0.78,0.043c1.093-2.439,3.544-4.076,6.25-4.076
			c2.734,0,5.195,1.658,6.274,4.131c2.676-0.281,5.325,1.063,6.657,3.377c1.367,2.369,1.161,5.33-0.439,7.502
			c1.57,2.168,1.761,5.109,0.403,7.453c-1.217,2.106-3.49,3.414-5.938,3.414l0,0c-0.261,0-0.521-0.016-0.778-0.045
			C63.742,71.818,61.294,73.454,58.59,73.454z M52.994,67.104c0.457,0,0.876,0.301,1.004,0.762c0.578,2.063,2.465,3.504,4.586,3.504
			h0.006c2.1,0,3.977-1.424,4.567-3.463c0.156-0.543,0.715-0.862,1.26-0.721c0.393,0.1,0.794,0.149,1.196,0.149
			c1.704,0,3.286-0.91,4.132-2.37c1.054-1.82,0.762-4.16-0.711-5.691c-0.392-0.407-0.388-1.051,0.006-1.453
			c1.496-1.53,1.801-3.887,0.738-5.725c-0.853-1.486-2.395-2.371-4.124-2.371c-0.39,0-0.779,0.047-1.159,0.142
			c-0.546,0.139-1.104-0.188-1.257-0.731c-0.575-2.062-2.462-3.501-4.583-3.501c-2.103,0-3.981,1.425-4.571,3.462
			c-0.156,0.541-0.717,0.86-1.262,0.721c-0.391-0.101-0.794-0.15-1.197-0.15c-1.729,0-3.274,0.887-4.131,2.371
			c-1.067,1.848-0.78,4.136,0.713,5.693c0.389,0.405,0.386,1.049-0.008,1.451c-1.497,1.531-1.803,3.885-0.742,5.723
			c0.855,1.484,2.399,2.369,4.13,2.369c0.39,0,0.776-0.047,1.157-0.141C52.828,67.111,52.912,67.104,52.994,67.104z"/>
		<g>
			<path fill="#07394B" d="M61.554,62.768c-0.048,0-0.095-0.01-0.14-0.022c-1.816-0.573-3.767-0.573-5.584,0
				c-0.245,0.082-0.511-0.05-0.59-0.293c-0.085-0.244,0.049-0.511,0.293-0.591c0.004-0.004,0.01-0.004,0.015-0.006
				c2.001-0.631,4.146-0.631,6.147,0c0.246,0.076,0.384,0.338,0.307,0.584c-0.062,0.194-0.241,0.328-0.445,0.328H61.554z"/>
			<path fill="#07394B" d="M55.682,63.117c-0.35,0-0.66-0.225-0.771-0.557c-0.07-0.205-0.057-0.426,0.041-0.621
				c0.098-0.194,0.265-0.34,0.471-0.408c2.102-0.664,4.32-0.656,6.379-0.008c0.427,0.134,0.666,0.591,0.534,1.02
				c-0.134,0.42-0.563,0.674-1.021,0.535c-1.748-0.553-3.636-0.553-5.378-0.002C55.855,63.104,55.77,63.117,55.682,63.117z
				 M58.621,61.73c-1.009,0-2.009,0.153-2.97,0.455c-0.049,0.018-0.068,0.047-0.076,0.063c-0.01,0.017-0.021,0.05-0.008,0.09
				c0.025,0.074,0.097,0.093,0.152,0.074c1.888-0.597,3.922-0.595,5.797-0.002c0.104,0.01,0.137-0.027,0.153-0.076
				c0.02-0.063-0.016-0.129-0.079-0.149C60.631,61.885,59.631,61.73,58.621,61.73z"/>
		</g>
		<g>
			<ellipse fill="#07394B" cx="54.333" cy="57.304" rx="1.132" ry="1.3"/>
			<ellipse fill="#07394B" cx="62.907" cy="57.304" rx="1.132" ry="1.3"/>
		</g>
	</g>
</g>
<g>
	<rect x="80" y="40" fill="none" width="37" height="37"/>
	<g>
		<path fill="#07394B" d="M98.471,73.454h-0.007c-2.734,0-5.194-1.659-6.273-4.132c-2.672,0.279-5.324-1.064-6.66-3.377
			c-1.365-2.369-1.157-5.329,0.445-7.502c-1.566-2.168-1.76-5.109-0.409-7.452c1.219-2.104,3.494-3.413,5.939-3.413
			c0.262,0,0.521,0.015,0.781,0.044c1.094-2.44,3.544-4.076,6.249-4.076c2.733,0,5.195,1.657,6.274,4.13
			c2.677-0.281,5.328,1.063,6.658,3.379c1.366,2.366,1.16,5.329-0.44,7.5c1.571,2.17,1.763,5.11,0.404,7.454
			c-1.215,2.104-3.491,3.412-5.938,3.412l0,0c-0.261,0-0.521-0.014-0.779-0.043C103.624,71.818,101.176,73.454,98.471,73.454z
			 M92.877,67.102c0.456,0,0.874,0.303,1.003,0.763c0.578,2.063,2.464,3.505,4.586,3.505h0.005c2.101,0,3.977-1.424,4.568-3.462
			c0.155-0.544,0.714-0.863,1.26-0.722c0.392,0.101,0.793,0.148,1.197,0.148c1.703,0,3.286-0.907,4.131-2.371
			c1.055-1.818,0.761-4.158-0.712-5.689c-0.389-0.406-0.387-1.049,0.007-1.453c1.497-1.53,1.8-3.887,0.738-5.725
			c-0.852-1.486-2.395-2.371-4.123-2.371c-0.392,0-0.781,0.047-1.161,0.142c-0.544,0.139-1.103-0.188-1.253-0.731
			c-0.578-2.061-2.464-3.502-4.587-3.502c-2.102,0-3.981,1.424-4.571,3.463c-0.157,0.541-0.716,0.861-1.26,0.721
			c-0.394-0.101-0.795-0.15-1.199-0.15c-1.729,0-3.274,0.887-4.133,2.371c-1.065,1.847-0.779,4.136,0.716,5.693
			c0.389,0.406,0.387,1.049-0.007,1.451c-1.499,1.532-1.805,3.885-0.742,5.723c0.854,1.484,2.399,2.369,4.13,2.369
			c0.389,0,0.779-0.045,1.156-0.139C92.71,67.111,92.793,67.102,92.877,67.102z"/>
		<g>
			<path fill="#07394B" d="M103.107,64.034c-0.17,0.001-0.322-0.097-0.396-0.246c-1.146-2.325-3.954-3.284-6.28-2.14
				c-0.931,0.455-1.685,1.209-2.141,2.14c-0.106,0.218-0.371,0.306-0.59,0.198c-0.218-0.107-0.306-0.369-0.199-0.586
				c1.356-2.762,4.694-3.9,7.457-2.543c1.104,0.545,1.997,1.438,2.541,2.543c0.105,0.218,0.018,0.48-0.201,0.589
				c-0.062,0.028-0.129,0.045-0.194,0.045H103.107z"/>
			<path fill="#07394B" d="M103.104,64.382c-0.303,0-0.573-0.168-0.707-0.44c-0.734-1.498-2.229-2.428-3.898-2.428
				c-0.666,0-1.312,0.15-1.913,0.446c-0.858,0.422-1.562,1.124-1.982,1.981c-0.186,0.379-0.673,0.548-1.055,0.354
				c-0.387-0.188-0.547-0.659-0.359-1.048c1.003-2.044,3.04-3.311,5.316-3.311c0.907,0,1.786,0.203,2.607,0.607
				c1.165,0.574,2.125,1.532,2.698,2.7c0.192,0.39,0.031,0.862-0.358,1.055c-0.11,0.052-0.229,0.079-0.344,0.08h-0.005V64.382z
				 M98.498,60.816c1.938,0,3.672,1.08,4.524,2.816c0.017,0.032,0.045,0.053,0.081,0.053l0,0c0.086-0.031,0.106-0.086,0.084-0.133
				c-0.509-1.029-1.353-1.876-2.383-2.382c-0.725-0.356-1.499-0.538-2.301-0.538c-2.008,0-3.807,1.118-4.69,2.92
				c-0.022,0.043-0.005,0.1,0.04,0.12c0.07,0.013,0.106-0.002,0.124-0.04c0.488-0.992,1.305-1.81,2.299-2.299
				C96.978,60.992,97.723,60.816,98.498,60.816z"/>
		</g>
		<g>
			<path fill="#07394B" d="M93.646,59.541c-0.546,0-1.09-0.137-1.576-0.391c-0.802-0.422-1.393-1.133-1.661-1.996
				c-0.268-0.866-0.184-1.784,0.238-2.588c0.086-0.164,0.233-0.285,0.409-0.34c0.179-0.055,0.366-0.039,0.53,0.047l4.773,2.513
				c0.34,0.18,0.471,0.601,0.291,0.938C96.063,58.846,94.911,59.541,93.646,59.541z M91.664,55.891
				c-0.104,0.805,0.294,1.629,1.055,2.029c0.74,0.391,1.674,0.252,2.27-0.281L91.664,55.891z"/>
			<path fill="#07394B" d="M103.355,59.541L103.355,59.541c-1.267,0-2.419-0.695-3.006-1.814c-0.179-0.34-0.048-0.761,0.291-0.939
				l4.774-2.512c0.162-0.086,0.353-0.104,0.529-0.047c0.178,0.054,0.323,0.176,0.409,0.34c0.422,0.803,0.506,1.721,0.237,2.586
				c-0.271,0.865-0.858,1.574-1.66,1.996C104.446,59.404,103.899,59.541,103.355,59.541z M102.014,57.639
				c0.361,0.324,0.836,0.512,1.342,0.512l0,0c0.325,0,0.638-0.077,0.929-0.229c0.762-0.401,1.155-1.226,1.053-2.03L102.014,57.639z"
				/>
		</g>
	</g>
</g>
<g>
	<rect x="120" y="40" fill="none" width="37" height="37"/>
	<g>
		<path fill="#07394B" d="M138.471,73.454h-0.007c-2.734,0-5.196-1.659-6.275-4.132c-2.672,0.279-5.322-1.064-6.658-3.377
			c-1.367-2.369-1.159-5.329,0.443-7.502c-1.566-2.168-1.76-5.109-0.407-7.452c1.219-2.104,3.494-3.413,5.939-3.413
			c0.26,0,0.521,0.015,0.781,0.044c1.091-2.44,3.541-4.076,6.249-4.076c2.733,0,5.195,1.657,6.274,4.13
			c2.674-0.281,5.325,1.063,6.658,3.379c1.366,2.366,1.16,5.329-0.44,7.5c1.569,2.17,1.76,5.11,0.401,7.454
			c-1.215,2.104-3.488,3.412-5.935,3.412l0,0c-0.263,0-0.521-0.014-0.781-0.043C143.624,71.818,141.174,73.454,138.471,73.454z
			 M132.875,67.102c0.458,0,0.876,0.303,1.005,0.763c0.578,2.063,2.464,3.505,4.584,3.505h0.007c2.098,0,3.978-1.424,4.566-3.462
			c0.157-0.544,0.716-0.863,1.262-0.722c0.392,0.101,0.793,0.148,1.197,0.148c1.703,0,3.282-0.907,4.128-2.371
			c1.055-1.818,0.764-4.158-0.709-5.689c-0.392-0.406-0.389-1.049,0.005-1.453c1.497-1.53,1.802-3.887,0.74-5.725
			c-0.854-1.486-2.396-2.371-4.123-2.371c-0.392,0-0.781,0.047-1.161,0.142c-0.546,0.139-1.104-0.188-1.256-0.731
			c-0.578-2.061-2.464-3.502-4.584-3.502c-2.104,0-3.981,1.424-4.573,3.463c-0.155,0.541-0.716,0.861-1.26,0.721
			c-0.392-0.101-0.793-0.15-1.197-0.15c-1.729,0-3.274,0.887-4.133,2.371c-1.065,1.847-0.779,4.136,0.714,5.693
			c0.391,0.406,0.386,1.049-0.007,1.451c-1.497,1.532-1.803,3.885-0.743,5.723c0.855,1.484,2.4,2.369,4.131,2.369
			c0.389,0,0.779-0.045,1.156-0.139C132.71,67.111,132.793,67.102,132.875,67.102z"/>
		<g>
			<path fill="#07394B" d="M143.383,64.034c-0.168,0.001-0.321-0.097-0.396-0.246c-1.143-2.325-3.953-3.284-6.279-2.14
				c-0.93,0.455-1.684,1.209-2.14,2.14c-0.107,0.218-0.373,0.306-0.59,0.198c-0.217-0.108-0.307-0.369-0.2-0.586
				c1.356-2.762,4.694-3.9,7.456-2.543c1.104,0.545,1.999,1.438,2.541,2.543c0.108,0.218,0.019,0.48-0.198,0.589
				c-0.063,0.028-0.129,0.045-0.196,0.045H143.383z"/>
			<path fill="#07394B" d="M143.383,64.382c-0.303,0-0.574-0.168-0.707-0.44c-0.736-1.498-2.231-2.428-3.902-2.428
				c-0.666,0-1.31,0.15-1.913,0.446c-0.854,0.422-1.561,1.124-1.979,1.981c-0.188,0.379-0.673,0.548-1.057,0.354
				c-0.385-0.188-0.548-0.659-0.359-1.048c1.005-2.044,3.042-3.311,5.315-3.311c0.91,0,1.786,0.203,2.608,0.607
				c1.167,0.574,2.125,1.532,2.7,2.7c0.189,0.39,0.03,0.862-0.358,1.055c-0.11,0.052-0.229,0.079-0.346,0.08h-0.002V64.382z
				 M138.773,60.816c1.938,0,3.672,1.08,4.525,2.816c0.016,0.032,0.048,0.053,0.081,0.053l0,0c0.089-0.031,0.105-0.086,0.084-0.133
				c-0.506-1.029-1.354-1.876-2.383-2.382c-0.726-0.356-1.499-0.538-2.302-0.538c-2.008,0-3.806,1.118-4.689,2.92
				c-0.021,0.043-0.003,0.1,0.043,0.12c0.067,0.013,0.104-0.002,0.124-0.04c0.485-0.992,1.303-1.81,2.297-2.299
				C137.254,60.992,138.001,60.816,138.773,60.816z"/>
		</g>
		<g>
			<path fill="#07394B" d="M133.71,58.932c-1.147,0.002-2.195-0.649-2.696-1.682c-0.108-0.218-0.021-0.48,0.199-0.59
				c0.217-0.105,0.479-0.02,0.589,0.199v0.002c0.52,1.054,1.793,1.488,2.848,0.971c0.42-0.208,0.762-0.549,0.97-0.971
				c0.105-0.217,0.369-0.307,0.587-0.197c0.217,0.105,0.308,0.368,0.201,0.586C135.905,58.282,134.857,58.936,133.71,58.932z"/>
			<path fill="#07394B" d="M133.722,59.277h-0.014c-1.276,0-2.452-0.735-3.008-1.875c-0.19-0.387-0.032-0.859,0.355-1.053
				c0.386-0.19,0.869-0.022,1.057,0.354l0.022,0.049c0.438,0.827,1.509,1.185,2.36,0.767c0.35-0.174,0.637-0.461,0.809-0.812
				c0.189-0.379,0.678-0.544,1.057-0.356c0.388,0.19,0.548,0.662,0.356,1.051C136.167,58.541,134.99,59.277,133.722,59.277z
				 M131.406,56.962c-0.085,0.033-0.104,0.088-0.08,0.136c0.439,0.902,1.37,1.484,2.374,1.484h0.021
				c1.003,0,1.937-0.582,2.371-1.484c0.021-0.045,0.005-0.1-0.041-0.121c-0.069-0.012-0.104,0.004-0.122,0.041
				c-0.239,0.484-0.639,0.885-1.127,1.127c-0.343,0.168-0.711,0.254-1.09,0.254c-0.951,0-1.803-0.528-2.224-1.381l-0.005-0.013
				C131.466,56.975,131.432,56.962,131.406,56.962z"/>
		</g>
		<g>
			<path fill="#07394B" d="M143.383,58.932c-1.147,0.004-2.195-0.648-2.697-1.682c-0.106-0.218-0.02-0.48,0.199-0.59
				c0.217-0.105,0.481-0.02,0.59,0.199c0,0,0,0.002,0.002,0.002c0.518,1.054,1.791,1.488,2.843,0.971
				c0.424-0.208,0.765-0.549,0.973-0.971c0.104-0.219,0.368-0.309,0.587-0.202c0.217,0.106,0.31,0.368,0.203,0.588
				c0,0.002-0.002,0.002-0.002,0.003C145.577,58.281,144.529,58.934,143.383,58.932z"/>
			<path fill="#07394B" d="M143.371,59.277c-1.268,0-2.443-0.735-2.999-1.875c-0.189-0.387-0.031-0.859,0.355-1.053
				c0.344-0.172,0.777-0.057,0.992,0.246l0.016,0.008l0.053,0.104c0.301,0.612,0.912,0.994,1.597,0.994
				c0.271,0,0.535-0.062,0.781-0.185c0.35-0.172,0.639-0.459,0.813-0.811c0.182-0.375,0.67-0.549,1.05-0.361
				c0.363,0.178,0.53,0.6,0.397,0.973l-0.029,0.074c-0.003,0.002-0.003,0.004-0.005,0.006l-0.018,0.039
				c-0.563,1.117-1.729,1.84-2.981,1.84l-0.021-0.348l0.012-0.35c0.986,0,1.896-0.553,2.349-1.414v-0.043l0.045-0.055
				c0.008-0.039-0.014-0.08-0.052-0.101c-0.064-0.008-0.104,0.005-0.122,0.043c-0.242,0.489-0.642,0.892-1.129,1.13
				c-0.344,0.17-0.71,0.256-1.089,0.256c-0.912,0-1.729-0.485-2.166-1.276l-0.009-0.004l-0.052-0.113
				c-0.017-0.028-0.053-0.043-0.079-0.043c-0.086,0.032-0.104,0.088-0.081,0.136c0.438,0.902,1.37,1.484,2.373,1.484V59.277
				L143.371,59.277z"/>
		</g>
	</g>
</g>
<g>
	<rect x="0" fill="none" width="37" height="37"/>
	<g>
		
			<circle fill="none" stroke="#07394B" stroke-width="2" stroke-linecap="round" stroke-miterlimit="10" cx="18.5" cy="18.5" r="8.094"/>
		
			<line fill="none" stroke="#07394B" stroke-width="2" stroke-linecap="round" stroke-miterlimit="10" x1="18.5" y1="5.781" x2="18.5" y2="2.313"/>
		
			<line fill="none" stroke="#07394B" stroke-width="2" stroke-linecap="round" stroke-miterlimit="10" x1="9.506" y1="9.508" x2="7.054" y2="7.055"/>
		
			<line fill="none" stroke="#07394B" stroke-width="2" stroke-linecap="round" stroke-miterlimit="10" x1="5.781" y1="18.5" x2="2.313" y2="18.5"/>
		
			<line fill="none" stroke="#07394B" stroke-width="2" stroke-linecap="round" stroke-miterlimit="10" x1="9.506" y1="27.492" x2="7.054" y2="29.945"/>
		
			<line fill="none" stroke="#07394B" stroke-width="2" stroke-linecap="round" stroke-miterlimit="10" x1="18.5" y1="31.219" x2="18.5" y2="34.688"/>
		
			<line fill="none" stroke="#07394B" stroke-width="2" stroke-linecap="round" stroke-miterlimit="10" x1="27.492" y1="27.492" x2="29.945" y2="29.945"/>
		
			<line fill="none" stroke="#07394B" stroke-width="2" stroke-linecap="round" stroke-miterlimit="10" x1="31.219" y1="18.5" x2="34.688" y2="18.5"/>
		
			<line fill="none" stroke="#07394B" stroke-width="2" stroke-linecap="round" stroke-miterlimit="10" x1="27.492" y1="9.508" x2="29.945" y2="7.055"/>
	</g>
</g>
<g>
	<rect x="40" fill="none" width="37" height="37"/>
	<path fill="none" stroke="#07394B" stroke-width="2" stroke-linecap="round" stroke-linejoin="round" stroke-miterlimit="10" d="
		M68.906,17.344c0-5.108-4.142-9.25-9.25-9.25c-4.361,0-8.008,3.022-8.984,7.084c-0.458-0.096-0.936-0.146-1.421-0.146
		c-3.831,0-6.938,3.107-6.938,6.938c0,3.831,3.106,6.938,6.938,6.938h19.655c3.192,0,5.781-2.589,5.781-5.781
		S72.099,17.344,68.906,17.344z"/>
</g>
<g>
	<rect x="200" fill="none" width="37" height="37"/>
	<g>
		
			<line fill="none" stroke="#07394B" stroke-width="2" stroke-linecap="round" stroke-miterlimit="10" x1="213.648" y1="8.961" x2="213.648" y2="6.648"/>
		
			<line fill="none" stroke="#07394B" stroke-width="2" stroke-linecap="round" stroke-miterlimit="10" x1="207.504" y1="11.471" x2="205.869" y2="9.836"/>
		
			<line fill="none" stroke="#07394B" stroke-width="2" stroke-linecap="round" stroke-miterlimit="10" x1="204.935" y1="17.591" x2="202.622" y2="17.591"/>
		
			<line fill="none" stroke="#07394B" stroke-width="2" stroke-linecap="round" stroke-miterlimit="10" x1="207.444" y1="23.734" x2="205.81" y2="25.37"/>
		
			<line fill="none" stroke="#07394B" stroke-width="2" stroke-linecap="round" stroke-miterlimit="10" x1="219.767" y1="11.531" x2="221.403" y2="9.896"/>
		<path fill="none" stroke="#07394B" stroke-width="2" stroke-linecap="round" stroke-linejoin="round" stroke-miterlimit="10" d="
			M214.143,19.945c0.442,0,0.865,0.072,1.276,0.176c0.337-1.898,1.428-3.521,2.938-4.599c-0.811-1.819-2.627-3.094-4.749-3.094
			c-2.873,0-5.203,2.329-5.203,5.203c0,1.622,0.759,3.052,1.922,4.006C211.274,20.604,212.627,19.945,214.143,19.945z"/>
		<path fill="none" stroke="#07394B" stroke-width="2" stroke-linecap="round" stroke-linejoin="round" stroke-miterlimit="10" d="
			M229.752,21.102c-0.005,0-0.009,0.001-0.015,0.001c-0.151-3.855-3.317-6.938-7.213-6.938c-1.562,0-2.989,0.518-4.17,1.359
			c-1.509,1.077-2.601,2.699-2.938,4.598c-0.409-0.104-0.833-0.175-1.275-0.175c-1.516,0-2.867,0.658-3.819,1.694
			c-0.851,0.927-1.384,2.151-1.384,3.509c0,2.874,2.33,5.203,5.203,5.203h15.609c2.554,0,4.625-2.07,4.625-4.625
			C234.376,23.174,232.306,21.102,229.752,21.102z"/>
	</g>
</g>
<g>
	<rect x="80" fill="none" width="37" height="37"/>
	<path fill="none" stroke="#07394B" stroke-width="2" stroke-linecap="round" stroke-linejoin="round" stroke-miterlimit="10" d="
		M96.715,12.677c0-1.629,0.385-3.167,1.055-4.541c-5.151,0.622-9.147,5.001-9.147,10.322c0,5.749,4.657,10.406,10.405,10.406
		c4.115,0,7.663-2.396,9.353-5.863c-0.413,0.05-0.831,0.082-1.258,0.082C101.373,23.083,96.715,18.426,96.715,12.677z"/>
</g>
<g>
	<rect x="160" fill="none" width="37" height="37"/>
	<g>
		<path fill="none" stroke="#07394B" stroke-width="2" stroke-linecap="round" stroke-linejoin="round" stroke-miterlimit="10" d="
			M171.803,18.416c0.443,0,0.865,0.074,1.275,0.177c0.4-2.258,1.857-4.133,3.833-5.146c-0.451-2.766-2.679-4.932-5.48-5.27
			c0.407,0.836,0.644,1.774,0.644,2.768c0,3.503-2.841,6.343-6.344,6.343c-0.261,0-0.516-0.021-0.768-0.05
			c0.625,1.286,1.673,2.323,2.962,2.944C168.877,19.107,170.254,18.416,171.803,18.416z"/>
		<path fill="none" stroke="#07394B" stroke-width="2" stroke-linecap="round" stroke-linejoin="round" stroke-miterlimit="10" d="
			M187.412,19.572c-0.004,0-0.01,0.003-0.016,0.003c-0.151-3.858-3.316-6.94-7.212-6.94c-1.185,0-2.29,0.308-3.274,0.813
			c-1.976,1.013-3.433,2.888-3.833,5.146c-0.41-0.104-0.833-0.177-1.275-0.177c-1.549,0-2.926,0.691-3.879,1.767
			c-0.814,0.918-1.324,2.113-1.324,3.437c0,2.874,2.329,5.203,5.203,5.203h15.609c2.555,0,4.625-2.07,4.625-4.625
			C192.036,21.644,189.967,19.572,187.412,19.572z"/>
	</g>
</g>
<g>
	<rect x="120" fill="none" width="37" height="37"/>
	<g>
		<path fill="none" stroke="#07394B" stroke-width="2" stroke-linecap="round" stroke-linejoin="round" stroke-miterlimit="10" d="
			M148.906,13.838c0-5.108-4.142-9.25-9.25-9.25c-4.361,0-8.008,3.022-8.984,7.085c-0.459-0.097-0.936-0.147-1.421-0.147
			c-3.831,0-6.938,3.106-6.938,6.938s3.106,6.938,6.938,6.938h19.655c3.192,0,5.781-2.587,5.781-5.781
			C154.688,16.427,152.099,13.838,148.906,13.838z"/>
		<g>
			
				<line fill="none" stroke="#07394B" stroke-width="2" stroke-linecap="round" stroke-linejoin="round" stroke-miterlimit="10" x1="129.25" y1="32.412" x2="132.222" y2="28.869"/>
			
				<line fill="none" stroke="#07394B" stroke-width="2" stroke-linecap="round" stroke-linejoin="round" stroke-miterlimit="10" x1="136.188" y1="32.412" x2="139.159" y2="28.869"/>
			
				<line fill="none" stroke="#07394B" stroke-width="2" stroke-linecap="round" stroke-linejoin="round" stroke-miterlimit="10" x1="143.125" y1="32.412" x2="146.097" y2="28.869"/>
		</g>
	</g>
</g>
<g>
	<rect x="240" fill="none" width="37" height="37"/>
	<g>
		<path fill="none" stroke="#07394B" stroke-width="2" stroke-linecap="round" stroke-linejoin="round" stroke-miterlimit="10" d="
			M268.906,13.875c0-5.108-4.142-9.25-9.25-9.25c-4.361,0-8.008,3.022-8.984,7.084c-0.458-0.096-0.936-0.146-1.421-0.146
			c-3.831,0-6.938,3.107-6.938,6.938s3.106,6.938,6.938,6.938h19.655c3.192,0,5.781-2.589,5.781-5.781
			C274.687,16.466,272.099,13.875,268.906,13.875z"/>
		
			<line fill="none" stroke="#07394B" stroke-width="2" stroke-linecap="round" stroke-linejoin="round" stroke-miterlimit="10" x1="251.563" y1="32.375" x2="251.563" y2="28.906"/>
		
			<line fill="none" stroke="#07394B" stroke-width="2" stroke-linecap="round" stroke-linejoin="round" stroke-miterlimit="10" x1="258.5" y1="32.375" x2="258.5" y2="28.906"/>
		
			<line fill="none" stroke="#07394B" stroke-width="2" stroke-linecap="round" stroke-linejoin="round" stroke-miterlimit="10" x1="265.438" y1="32.375" x2="265.438" y2="28.906"/>
	</g>
</g>
<g>
	<rect x="320" fill="none" width="37" height="37"/>
	<g>
		<path fill="none" stroke="#07394B" stroke-width="2" stroke-linecap="round" stroke-linejoin="round" stroke-miterlimit="10" d="
			M343.148,23.703h5.758c3.192,0,5.781-2.589,5.781-5.781c0-3.192-2.589-5.781-5.781-5.781c0-5.108-4.142-9.25-9.25-9.25
			c-4.361,0-8.009,3.022-8.984,7.084c-0.46-0.096-0.936-0.146-1.421-0.146c-3.831,0-6.938,3.107-6.938,6.938
			s3.106,6.938,6.938,6.938h4.648"/>
		
			<line fill="none" stroke="#07394B" stroke-width="2" stroke-linecap="round" stroke-linejoin="round" stroke-miterlimit="10" x1="329.25" y1="30.959" x2="331.226" y2="26.777"/>
		
			<line fill="none" stroke="#07394B" stroke-width="2" stroke-linecap="round" stroke-linejoin="round" stroke-miterlimit="10" x1="345.438" y1="30.959" x2="347.412" y2="26.777"/>
		
			<polygon fill="none" stroke="#07394B" stroke-width="2" stroke-linecap="round" stroke-linejoin="round" stroke-miterlimit="10" points="
			341.969,26.194 338.534,26.194 338.5,26.194 338.5,21.246 335.031,29.161 338.464,29.161 338.5,29.161 338.5,34.109 		"/>
	</g>
</g>
<g>
	<rect x="280" fill="none" width="37" height="37"/>
	<g>
		<path fill="none" stroke="#07394B" stroke-width="2" stroke-linecap="round" stroke-linejoin="round" stroke-miterlimit="10" d="
			M303.148,23.703h5.758c3.192,0,5.781-2.589,5.781-5.781c0-3.192-2.589-5.781-5.781-5.781c0-5.108-4.142-9.25-9.25-9.25
			c-4.361,0-8.009,3.022-8.984,7.084c-0.46-0.096-0.936-0.146-1.421-0.146c-3.831,0-6.938,3.107-6.938,6.938
			s3.106,6.938,6.938,6.938h4.648"/>
		
			<polygon fill="none" stroke="#07394B" stroke-width="2" stroke-linecap="round" stroke-linejoin="round" stroke-miterlimit="10" points="
			301.969,26.194 298.534,26.194 298.5,26.194 298.5,21.246 295.031,29.161 298.464,29.161 298.5,29.161 298.5,34.109 		"/>
	</g>
</g>
<g>
	<rect x="360" fill="none" width="37" height="37"/>
	<g>
		<path fill="none" stroke="#07394B" stroke-width="2" stroke-linecap="round" stroke-linejoin="round" stroke-miterlimit="10" d="
			M388.906,13.297c0-5.108-4.142-9.25-9.25-9.25c-4.361,0-8.009,3.022-8.984,7.084c-0.46-0.096-0.936-0.146-1.421-0.146
			c-3.831,0-6.938,3.107-6.938,6.938c0,3.832,3.106,6.938,6.938,6.938h19.655c3.192,0,5.781-2.588,5.781-5.781
			C394.688,15.886,392.099,13.297,388.906,13.297z"/>
		
			<circle fill="none" stroke="#07394B" stroke-width="2" stroke-linecap="round" stroke-linejoin="round" stroke-miterlimit="10" cx="378.5" cy="31.797" r="1.156"/>
		
			<circle fill="none" stroke="#07394B" stroke-width="2" stroke-linecap="round" stroke-linejoin="round" stroke-miterlimit="10" cx="371.563" cy="29.484" r="1.156"/>
		
			<circle fill="none" stroke="#07394B" stroke-width="2" stroke-linecap="round" stroke-linejoin="round" stroke-miterlimit="10" cx="385.438" cy="28.328" r="1.156"/>
	</g>
</g>
<g>
	<rect x="400" fill="none" width="37" height="37"/>
	<g>
		<path fill="none" stroke="#07394B" stroke-width="2" stroke-linecap="round" stroke-linejoin="round" stroke-miterlimit="10" d="
			M423.148,23.703h5.758c3.192,0,5.781-2.589,5.781-5.781c0-3.192-2.589-5.781-5.781-5.781c0-5.108-4.142-9.25-9.25-9.25
			c-4.361,0-8.008,3.022-8.984,7.084c-0.459-0.096-0.936-0.146-1.421-0.146c-3.831,0-6.938,3.107-6.938,6.938
			s3.106,6.938,6.938,6.938h4.648"/>
		
			<polygon fill="none" stroke="#07394B" stroke-width="2" stroke-linecap="round" stroke-linejoin="round" stroke-miterlimit="10" points="
			421.969,26.194 418.534,26.194 418.5,26.194 418.5,21.246 415.031,29.161 418.464,29.161 418.5,29.161 418.5,34.109 		"/>
		
			<circle fill="none" stroke="#07394B" stroke-width="2" stroke-linecap="round" stroke-linejoin="round" stroke-miterlimit="10" cx="410.406" cy="28.328" r="1.156"/>
		
			<circle fill="none" stroke="#07394B" stroke-width="2" stroke-linecap="round" stroke-linejoin="round" stroke-miterlimit="10" cx="426.594" cy="27.172" r="1.156"/>
	</g>
</g>
<g>
	<g>
	</g>
	<g>
		<g>
			
				<line fill="none" stroke="#05394B" stroke-width="2" stroke-linecap="round" stroke-miterlimit="10" x1="172.859" y1="48.229" x2="183.667" y2="48.229"/>
			<ellipse fill="none" stroke="#05394B" stroke-width="2" stroke-miterlimit="10" cx="187.97" cy="48.229" rx="0.601" ry="0.616"/>
			
				<ellipse fill="none" stroke="#05394B" stroke-width="2" stroke-miterlimit="10" cx="168.828" cy="48.229" rx="0.601" ry="0.616"/>
		</g>
		<g>
			<ellipse fill="none" stroke="#05394B" stroke-width="2" stroke-miterlimit="10" cx="164.3" cy="55.076" rx="0.6" ry="0.617"/>
			
				<line fill="none" stroke="#05394B" stroke-width="2" stroke-linecap="round" stroke-miterlimit="10" x1="168.362" y1="55.076" x2="179.172" y2="55.076"/>
			
				<line fill="none" stroke="#05394B" stroke-width="2" stroke-linecap="round" stroke-miterlimit="10" x1="187.895" y1="55.076" x2="192.698" y2="55.076"/>
			
				<ellipse fill="none" stroke="#05394B" stroke-width="2" stroke-miterlimit="10" cx="183.654" cy="55.076" rx="0.601" ry="0.617"/>
		</g>
		<g>
			
				<line fill="none" stroke="#05394B" stroke-width="2" stroke-linecap="round" stroke-miterlimit="10" x1="164.3" y1="61.924" x2="169.104" y2="61.924"/>
			
				<ellipse fill="none" stroke="#05394B" stroke-width="2" stroke-miterlimit="10" cx="173.308" cy="61.924" rx="0.601" ry="0.616"/>
			
				<line fill="none" stroke="#05394B" stroke-width="2" stroke-linecap="round" stroke-miterlimit="10" x1="177.457" y1="61.924" x2="188.268" y2="61.924"/>
			
				<ellipse fill="none" stroke="#05394B" stroke-width="2" stroke-miterlimit="10" cx="192.699" cy="61.924" rx="0.601" ry="0.616"/>
		</g>
		<g>
			
				<ellipse fill="none" stroke="#05394B" stroke-width="2" stroke-miterlimit="10" cx="169.668" cy="68.771" rx="0.601" ry="0.617"/>
			
				<line fill="none" stroke="#05394B" stroke-width="2" stroke-linecap="round" stroke-miterlimit="10" x1="174.022" y1="68.771" x2="183.178" y2="68.771"/>
			<ellipse fill="none" stroke="#05394B" stroke-width="2" stroke-miterlimit="10" cx="187.531" cy="68.771" rx="0.6" ry="0.617"/>
		</g>
	</g>
</g>
</svg>
