<?xml version="1.0" encoding="utf-8"?>
<!-- Generator: Adobe Illustrator 16.0.0, SVG Export Plug-In . SVG Version: 6.00 Build 0)  -->
<!DOCTYPE svg PUBLIC "-//W3C//DTD SVG 1.1//EN" "http://www.w3.org/Graphics/SVG/1.1/DTD/svg11.dtd">
<svg version="1.1" id="Layer_1" xmlns="http://www.w3.org/2000/svg" xmlns:xlink="http://www.w3.org/1999/xlink" x="0px" y="0px"
	 width="440px" height="80px" viewBox="0 0 440 80" enable-background="new 0 0 440 80" xml:space="preserve">
<g>
	<rect x="0" y="40" fill="none" width="37" height="37"/>
	<g>
		<path fill="#342709" d="M18.47,72.822h-0.007c-2.735,0-5.194-1.659-6.275-4.133c-2.671,0.277-5.324-1.063-6.657-3.375
			c-1.367-2.371-1.159-5.33,0.442-7.502c-1.567-2.17-1.759-5.111-0.408-7.453c1.218-2.105,3.494-3.414,5.939-3.414
			c0.261,0,0.522,0.015,0.781,0.043c1.093-2.439,3.543-4.075,6.249-4.075c2.735,0,5.195,1.657,6.276,4.13
			c2.675-0.281,5.325,1.063,6.656,3.378c1.366,2.368,1.162,5.33-0.44,7.501c1.571,2.169,1.763,5.111,0.404,7.455
			c-1.216,2.104-3.49,3.413-5.937,3.413l0,0c-0.262,0-0.521-0.017-0.78-0.045C23.624,71.186,21.175,72.822,18.47,72.822z
			 M12.875,66.471c0.458,0,0.876,0.303,1.004,0.762c0.578,2.063,2.464,3.504,4.586,3.504h0.005c2.099,0,3.977-1.424,4.567-3.463
			c0.157-0.543,0.715-0.859,1.261-0.721c0.391,0.1,0.792,0.15,1.197,0.15c1.704,0,3.285-0.909,4.129-2.371
			c1.055-1.82,0.762-4.16-0.71-5.691c-0.39-0.406-0.388-1.05,0.007-1.451c1.496-1.532,1.8-3.889,0.74-5.727
			c-0.854-1.486-2.396-2.371-4.125-2.371c-0.39,0-0.781,0.047-1.161,0.141c-0.545,0.142-1.103-0.188-1.254-0.729
			C22.543,46.439,20.658,45,18.536,45c-2.103,0-3.98,1.424-4.571,3.462c-0.157,0.542-0.716,0.86-1.261,0.722
			c-0.393-0.101-0.794-0.148-1.198-0.148c-1.729,0-3.273,0.886-4.133,2.369c-1.066,1.849-0.779,4.137,0.715,5.693
			c0.391,0.405,0.386,1.049-0.007,1.451c-1.498,1.531-1.803,3.885-0.743,5.723c0.855,1.483,2.399,2.369,4.13,2.369
			c0.39,0,0.779-0.047,1.156-0.141C12.709,66.479,12.792,66.471,12.875,66.471z"/>
		<path fill="#342709" d="M24.003,59.038c-0.071-0.2-0.214-0.364-0.407-0.458c-0.39-0.191-0.882-0.02-1.07,0.365
			c-0.436,0.889-1.163,1.613-2.046,2.049c-0.622,0.307-1.288,0.463-1.976,0.463c-1.7,0-3.222-0.932-3.993-2.438l-0.049-0.097
			c-0.197-0.366-0.685-0.528-1.063-0.342c-0.395,0.194-0.556,0.676-0.361,1.067c1.005,2.068,3.14,3.404,5.463,3.404h0.022
			c2.281,0,4.399-1.313,5.416-3.351l0.063-0.063v-0.076C24.062,59.396,24.063,59.213,24.003,59.038z"/>
		<ellipse fill="#342709" cx="14.213" cy="55.721" rx="1.132" ry="1.301"/>
		<ellipse fill="#342709" cx="22.788" cy="55.721" rx="1.131" ry="1.301"/>
	</g>
</g>
<g>
	<rect x="40.119" y="40" fill="none" width="37" height="37"/>
	<g>
		<path fill="#342709" d="M58.59,73.454c-0.001,0-0.007,0-0.007,0c-2.733,0-5.195-1.659-6.274-4.132
			c-2.672,0.279-5.323-1.063-6.658-3.377c-1.367-2.369-1.161-5.329,0.441-7.502c-1.566-2.168-1.759-5.109-0.406-7.451
			c1.217-2.105,3.494-3.414,5.939-3.414c0.262,0,0.521,0.014,0.78,0.043c1.093-2.439,3.544-4.076,6.25-4.076
			c2.734,0,5.195,1.658,6.274,4.131c2.676-0.281,5.325,1.063,6.657,3.377c1.367,2.369,1.161,5.33-0.439,7.502
			c1.57,2.168,1.761,5.109,0.403,7.453c-1.217,2.105-3.49,3.414-5.938,3.414l0,0c-0.261,0-0.521-0.016-0.778-0.045
			C63.742,71.818,61.294,73.454,58.59,73.454z M52.994,67.104c0.457,0,0.876,0.301,1.004,0.764c0.578,2.063,2.465,3.504,4.586,3.504
			h0.006c2.1,0,3.977-1.426,4.567-3.464c0.156-0.543,0.715-0.861,1.26-0.722c0.393,0.102,0.794,0.149,1.196,0.149
			c1.704,0,3.286-0.91,4.132-2.37c1.054-1.82,0.762-4.16-0.711-5.691c-0.392-0.405-0.388-1.051,0.006-1.453
			c1.496-1.528,1.801-3.887,0.738-5.725c-0.853-1.486-2.395-2.371-4.124-2.371c-0.39,0-0.779,0.047-1.159,0.144
			c-0.546,0.139-1.104-0.188-1.257-0.729c-0.575-2.064-2.462-3.503-4.583-3.503c-2.103,0-3.981,1.427-4.571,3.464
			c-0.156,0.541-0.717,0.858-1.262,0.721c-0.391-0.103-0.794-0.15-1.197-0.15c-1.729,0-3.274,0.887-4.131,2.371
			c-1.067,1.848-0.78,4.136,0.713,5.693c0.389,0.406,0.386,1.049-0.008,1.451c-1.497,1.529-1.803,3.885-0.742,5.723
			c0.855,1.484,2.399,2.369,4.13,2.369c0.39,0,0.776-0.047,1.157-0.143C52.828,67.111,52.912,67.104,52.994,67.104z"/>
		<path fill="#342709" d="M61.802,61.523c-2.059-0.648-4.277-0.656-6.379,0.008c-0.206,0.068-0.373,0.214-0.471,0.408
			c-0.098,0.193-0.111,0.416-0.041,0.621c0.11,0.332,0.421,0.557,0.771,0.557c0.088,0,0.173-0.014,0.255-0.041
			c1.742-0.551,3.63-0.551,5.378,0.002c0.458,0.139,0.888-0.115,1.021-0.535C62.468,62.113,62.229,61.657,61.802,61.523z"/>
		<g>
			<ellipse fill="#342709" cx="54.333" cy="57.304" rx="1.132" ry="1.3"/>
			<ellipse fill="#342709" cx="62.907" cy="57.304" rx="1.132" ry="1.3"/>
		</g>
	</g>
</g>
<g>
	<rect x="80" y="40" fill="none" width="37" height="37"/>
	<g>
		<path fill="#342709" d="M98.471,73.454h-0.007c-2.734,0-5.194-1.659-6.273-4.132c-2.672,0.279-5.324-1.064-6.66-3.377
			c-1.365-2.369-1.157-5.329,0.445-7.502c-1.566-2.168-1.76-5.109-0.409-7.452c1.219-2.104,3.494-3.413,5.939-3.413
			c0.262,0,0.521,0.016,0.781,0.044c1.094-2.44,3.544-4.076,6.249-4.076c2.733,0,5.195,1.657,6.274,4.13
			c2.677-0.281,5.328,1.063,6.658,3.379c1.366,2.366,1.16,5.329-0.44,7.5c1.571,2.17,1.763,5.11,0.404,7.454
			c-1.215,2.104-3.491,3.412-5.938,3.412l0,0c-0.261,0-0.521-0.014-0.779-0.043C103.624,71.818,101.176,73.454,98.471,73.454z
			 M92.877,67.102c0.456,0,0.874,0.303,1.003,0.763c0.578,2.063,2.464,3.507,4.586,3.507h0.005c2.101,0,3.977-1.426,4.568-3.464
			c0.155-0.543,0.714-0.861,1.26-0.722c0.392,0.103,0.793,0.148,1.197,0.148c1.703,0,3.286-0.906,4.131-2.371
			c1.055-1.818,0.761-4.158-0.712-5.689c-0.389-0.404-0.387-1.049,0.007-1.453c1.497-1.528,1.8-3.887,0.738-5.725
			c-0.852-1.486-2.395-2.371-4.123-2.371c-0.392,0-0.781,0.047-1.161,0.144c-0.544,0.139-1.103-0.188-1.253-0.729
			c-0.578-2.063-2.464-3.504-4.587-3.504c-2.102,0-3.981,1.426-4.571,3.465c-0.157,0.541-0.716,0.859-1.26,0.721
			c-0.394-0.103-0.795-0.15-1.199-0.15c-1.729,0-3.274,0.887-4.133,2.371c-1.065,1.848-0.779,4.136,0.716,5.693
			c0.389,0.406,0.387,1.049-0.007,1.451c-1.499,1.53-1.805,3.885-0.742,5.723c0.854,1.484,2.399,2.369,4.13,2.369
			c0.389,0,0.779-0.045,1.156-0.139C92.71,67.111,92.793,67.102,92.877,67.102z"/>
		<path fill="#342709" d="M103.811,63.243c-0.573-1.168-1.533-2.126-2.698-2.7c-0.821-0.404-1.7-0.607-2.607-0.607
			c-2.276,0-4.313,1.269-5.316,3.313c-0.188,0.391-0.027,0.859,0.359,1.048c0.382,0.193,0.869,0.024,1.055-0.354
			c0.421-0.856,1.124-1.56,1.982-1.98c0.602-0.296,1.247-0.445,1.913-0.445c1.669,0,3.164,0.93,3.898,2.428
			c0.134,0.271,0.404,0.439,0.707,0.439v-0.004h0.005c0.115-0.001,0.233-0.027,0.344-0.08
			C103.842,64.105,104.003,63.633,103.811,63.243z"/>
		<g>
			<path fill="#342709" d="M93.646,59.541c-0.546,0-1.09-0.137-1.576-0.391c-0.802-0.422-1.393-1.133-1.661-1.996
				c-0.268-0.866-0.184-1.784,0.238-2.588c0.086-0.164,0.233-0.285,0.409-0.34c0.179-0.057,0.366-0.039,0.53,0.047l4.773,2.513
				c0.34,0.18,0.471,0.601,0.291,0.938C96.063,58.846,94.911,59.541,93.646,59.541z M91.664,55.891
				c-0.104,0.805,0.294,1.629,1.055,2.029c0.74,0.391,1.674,0.252,2.27-0.281L91.664,55.891z"/>
			<path fill="#342709" d="M103.355,59.541L103.355,59.541c-1.267,0-2.419-0.695-3.006-1.814c-0.179-0.34-0.048-0.761,0.291-0.938
				l4.774-2.514c0.162-0.086,0.353-0.104,0.529-0.047c0.178,0.056,0.323,0.176,0.409,0.34c0.422,0.805,0.506,1.723,0.237,2.586
				c-0.271,0.865-0.858,1.574-1.66,1.996C104.446,59.404,103.899,59.541,103.355,59.541z M102.014,57.639
				c0.361,0.324,0.836,0.512,1.342,0.512l0,0c0.325,0,0.638-0.077,0.929-0.229c0.762-0.4,1.155-1.227,1.053-2.029L102.014,57.639z"
				/>
		</g>
	</g>
</g>
<g>
	<rect x="120" y="40" fill="none" width="37" height="37"/>
	<g>
		<path fill="#342709" d="M138.471,73.454h-0.007c-2.734,0-5.196-1.659-6.275-4.132c-2.672,0.279-5.322-1.064-6.658-3.377
			c-1.367-2.369-1.159-5.329,0.443-7.502c-1.566-2.168-1.76-5.109-0.407-7.452c1.219-2.104,3.494-3.413,5.939-3.413
			c0.26,0,0.521,0.016,0.781,0.044c1.091-2.44,3.541-4.076,6.249-4.076c2.733,0,5.195,1.657,6.274,4.13
			c2.674-0.281,5.325,1.063,6.658,3.379c1.366,2.366,1.16,5.329-0.44,7.5c1.569,2.17,1.76,5.11,0.401,7.454
			c-1.215,2.104-3.488,3.412-5.935,3.412l0,0c-0.263,0-0.521-0.014-0.781-0.043C143.624,71.818,141.174,73.454,138.471,73.454z
			 M132.875,67.102c0.458,0,0.876,0.303,1.005,0.763c0.578,2.063,2.464,3.507,4.584,3.507h0.007c2.098,0,3.978-1.426,4.566-3.464
			c0.157-0.543,0.716-0.861,1.262-0.722c0.392,0.103,0.793,0.148,1.197,0.148c1.703,0,3.282-0.906,4.128-2.371
			c1.055-1.818,0.764-4.158-0.709-5.689c-0.392-0.404-0.389-1.049,0.005-1.453c1.497-1.528,1.802-3.887,0.74-5.725
			c-0.854-1.486-2.396-2.371-4.123-2.371c-0.392,0-0.781,0.047-1.161,0.144c-0.546,0.139-1.104-0.188-1.256-0.729
			c-0.578-2.063-2.464-3.504-4.584-3.504c-2.104,0-3.981,1.426-4.573,3.465c-0.155,0.541-0.716,0.859-1.26,0.721
			c-0.392-0.103-0.793-0.15-1.197-0.15c-1.729,0-3.274,0.887-4.133,2.371c-1.065,1.848-0.779,4.136,0.714,5.693
			c0.391,0.406,0.386,1.049-0.007,1.451c-1.497,1.53-1.803,3.885-0.743,5.723c0.855,1.484,2.4,2.369,4.131,2.369
			c0.389,0,0.779-0.045,1.156-0.139C132.71,67.111,132.793,67.102,132.875,67.102z"/>
		<path fill="#342709" d="M144.089,63.243c-0.575-1.168-1.533-2.126-2.7-2.7c-0.822-0.404-1.698-0.607-2.608-0.607
			c-2.273,0-4.311,1.269-5.315,3.313c-0.188,0.391-0.025,0.859,0.359,1.048c0.384,0.193,0.868,0.024,1.057-0.354
			c0.419-0.856,1.125-1.56,1.979-1.98c0.604-0.296,1.247-0.445,1.913-0.445c1.671,0,3.166,0.93,3.902,2.428
			c0.133,0.271,0.404,0.439,0.707,0.439v-0.004h0.002c0.116-0.001,0.235-0.027,0.346-0.08
			C144.119,64.105,144.279,63.633,144.089,63.243z"/>
		<path fill="#342709" d="M136.361,56.352c-0.379-0.188-0.867-0.022-1.057,0.355c-0.172,0.352-0.459,0.639-0.809,0.813
			c-0.852,0.418-1.923,0.061-2.36-0.768l-0.022-0.049c-0.188-0.376-0.671-0.544-1.057-0.354c-0.388,0.192-0.546,0.666-0.355,1.053
			c0.556,1.14,1.731,1.875,3.008,1.875h0.014c1.268,0,2.445-0.736,2.995-1.875C136.908,57.014,136.748,56.541,136.361,56.352z"/>
		<path fill="#342709" d="M143.393,59.275c1.253,0,2.418-0.724,2.981-1.84l0.018-0.039c0.002-0.002,0.002-0.004,0.005-0.006
			l0.029-0.074c0.133-0.373-0.034-0.795-0.397-0.974c-0.38-0.188-0.868-0.014-1.05,0.361c-0.174,0.353-0.463,0.639-0.813,0.812
			c-0.246,0.123-0.51,0.186-0.781,0.186c-0.685,0-1.296-0.383-1.597-0.994l-0.053-0.104l-0.016-0.008
			c-0.215-0.305-0.648-0.419-0.992-0.246c-0.387,0.192-0.545,0.666-0.355,1.053c0.556,1.14,1.731,1.875,2.999,1.875"/>
	</g>
</g>
<g>
	<rect x="0" fill="none" width="37" height="37"/>
	<g>
		
			<circle fill="none" stroke="#342709" stroke-width="2" stroke-linecap="round" stroke-miterlimit="10" cx="18.5" cy="18.5" r="8.094"/>
		
			<line fill="none" stroke="#342709" stroke-width="2" stroke-linecap="round" stroke-miterlimit="10" x1="18.5" y1="5.781" x2="18.5" y2="2.313"/>
		
			<line fill="none" stroke="#342709" stroke-width="2" stroke-linecap="round" stroke-miterlimit="10" x1="9.506" y1="9.508" x2="7.054" y2="7.055"/>
		
			<line fill="none" stroke="#342709" stroke-width="2" stroke-linecap="round" stroke-miterlimit="10" x1="5.781" y1="18.5" x2="2.313" y2="18.5"/>
		
			<line fill="none" stroke="#342709" stroke-width="2" stroke-linecap="round" stroke-miterlimit="10" x1="9.506" y1="27.492" x2="7.054" y2="29.945"/>
		
			<line fill="none" stroke="#342709" stroke-width="2" stroke-linecap="round" stroke-miterlimit="10" x1="18.5" y1="31.219" x2="18.5" y2="34.688"/>
		
			<line fill="none" stroke="#342709" stroke-width="2" stroke-linecap="round" stroke-miterlimit="10" x1="27.492" y1="27.492" x2="29.945" y2="29.945"/>
		
			<line fill="none" stroke="#342709" stroke-width="2" stroke-linecap="round" stroke-miterlimit="10" x1="31.219" y1="18.5" x2="34.688" y2="18.5"/>
		
			<line fill="none" stroke="#342709" stroke-width="2" stroke-linecap="round" stroke-miterlimit="10" x1="27.492" y1="9.508" x2="29.945" y2="7.055"/>
	</g>
</g>
<g>
	<rect x="40" fill="none" width="37" height="37"/>
	<path fill="none" stroke="#342709" stroke-width="2" stroke-linecap="round" stroke-linejoin="round" stroke-miterlimit="10" d="
		M68.906,17.344c0-5.108-4.142-9.25-9.25-9.25c-4.361,0-8.008,3.022-8.984,7.084c-0.458-0.096-0.936-0.146-1.421-0.146
		c-3.831,0-6.938,3.107-6.938,6.938c0,3.831,3.106,6.938,6.938,6.938h19.655c3.192,0,5.781-2.589,5.781-5.781
		S72.099,17.344,68.906,17.344z"/>
</g>
<g>
	<rect x="200" fill="none" width="37" height="37"/>
	<g>
		
			<line fill="none" stroke="#342709" stroke-width="2" stroke-linecap="round" stroke-miterlimit="10" x1="213.648" y1="8.961" x2="213.648" y2="6.648"/>
		
			<line fill="none" stroke="#342709" stroke-width="2" stroke-linecap="round" stroke-miterlimit="10" x1="207.504" y1="11.471" x2="205.869" y2="9.836"/>
		
			<line fill="none" stroke="#342709" stroke-width="2" stroke-linecap="round" stroke-miterlimit="10" x1="204.935" y1="17.591" x2="202.622" y2="17.591"/>
		
			<line fill="none" stroke="#342709" stroke-width="2" stroke-linecap="round" stroke-miterlimit="10" x1="207.444" y1="23.734" x2="205.81" y2="25.37"/>
		
			<line fill="none" stroke="#342709" stroke-width="2" stroke-linecap="round" stroke-miterlimit="10" x1="219.767" y1="11.531" x2="221.402" y2="9.896"/>
		<path fill="none" stroke="#342709" stroke-width="2" stroke-linecap="round" stroke-linejoin="round" stroke-miterlimit="10" d="
			M214.143,19.945c0.442,0,0.865,0.072,1.276,0.176c0.337-1.898,1.428-3.521,2.938-4.599c-0.811-1.819-2.627-3.094-4.749-3.094
			c-2.873,0-5.203,2.329-5.203,5.203c0,1.622,0.759,3.052,1.922,4.006C211.274,20.604,212.627,19.945,214.143,19.945z"/>
		<path fill="none" stroke="#342709" stroke-width="2" stroke-linecap="round" stroke-linejoin="round" stroke-miterlimit="10" d="
			M229.752,21.102c-0.005,0-0.009,0.001-0.015,0.001c-0.151-3.855-3.317-6.938-7.213-6.938c-1.563,0-2.989,0.518-4.17,1.359
			c-1.509,1.077-2.601,2.699-2.938,4.598c-0.409-0.104-0.833-0.175-1.275-0.175c-1.516,0-2.867,0.658-3.819,1.694
			c-0.851,0.927-1.384,2.151-1.384,3.509c0,2.874,2.33,5.203,5.203,5.203h15.609c2.554,0,4.625-2.07,4.625-4.625
			C234.376,23.174,232.307,21.102,229.752,21.102z"/>
	</g>
</g>
<g>
	<rect x="80" fill="none" width="37" height="37"/>
	<path fill="none" stroke="#342709" stroke-width="2" stroke-linecap="round" stroke-linejoin="round" stroke-miterlimit="10" d="
		M96.715,12.677c0-1.629,0.385-3.167,1.055-4.541c-5.151,0.622-9.147,5.001-9.147,10.322c0,5.749,4.657,10.406,10.405,10.406
		c4.115,0,7.663-2.396,9.353-5.863c-0.413,0.05-0.831,0.082-1.258,0.082C101.373,23.083,96.715,18.426,96.715,12.677z"/>
</g>
<g>
	<rect x="160" fill="none" width="37" height="37"/>
	<g>
		<path fill="none" stroke="#342709" stroke-width="2" stroke-linecap="round" stroke-linejoin="round" stroke-miterlimit="10" d="
			M171.803,18.416c0.443,0,0.865,0.074,1.275,0.177c0.4-2.258,1.857-4.133,3.833-5.146c-0.451-2.766-2.679-4.932-5.48-5.27
			c0.407,0.836,0.644,1.774,0.644,2.768c0,3.503-2.841,6.343-6.344,6.343c-0.261,0-0.516-0.021-0.768-0.05
			c0.625,1.286,1.673,2.323,2.962,2.944C168.877,19.107,170.254,18.416,171.803,18.416z"/>
		<path fill="none" stroke="#342709" stroke-width="2" stroke-linecap="round" stroke-linejoin="round" stroke-miterlimit="10" d="
			M187.412,19.572c-0.004,0-0.01,0.003-0.016,0.003c-0.151-3.858-3.316-6.94-7.212-6.94c-1.185,0-2.29,0.308-3.274,0.813
			c-1.976,1.013-3.433,2.888-3.833,5.146c-0.41-0.104-0.833-0.177-1.275-0.177c-1.549,0-2.926,0.691-3.879,1.767
			c-0.814,0.918-1.324,2.113-1.324,3.437c0,2.874,2.329,5.203,5.203,5.203h15.609c2.555,0,4.625-2.07,4.625-4.625
			C192.036,21.644,189.967,19.572,187.412,19.572z"/>
	</g>
</g>
<g>
	<rect x="120" fill="none" width="37" height="37"/>
	<g>
		<path fill="none" stroke="#342709" stroke-width="2" stroke-linecap="round" stroke-linejoin="round" stroke-miterlimit="10" d="
			M148.906,13.838c0-5.108-4.142-9.25-9.25-9.25c-4.361,0-8.008,3.022-8.984,7.085c-0.459-0.097-0.936-0.147-1.421-0.147
			c-3.831,0-6.938,3.106-6.938,6.938s3.106,6.938,6.938,6.938h19.655c3.192,0,5.781-2.587,5.781-5.781
			C154.688,16.427,152.099,13.838,148.906,13.838z"/>
		<g>
			
				<line fill="none" stroke="#342709" stroke-width="2" stroke-linecap="round" stroke-linejoin="round" stroke-miterlimit="10" x1="129.25" y1="32.412" x2="132.222" y2="28.869"/>
			
				<line fill="none" stroke="#342709" stroke-width="2" stroke-linecap="round" stroke-linejoin="round" stroke-miterlimit="10" x1="136.188" y1="32.412" x2="139.159" y2="28.869"/>
			
				<line fill="none" stroke="#342709" stroke-width="2" stroke-linecap="round" stroke-linejoin="round" stroke-miterlimit="10" x1="143.125" y1="32.412" x2="146.097" y2="28.869"/>
		</g>
	</g>
</g>
<g>
	<rect x="240" fill="none" width="37" height="37"/>
	<g>
		<path fill="none" stroke="#342709" stroke-width="2" stroke-linecap="round" stroke-linejoin="round" stroke-miterlimit="10" d="
			M268.906,13.875c0-5.108-4.143-9.25-9.25-9.25c-4.361,0-8.008,3.022-8.984,7.084c-0.458-0.096-0.936-0.146-1.421-0.146
			c-3.831,0-6.938,3.107-6.938,6.938s3.104,6.938,6.938,6.938h19.655c3.191,0,5.781-2.589,5.781-5.781
			C274.688,16.466,272.1,13.875,268.906,13.875z"/>
		
			<line fill="none" stroke="#342709" stroke-width="2" stroke-linecap="round" stroke-linejoin="round" stroke-miterlimit="10" x1="251.563" y1="32.375" x2="251.563" y2="28.906"/>
		
			<line fill="none" stroke="#342709" stroke-width="2" stroke-linecap="round" stroke-linejoin="round" stroke-miterlimit="10" x1="258.5" y1="32.375" x2="258.5" y2="28.906"/>
		
			<line fill="none" stroke="#342709" stroke-width="2" stroke-linecap="round" stroke-linejoin="round" stroke-miterlimit="10" x1="265.438" y1="32.375" x2="265.438" y2="28.906"/>
	</g>
</g>
<g>
	<rect x="320" fill="none" width="37" height="37"/>
	<g>
		<path fill="none" stroke="#342709" stroke-width="2" stroke-linecap="round" stroke-linejoin="round" stroke-miterlimit="10" d="
			M343.148,23.703h5.758c3.191,0,5.781-2.589,5.781-5.781c0-3.192-2.59-5.781-5.781-5.781c0-5.108-4.143-9.25-9.25-9.25
			c-4.361,0-8.01,3.022-8.984,7.084c-0.46-0.096-0.936-0.146-1.421-0.146c-3.831,0-6.938,3.107-6.938,6.938s3.104,6.938,6.938,6.938
			h4.647"/>
		
			<line fill="none" stroke="#342709" stroke-width="2" stroke-linecap="round" stroke-linejoin="round" stroke-miterlimit="10" x1="329.25" y1="30.959" x2="331.227" y2="26.777"/>
		
			<line fill="none" stroke="#342709" stroke-width="2" stroke-linecap="round" stroke-linejoin="round" stroke-miterlimit="10" x1="345.438" y1="30.959" x2="347.412" y2="26.777"/>
		
			<polygon fill="none" stroke="#342709" stroke-width="2" stroke-linecap="round" stroke-linejoin="round" stroke-miterlimit="10" points="
			341.969,26.194 338.534,26.194 338.5,26.194 338.5,21.246 335.031,29.161 338.464,29.161 338.5,29.161 338.5,34.109 		"/>
	</g>
</g>
<g>
	<rect x="280" fill="none" width="37" height="37"/>
	<g>
		<path fill="none" stroke="#342709" stroke-width="2" stroke-linecap="round" stroke-linejoin="round" stroke-miterlimit="10" d="
			M303.148,23.703h5.758c3.191,0,5.781-2.589,5.781-5.781c0-3.192-2.59-5.781-5.781-5.781c0-5.108-4.143-9.25-9.25-9.25
			c-4.361,0-8.01,3.022-8.984,7.084c-0.46-0.096-0.936-0.146-1.421-0.146c-3.831,0-6.938,3.107-6.938,6.938s3.104,6.938,6.938,6.938
			h4.647"/>
		
			<polygon fill="none" stroke="#342709" stroke-width="2" stroke-linecap="round" stroke-linejoin="round" stroke-miterlimit="10" points="
			301.969,26.194 298.534,26.194 298.5,26.194 298.5,21.246 295.031,29.161 298.464,29.161 298.5,29.161 298.5,34.109 		"/>
	</g>
</g>
<g>
	<rect x="360" fill="none" width="37" height="37"/>
	<g>
		<path fill="none" stroke="#342709" stroke-width="2" stroke-linecap="round" stroke-linejoin="round" stroke-miterlimit="10" d="
			M388.906,13.297c0-5.108-4.143-9.25-9.25-9.25c-4.361,0-8.01,3.022-8.984,7.084c-0.46-0.096-0.936-0.146-1.421-0.146
			c-3.831,0-6.938,3.107-6.938,6.938c0,3.832,3.104,6.938,6.938,6.938h19.655c3.191,0,5.781-2.588,5.781-5.781
			C394.688,15.886,392.1,13.297,388.906,13.297z"/>
		
			<circle fill="none" stroke="#342709" stroke-width="2" stroke-linecap="round" stroke-linejoin="round" stroke-miterlimit="10" cx="378.5" cy="31.797" r="1.156"/>
		
			<circle fill="none" stroke="#342709" stroke-width="2" stroke-linecap="round" stroke-linejoin="round" stroke-miterlimit="10" cx="371.563" cy="29.484" r="1.156"/>
		
			<circle fill="none" stroke="#342709" stroke-width="2" stroke-linecap="round" stroke-linejoin="round" stroke-miterlimit="10" cx="385.438" cy="28.328" r="1.156"/>
	</g>
</g>
<g>
	<rect x="400" fill="none" width="37" height="37"/>
	<g>
		<path fill="none" stroke="#342709" stroke-width="2" stroke-linecap="round" stroke-linejoin="round" stroke-miterlimit="10" d="
			M423.148,23.703h5.758c3.19,0,5.779-2.589,5.779-5.781c0-3.192-2.589-5.781-5.779-5.781c0-5.108-4.144-9.25-9.25-9.25
			c-4.361,0-8.008,3.022-8.984,7.084c-0.459-0.096-0.936-0.146-1.421-0.146c-3.831,0-6.938,3.107-6.938,6.938
			s3.104,6.938,6.938,6.938h4.647"/>
		
			<polygon fill="none" stroke="#342709" stroke-width="2" stroke-linecap="round" stroke-linejoin="round" stroke-miterlimit="10" points="
			421.969,26.194 418.534,26.194 418.5,26.194 418.5,21.246 415.031,29.161 418.464,29.161 418.5,29.161 418.5,34.109 		"/>
		
			<circle fill="none" stroke="#342709" stroke-width="2" stroke-linecap="round" stroke-linejoin="round" stroke-miterlimit="10" cx="410.406" cy="28.328" r="1.156"/>
		
			<circle fill="none" stroke="#342709" stroke-width="2" stroke-linecap="round" stroke-linejoin="round" stroke-miterlimit="10" cx="426.594" cy="27.172" r="1.156"/>
	</g>
</g>
<g>
	<g>
	</g>
	<g>
		<g>
			
				<line fill="none" stroke="#342709" stroke-width="2" stroke-linecap="round" stroke-linejoin="round" stroke-miterlimit="10" x1="172.859" y1="48.229" x2="183.667" y2="48.229"/>
			
				<ellipse fill="none" stroke="#342709" stroke-width="2" stroke-linecap="round" stroke-linejoin="round" stroke-miterlimit="10" cx="187.97" cy="48.229" rx="0.601" ry="0.616"/>
			
				<ellipse fill="none" stroke="#342709" stroke-width="2" stroke-linecap="round" stroke-linejoin="round" stroke-miterlimit="10" cx="168.828" cy="48.229" rx="0.601" ry="0.616"/>
		</g>
		<g>
			
				<ellipse fill="none" stroke="#342709" stroke-width="2" stroke-linecap="round" stroke-linejoin="round" stroke-miterlimit="10" cx="164.3" cy="55.076" rx="0.6" ry="0.617"/>
			
				<line fill="none" stroke="#342709" stroke-width="2" stroke-linecap="round" stroke-linejoin="round" stroke-miterlimit="10" x1="168.362" y1="55.076" x2="179.172" y2="55.076"/>
			
				<line fill="none" stroke="#342709" stroke-width="2" stroke-linecap="round" stroke-linejoin="round" stroke-miterlimit="10" x1="187.895" y1="55.076" x2="192.698" y2="55.076"/>
			
				<ellipse fill="none" stroke="#342709" stroke-width="2" stroke-linecap="round" stroke-linejoin="round" stroke-miterlimit="10" cx="183.654" cy="55.076" rx="0.601" ry="0.617"/>
		</g>
		<g>
			
				<line fill="none" stroke="#342709" stroke-width="2" stroke-linecap="round" stroke-linejoin="round" stroke-miterlimit="10" x1="164.3" y1="61.924" x2="169.104" y2="61.924"/>
			
				<ellipse fill="none" stroke="#342709" stroke-width="2" stroke-linecap="round" stroke-linejoin="round" stroke-miterlimit="10" cx="173.308" cy="61.924" rx="0.601" ry="0.616"/>
			
				<line fill="none" stroke="#342709" stroke-width="2" stroke-linecap="round" stroke-linejoin="round" stroke-miterlimit="10" x1="177.457" y1="61.924" x2="188.268" y2="61.924"/>
			
				<ellipse fill="none" stroke="#342709" stroke-width="2" stroke-linecap="round" stroke-linejoin="round" stroke-miterlimit="10" cx="192.699" cy="61.924" rx="0.601" ry="0.616"/>
		</g>
		<g>
			
				<ellipse fill="none" stroke="#342709" stroke-width="2" stroke-linecap="round" stroke-linejoin="round" stroke-miterlimit="10" cx="169.668" cy="68.771" rx="0.601" ry="0.617"/>
			
				<line fill="none" stroke="#342709" stroke-width="2" stroke-linecap="round" stroke-linejoin="round" stroke-miterlimit="10" x1="174.022" y1="68.771" x2="183.178" y2="68.771"/>
			
				<ellipse fill="none" stroke="#342709" stroke-width="2" stroke-linecap="round" stroke-linejoin="round" stroke-miterlimit="10" cx="187.531" cy="68.771" rx="0.6" ry="0.617"/>
		</g>
	</g>
</g>
</svg>
