<?xml version="1.0" encoding="utf-8"?>
<!-- Generator: Adobe Illustrator 16.0.0, SVG Export Plug-In . SVG Version: 6.00 Build 0)  -->
<!DOCTYPE svg PUBLIC "-//W3C//DTD SVG 1.1//EN" "http://www.w3.org/Graphics/SVG/1.1/DTD/svg11.dtd">
<svg version="1.1" id="Layer_1" xmlns="http://www.w3.org/2000/svg" xmlns:xlink="http://www.w3.org/1999/xlink" x="0px" y="0px"
	 width="330px" height="60px" viewBox="0 0 330 60" enable-background="new 0 0 330 60" xml:space="preserve">
<g>
	<rect fill="none" width="30" height="30"/>
	<g>
		<circle fill="#FFE168" stroke="#010101" stroke-linecap="round" stroke-miterlimit="10" cx="15" cy="15" r="6.563"/>
		<line fill="none" stroke="#010101" stroke-linecap="round" stroke-miterlimit="10" x1="15" y1="4.687" x2="15" y2="1.875"/>
		<line fill="none" stroke="#010101" stroke-linecap="round" stroke-miterlimit="10" x1="7.708" y1="7.709" x2="5.72" y2="5.72"/>
		<line fill="none" stroke="#010101" stroke-linecap="round" stroke-miterlimit="10" x1="4.688" y1="15" x2="1.875" y2="15"/>
		<line fill="none" stroke="#010101" stroke-linecap="round" stroke-miterlimit="10" x1="7.708" y1="22.291" x2="5.72" y2="24.28"/>
		<line fill="none" stroke="#010101" stroke-linecap="round" stroke-miterlimit="10" x1="15" y1="25.313" x2="15" y2="28.125"/>
		
			<line fill="none" stroke="#010101" stroke-linecap="round" stroke-miterlimit="10" x1="22.291" y1="22.291" x2="24.28" y2="24.28"/>
		<line fill="none" stroke="#010101" stroke-linecap="round" stroke-miterlimit="10" x1="25.313" y1="15" x2="28.125" y2="15"/>
		<line fill="none" stroke="#010101" stroke-linecap="round" stroke-miterlimit="10" x1="22.291" y1="7.709" x2="24.28" y2="5.72"/>
	</g>
</g>
<g>
	<rect x="30" fill="none" width="30" height="30"/>
	<path fill="#FFFFFF" stroke="#010101" stroke-linecap="round" stroke-linejoin="round" stroke-miterlimit="10" d="M53.438,14.063
		c0-4.142-3.358-7.5-7.5-7.5c-3.537,0-6.493,2.45-7.286,5.744c-0.371-0.078-0.758-0.119-1.152-0.119
		c-3.106,0-5.625,2.52-5.625,5.625c0,3.106,2.519,5.625,5.625,5.625h15.938c2.588,0,4.687-2.099,4.687-4.688
		C58.125,16.164,56.026,14.063,53.438,14.063z"/>
</g>
<g>
	<rect x="150" fill="none" width="30" height="30"/>
	<g>
		
			<line fill="none" stroke="#010101" stroke-linecap="round" stroke-miterlimit="10" x1="161.066" y1="7.266" x2="161.066" y2="5.39"/>
		
			<line fill="none" stroke="#010101" stroke-linecap="round" stroke-miterlimit="10" x1="156.084" y1="9.301" x2="154.759" y2="7.975"/>
		
			<line fill="none" stroke="#010101" stroke-linecap="round" stroke-miterlimit="10" x1="154.001" y1="14.263" x2="152.126" y2="14.263"/>
		
			<line fill="none" stroke="#010101" stroke-linecap="round" stroke-miterlimit="10" x1="156.036" y1="19.244" x2="154.711" y2="20.57"/>
		<g>
			
				<line fill="none" stroke="#010101" stroke-linecap="round" stroke-miterlimit="10" x1="166.027" y1="9.349" x2="167.354" y2="8.024"/>
			<path fill="#FFE168" stroke="#010101" stroke-linecap="round" stroke-linejoin="round" stroke-miterlimit="10" d="
				M161.467,16.171c0.358,0,0.701,0.059,1.035,0.143c0.273-1.539,1.158-2.855,2.382-3.729c-0.657-1.475-2.13-2.508-3.851-2.508
				c-2.329,0-4.219,1.888-4.219,4.218c0,1.315,0.615,2.475,1.559,3.248C159.141,16.706,160.238,16.171,161.467,16.171z"/>
			<path fill="#FFFFFF" stroke="#010101" stroke-linecap="round" stroke-linejoin="round" stroke-miterlimit="10" d="M174.123,17.11
				c-0.004,0-0.007,0-0.012,0c-0.123-3.125-2.689-5.625-5.85-5.625c-1.267,0-2.424,0.42-3.381,1.102
				c-1.224,0.874-2.108,2.188-2.382,3.729c-0.332-0.084-0.676-0.143-1.034-0.143c-1.229,0-2.325,0.534-3.097,1.374
				c-0.69,0.751-1.122,1.744-1.122,2.845c0,2.331,1.889,4.219,4.219,4.219h12.655c2.069,0,3.75-1.678,3.75-3.75
				C177.872,18.79,176.193,17.11,174.123,17.11z"/>
		</g>
	</g>
</g>
<g>
	<rect x="60" fill="none" width="30" height="30"/>
	<path fill="#FFE168" stroke="#010101" stroke-linecap="round" stroke-linejoin="round" stroke-miterlimit="10" d="M73.553,10.279
		c0-1.321,0.313-2.568,0.855-3.682c-4.177,0.504-7.417,4.055-7.417,8.369c0,4.662,3.777,8.437,8.437,8.437
		c3.337,0,6.213-1.941,7.583-4.753c-0.335,0.041-0.674,0.066-1.02,0.066C77.33,18.716,73.553,14.94,73.553,10.279z"/>
</g>
<g>
	<rect x="120" fill="none" width="30" height="30"/>
	<path fill="#FFE168" stroke="#010101" stroke-linecap="round" stroke-linejoin="round" stroke-miterlimit="10" d="M129.57,14.932
		c0.358,0,0.701,0.06,1.033,0.144c0.325-1.831,1.506-3.352,3.108-4.173c-0.366-2.243-2.172-3.999-4.442-4.272
		c0.33,0.678,0.521,1.438,0.521,2.244c0,2.84-2.304,5.144-5.144,5.144c-0.211,0-0.418-0.017-0.623-0.041
		c0.507,1.043,1.355,1.884,2.4,2.387C127.198,15.492,128.314,14.932,129.57,14.932z"/>
	<path fill="#FFFFFF" stroke="#010101" stroke-linecap="round" stroke-linejoin="round" stroke-miterlimit="10" d="M142.227,15.869
		c-0.004,0-0.008,0.002-0.013,0.002c-0.123-3.128-2.688-5.627-5.848-5.627c-0.961,0-1.857,0.25-2.655,0.659
		c-1.602,0.821-2.783,2.341-3.107,4.172c-0.334-0.084-0.676-0.144-1.035-0.144c-1.256,0-2.371,0.56-3.145,1.433
		c-0.66,0.745-1.072,1.713-1.072,2.787c0,2.33,1.888,4.218,4.217,4.218h12.656c2.071,0,3.75-1.678,3.75-3.75
		C145.975,17.549,144.297,15.869,142.227,15.869z"/>
</g>
<g>
	<rect x="90" fill="none" width="30" height="30"/>
	<g>
		<path fill="#FFFFFF" stroke="#010101" stroke-linecap="round" stroke-linejoin="round" stroke-miterlimit="10" d="M113.438,11.22
			c0-4.142-3.358-7.5-7.5-7.5c-3.537,0-6.493,2.45-7.286,5.745C98.28,9.387,97.894,9.346,97.5,9.346
			c-3.106,0-5.625,2.519-5.625,5.625s2.519,5.625,5.625,5.625h15.938c2.588,0,4.687-2.098,4.687-4.687
			C118.125,13.319,116.026,11.22,113.438,11.22z"/>
		<g>
			
				<line fill="none" stroke="#010101" stroke-linecap="round" stroke-linejoin="round" stroke-miterlimit="10" x1="97.5" y1="26.28" x2="99.91" y2="23.407"/>
			
				<line fill="none" stroke="#010101" stroke-linecap="round" stroke-linejoin="round" stroke-miterlimit="10" x1="103.125" y1="26.28" x2="105.535" y2="23.407"/>
			
				<line fill="none" stroke="#010101" stroke-linecap="round" stroke-linejoin="round" stroke-miterlimit="10" x1="108.75" y1="26.28" x2="111.16" y2="23.407"/>
		</g>
	</g>
</g>
<g>
	<rect x="180" fill="none" width="30" height="30"/>
	<g>
		<path fill="#FFFFFF" stroke="#010101" stroke-linecap="round" stroke-linejoin="round" stroke-miterlimit="10" d="M203.438,11.25
			c0-4.142-3.356-7.5-7.5-7.5c-3.537,0-6.492,2.45-7.285,5.744c-0.37-0.078-0.758-0.118-1.15-0.118
			c-3.105,0-5.625,2.519-5.625,5.625s2.52,5.625,5.625,5.625h15.938c2.588,0,4.688-2.099,4.688-4.687S206.025,11.25,203.438,11.25z"
			/>
		
			<line fill="none" stroke="#010101" stroke-linecap="round" stroke-linejoin="round" stroke-miterlimit="10" x1="189.375" y1="26.25" x2="189.375" y2="23.437"/>
		
			<line fill="none" stroke="#010101" stroke-linecap="round" stroke-linejoin="round" stroke-miterlimit="10" x1="195" y1="26.25" x2="195" y2="23.437"/>
		
			<line fill="none" stroke="#010101" stroke-linecap="round" stroke-linejoin="round" stroke-miterlimit="10" x1="200.625" y1="26.25" x2="200.625" y2="23.437"/>
	</g>
</g>
<g>
	<rect x="240" fill="none" width="30" height="30"/>
	<path fill="#FFFFFF" stroke="#010101" stroke-linecap="round" stroke-linejoin="round" stroke-miterlimit="10" d="M258.77,19.219
		h4.668c2.588,0,4.688-2.1,4.688-4.688c0-2.588-2.101-4.688-4.688-4.688c0-4.142-3.356-7.5-7.5-7.5c-3.537,0-6.492,2.45-7.283,5.744
		c-0.373-0.078-0.76-0.118-1.152-0.118c-3.105,0-5.625,2.519-5.625,5.625s2.52,5.625,5.625,5.625h3.77"/>
	
		<line fill="none" stroke="#010101" stroke-linecap="round" stroke-linejoin="round" stroke-miterlimit="10" x1="247.5" y1="25.102" x2="249.104" y2="21.711"/>
	
		<line fill="none" stroke="#010101" stroke-linecap="round" stroke-linejoin="round" stroke-miterlimit="10" x1="260.625" y1="25.102" x2="262.227" y2="21.711"/>
	<polygon fill="#FFE168" stroke="#010101" stroke-linecap="round" stroke-linejoin="round" stroke-miterlimit="10" points="
		257.813,21.238 255.027,21.238 255,21.238 255,17.227 252.188,23.644 254.971,23.644 255,23.644 255,27.656 	"/>
</g>
<g>
	<rect x="210" fill="none" width="30" height="30"/>
	<path fill="#FFFFFF" stroke="#010101" stroke-linecap="round" stroke-linejoin="round" stroke-miterlimit="10" d="M228.77,19.219
		h4.668c2.588,0,4.688-2.1,4.688-4.688c0-2.588-2.101-4.688-4.688-4.688c0-4.142-3.356-7.5-7.5-7.5c-3.537,0-6.492,2.45-7.283,5.744
		c-0.373-0.078-0.76-0.118-1.152-0.118c-3.105,0-5.625,2.519-5.625,5.625s2.52,5.625,5.625,5.625h3.77"/>
	<polygon fill="#FFE168" stroke="#010101" stroke-linecap="round" stroke-linejoin="round" stroke-miterlimit="10" points="
		227.813,21.238 225.027,21.238 225,21.238 225,17.227 222.188,23.644 224.971,23.644 225,23.644 225,27.656 	"/>
</g>
<g>
	<rect x="270" fill="none" width="30" height="30"/>
	<g>
		<path fill="#FFFFFF" stroke="#010101" stroke-linecap="round" stroke-linejoin="round" stroke-miterlimit="10" d="M293.438,10.781
			c0-4.142-3.356-7.5-7.5-7.5c-3.537,0-6.494,2.45-7.285,5.744c-0.371-0.078-0.758-0.118-1.15-0.118
			c-3.105,0-5.625,2.52-5.625,5.625c0,3.107,2.52,5.625,5.625,5.625h15.938c2.588,0,4.688-2.098,4.688-4.687
			C298.125,12.881,296.025,10.781,293.438,10.781z"/>
		
			<circle fill="#FFFFFF" stroke="#010101" stroke-linecap="round" stroke-linejoin="round" stroke-miterlimit="10" cx="285" cy="25.781" r="0.937"/>
		
			<circle fill="#FFFFFF" stroke="#010101" stroke-linecap="round" stroke-linejoin="round" stroke-miterlimit="10" cx="279.375" cy="23.906" r="0.937"/>
		
			<circle fill="#FFFFFF" stroke="#010101" stroke-linecap="round" stroke-linejoin="round" stroke-miterlimit="10" cx="290.625" cy="22.969" r="0.937"/>
	</g>
</g>
<g>
	<rect x="300" fill="none" width="30" height="30"/>
	<g>
		
			<path fill="#FFFFFF" stroke="#010101" stroke-width="1.6216" stroke-linecap="round" stroke-linejoin="round" stroke-miterlimit="10" d="
			M318.77,19.219h4.67c2.588,0,4.687-2.1,4.687-4.688c0-2.588-2.099-4.688-4.687-4.688c0-4.142-3.358-7.5-7.502-7.5
			c-3.537,0-6.492,2.45-7.283,5.744c-0.375-0.078-0.76-0.118-1.154-0.118c-3.105,0-5.625,2.519-5.625,5.625s2.518,5.625,5.625,5.625
			h3.77"/>
		
			<polygon fill="#FFE168" stroke="#010101" stroke-width="1.6216" stroke-linecap="round" stroke-linejoin="round" stroke-miterlimit="10" points="
			317.813,21.238 315.027,21.238 315,21.238 315,17.227 312.188,23.644 314.971,23.644 315,23.644 315,27.656 		"/>
	</g>
	
		<circle fill="#FFFFFF" stroke="#010101" stroke-width="1.6216" stroke-linecap="round" stroke-linejoin="round" stroke-miterlimit="10" cx="308.438" cy="22.969" r="0.937"/>
	
		<circle fill="#FFFFFF" stroke="#010101" stroke-width="1.6216" stroke-linecap="round" stroke-linejoin="round" stroke-miterlimit="10" cx="321.563" cy="22.031" r="0.937"/>
</g>
<g>
	<rect x="30" y="30" fill="none" width="30" height="30"/>
	<path fill="#ECECEC" stroke="#010101" stroke-miterlimit="10" d="M54.917,45c1.466-1.639,1.79-4.088,0.632-6.094
		c-1.157-2.008-3.443-2.951-5.59-2.5c-0.685-2.088-2.645-3.596-4.961-3.596c-2.314,0-4.275,1.51-4.959,3.596
		c-2.148-0.451-4.433,0.492-5.592,2.5C33.29,40.91,33.616,43.361,35.08,45c-1.465,1.639-1.79,4.09-0.633,6.094
		c1.157,2.008,3.444,2.949,5.592,2.499c0.686,2.093,2.645,3.597,4.959,3.595c2.316,0.002,4.276-1.508,4.959-3.595
		c2.149,0.45,4.434-0.491,5.592-2.499C56.708,49.09,56.382,46.639,54.917,45z"/>
	<circle fill="#010101" cx="41.523" cy="44.285" r="0.922"/>
	<circle fill="#010101" cx="48.475" cy="44.285" r="0.922"/>
	<g>
		<path fill="none" stroke="#010101" stroke-linecap="round" stroke-linejoin="round" stroke-miterlimit="10" d="M47.622,48.512
			c-0.797-0.295-1.655-0.469-2.553-0.469c-0.9,0-1.756,0.171-2.553,0.469"/>
	</g>
</g>
<g>
	<g>
		<rect y="30" fill="none" width="30" height="30"/>
		<path fill="#FFFFFF" stroke="#010101" stroke-linecap="round" stroke-linejoin="round" stroke-miterlimit="10" d="M24.918,45.469
			c1.466-1.638,1.792-4.087,0.632-6.094c-1.155-2.007-3.443-2.949-5.59-2.499c-0.686-2.086-2.645-3.595-4.961-3.595
			c-2.314,0-4.273,1.509-4.959,3.595c-2.148-0.45-4.433,0.493-5.592,2.499c-1.155,2.006-0.831,4.456,0.633,6.094
			c-1.465,1.639-1.791,4.092-0.633,6.096c1.158,2.004,3.444,2.951,5.592,2.498c0.686,2.088,2.646,3.596,4.96,3.596
			c2.316,0.003,4.277-1.508,4.959-3.596c2.149,0.453,4.436-0.492,5.592-2.498C26.71,49.559,26.384,47.105,24.918,45.469z"/>
	</g>
	<circle fill="#010101" cx="11.525" cy="44.756" r="0.922"/>
	<circle fill="#010101" cx="18.478" cy="44.756" r="0.922"/>
	<g>
		<path fill="none" stroke="#010101" stroke-linecap="round" stroke-linejoin="round" stroke-miterlimit="10" d="M11.23,47.578
			c0.575,1.525,2.041,2.621,3.771,2.621c1.728,0,3.193-1.096,3.769-2.621"/>
	</g>
</g>
<g>
	<rect x="90" y="30" fill="none" width="30" height="30"/>
	<g>
		<path fill="#A7A6A6" stroke="#010101" stroke-miterlimit="10" d="M114.918,45c1.465-1.639,1.79-4.088,0.632-6.094
			c-1.157-2.008-3.443-2.949-5.591-2.498c-0.686-2.092-2.645-3.598-4.962-3.598c-2.314,0-4.273,1.51-4.959,3.598
			c-2.148-0.451-4.433,0.49-5.592,2.498c-1.157,2.004-0.831,4.455,0.635,6.094c-1.466,1.639-1.792,4.09-0.635,6.094
			c1.157,2.008,3.444,2.951,5.592,2.5c0.686,2.092,2.645,3.596,4.959,3.594c2.317,0.002,4.276-1.506,4.959-3.594
			c2.15,0.451,4.435-0.492,5.594-2.5C116.709,49.09,116.383,46.639,114.918,45z"/>
		<g>
			<path fill="#A7A6A6" stroke="#010101" stroke-linecap="round" stroke-linejoin="round" stroke-miterlimit="10" d="
				M103.002,44.018c-0.563,1.068-1.884,1.479-2.953,0.916c-1.07-0.563-1.479-1.889-0.918-2.953L103.002,44.018z"/>
			<path fill="#A7A6A6" stroke="#010101" stroke-linecap="round" stroke-linejoin="round" stroke-miterlimit="10" d="
				M106.998,44.018c0.561,1.068,1.882,1.479,2.952,0.916c1.07-0.563,1.482-1.889,0.918-2.953L106.998,44.018z"/>
		</g>
		<path fill="#A7A6A6" stroke="#010101" stroke-linecap="round" stroke-linejoin="round" stroke-miterlimit="10" d="M108.959,49.33
			c-0.603-1.529-2.141-2.623-3.96-2.623c-1.816,0-3.354,1.096-3.958,2.623"/>
	</g>
</g>
<g>
	<rect x="60" y="30" fill="none" width="30" height="30"/>
	<path fill="#D1D2D2" stroke="#010101" stroke-miterlimit="10" d="M84.919,45c1.466-1.639,1.789-4.088,0.632-6.094
		c-1.157-2.008-3.445-2.949-5.593-2.498c-0.683-2.092-2.645-3.598-4.959-3.598s-4.275,1.51-4.96,3.598
		c-2.148-0.451-4.433,0.49-5.591,2.498C63.29,40.91,63.619,43.361,65.083,45c-1.465,1.639-1.788,4.09-0.632,6.094
		c1.156,2.008,3.444,2.951,5.591,2.5c0.686,2.092,2.645,3.596,4.96,3.594c2.314,0.002,4.277-1.506,4.959-3.594
		c2.149,0.451,4.434-0.492,5.593-2.5C86.709,49.09,86.382,46.639,84.919,45z"/>
	<g>
		<g>
			<g>
				<path fill="none" stroke="#010101" stroke-linecap="round" stroke-linejoin="round" stroke-miterlimit="10" d="M77.142,43.514
					c0.273,0.582,0.96,0.996,1.776,0.996c0.815,0,1.501-0.414,1.774-0.996"/>
			</g>
			<g>
				<path fill="none" stroke="#010101" stroke-linecap="round" stroke-linejoin="round" stroke-miterlimit="10" d="M69.309,43.514
					c0.275,0.582,0.96,0.996,1.778,0.996c0.814,0,1.501-0.414,1.774-0.996"/>
			</g>
		</g>
	</g>
	<path fill="none" stroke="#010101" stroke-linecap="round" stroke-linejoin="round" stroke-miterlimit="10" d="M78.96,49.33
		c-0.604-1.529-2.144-2.623-3.96-2.623s-3.354,1.096-3.959,2.623"/>
</g>
</svg>
