<?xml version="1.0" encoding="utf-8"?>
<!-- Generator: Adobe Illustrator 16.0.0, SVG Export Plug-In . SVG Version: 6.00 Build 0)  -->
<!DOCTYPE svg PUBLIC "-//W3C//DTD SVG 1.1//EN" "http://www.w3.org/Graphics/SVG/1.1/DTD/svg11.dtd">
<svg version="1.1" id="Layer_1" xmlns="http://www.w3.org/2000/svg" xmlns:xlink="http://www.w3.org/1999/xlink" x="0px" y="0px"
	 width="220px" height="40px" viewBox="0 0 220 40" enable-background="new 0 0 220 40" xml:space="preserve">
<g>
	<rect fill="none" width="20" height="20"/>
	<g>
		<circle fill="none" stroke="#082C18" stroke-linecap="round" stroke-miterlimit="10" cx="10" cy="10" r="4.375"/>
		<line fill="none" stroke="#082C18" stroke-linecap="round" stroke-miterlimit="10" x1="10" y1="3.125" x2="10" y2="1.25"/>
		<line fill="none" stroke="#082C18" stroke-linecap="round" stroke-miterlimit="10" x1="5.138" y1="5.139" x2="3.813" y2="3.813"/>
		<line fill="none" stroke="#082C18" stroke-linecap="round" stroke-miterlimit="10" x1="3.125" y1="10" x2="1.25" y2="10"/>
		
			<line fill="none" stroke="#082C18" stroke-linecap="round" stroke-miterlimit="10" x1="5.138" y1="14.861" x2="3.813" y2="16.187"/>
		<line fill="none" stroke="#082C18" stroke-linecap="round" stroke-miterlimit="10" x1="10" y1="16.875" x2="10" y2="18.751"/>
		
			<line fill="none" stroke="#082C18" stroke-linecap="round" stroke-miterlimit="10" x1="14.86" y1="14.861" x2="16.186" y2="16.187"/>
		<line fill="none" stroke="#082C18" stroke-linecap="round" stroke-miterlimit="10" x1="16.875" y1="10" x2="18.75" y2="10"/>
		
			<line fill="none" stroke="#082C18" stroke-linecap="round" stroke-miterlimit="10" x1="14.86" y1="5.139" x2="16.186" y2="3.813"/>
	</g>
</g>
<g>
	<rect x="20" fill="none" width="20" height="20"/>
	<path fill="none" stroke="#082C18" stroke-linecap="round" stroke-linejoin="round" stroke-miterlimit="10" d="M35.625,9.376
		c0-2.762-2.239-5-5-5c-2.358,0-4.329,1.633-4.857,3.829c-0.247-0.053-0.505-0.08-0.768-0.08c-2.071,0-3.75,1.68-3.75,3.75
		s1.679,3.75,3.75,3.75h10.625c1.725,0,3.125-1.399,3.125-3.125C38.75,10.776,37.351,9.376,35.625,9.376z"/>
</g>
<g>
	<rect x="100" fill="none" width="20" height="20"/>
	<g>
		
			<line fill="none" stroke="#082C18" stroke-linecap="round" stroke-miterlimit="10" x1="107.377" y1="4.844" x2="107.377" y2="3.593"/>
		
			<line fill="none" stroke="#082C18" stroke-linecap="round" stroke-miterlimit="10" x1="104.055" y1="6.201" x2="103.172" y2="5.317"/>
		
			<line fill="none" stroke="#082C18" stroke-linecap="round" stroke-miterlimit="10" x1="102.667" y1="9.509" x2="101.417" y2="9.509"/>
		
			<line fill="none" stroke="#082C18" stroke-linecap="round" stroke-miterlimit="10" x1="104.024" y1="12.829" x2="103.141" y2="13.714"/>
		
			<line fill="none" stroke="#082C18" stroke-linecap="round" stroke-miterlimit="10" x1="110.684" y1="6.233" x2="111.568" y2="5.349"/>
		<path fill="none" stroke="#082C18" stroke-linecap="round" stroke-linejoin="round" stroke-miterlimit="10" d="M107.645,10.78
			c0.238,0,0.466,0.039,0.689,0.096c0.182-1.025,0.771-1.902,1.588-2.486c-0.438-0.982-1.42-1.672-2.566-1.672
			c-1.553,0-2.813,1.259-2.813,2.813c0,0.877,0.41,1.65,1.037,2.166C106.094,11.138,106.825,10.78,107.645,10.78z"/>
		<path fill="none" stroke="#082C18" stroke-linecap="round" stroke-linejoin="round" stroke-miterlimit="10" d="M116.082,11.407
			c-0.004,0-0.006,0-0.008,0c-0.082-2.084-1.793-3.75-3.898-3.75c-0.846,0-1.617,0.28-2.256,0.735
			c-0.814,0.582-1.404,1.459-1.588,2.485c-0.221-0.056-0.449-0.095-0.687-0.095c-0.82,0-1.551,0.355-2.064,0.916
			c-0.461,0.5-0.748,1.162-0.748,1.896c0,1.553,1.258,2.813,2.813,2.813h8.437c1.379,0,2.5-1.119,2.5-2.5
			C118.583,12.526,117.463,11.407,116.082,11.407z"/>
	</g>
</g>
<g>
	<rect x="40" fill="none" width="20" height="20"/>
	<path fill="none" stroke="#082C18" stroke-linecap="round" stroke-linejoin="round" stroke-miterlimit="10" d="M49.035,6.853
		c0-0.881,0.208-1.712,0.57-2.455c-2.785,0.336-4.945,2.703-4.945,5.58c0,3.107,2.518,5.625,5.625,5.625
		c2.225,0,4.142-1.295,5.055-3.17c-0.223,0.027-0.449,0.045-0.68,0.045C51.553,12.478,49.035,9.96,49.035,6.853z"/>
</g>
<g>
	<rect x="80" fill="none" width="20" height="20"/>
	<g>
		<path fill="none" stroke="#082C18" stroke-linecap="round" stroke-linejoin="round" stroke-miterlimit="10" d="M86.38,9.954
			c0.24,0,0.468,0.041,0.689,0.096c0.217-1.221,1.004-2.233,2.072-2.781c-0.244-1.495-1.448-2.666-2.962-2.849
			c0.22,0.452,0.347,0.959,0.347,1.496c0,1.894-1.535,3.429-3.429,3.429c-0.141,0-0.279-0.012-0.415-0.027
			c0.338,0.695,0.904,1.256,1.601,1.592C84.798,10.328,85.542,9.954,86.38,9.954z"/>
		<path fill="none" stroke="#082C18" stroke-linecap="round" stroke-linejoin="round" stroke-miterlimit="10" d="M94.817,10.579
			c-0.002,0-0.005,0.002-0.008,0.002c-0.082-2.086-1.793-3.751-3.898-3.751c-0.641,0-1.238,0.166-1.77,0.439
			c-1.068,0.548-1.855,1.561-2.072,2.782c-0.222-0.056-0.45-0.096-0.689-0.096c-0.837,0-1.582,0.374-2.097,0.955
			c-0.44,0.497-0.716,1.142-0.716,1.858c0,1.553,1.259,2.813,2.813,2.813h8.438c1.381,0,2.5-1.119,2.5-2.5
			S96.198,10.579,94.817,10.579z"/>
	</g>
</g>
<g>
	<rect x="60" fill="none" width="20" height="20"/>
	<g>
		<path fill="none" stroke="#082C18" stroke-linecap="round" stroke-linejoin="round" stroke-miterlimit="10" d="M75.625,7.48
			c0-2.761-2.239-5-5-5c-2.358,0-4.329,1.633-4.857,3.83C65.52,6.257,65.263,6.23,65,6.23c-2.071,0-3.75,1.679-3.75,3.75
			s1.679,3.751,3.75,3.751h10.625c1.725,0,3.125-1.398,3.125-3.125C78.75,8.88,77.351,7.48,75.625,7.48z"/>
		<g>
			
				<line fill="none" stroke="#082C18" stroke-linecap="round" stroke-linejoin="round" stroke-miterlimit="10" x1="65" y1="17.521" x2="66.606" y2="15.604"/>
			
				<line fill="none" stroke="#082C18" stroke-linecap="round" stroke-linejoin="round" stroke-miterlimit="10" x1="68.75" y1="17.521" x2="70.356" y2="15.604"/>
			
				<line fill="none" stroke="#082C18" stroke-linecap="round" stroke-linejoin="round" stroke-miterlimit="10" x1="72.5" y1="17.521" x2="74.106" y2="15.604"/>
		</g>
	</g>
</g>
<g>
	<rect x="120" fill="none" width="20" height="20"/>
	<g>
		<path fill="none" stroke="#082C18" stroke-linecap="round" stroke-linejoin="round" stroke-miterlimit="10" d="M135.625,7.5
			c0-2.761-2.238-5-5-5c-2.357,0-4.328,1.633-4.857,3.829C125.521,6.277,125.264,6.25,125,6.25c-2.07,0-3.75,1.679-3.75,3.75
			c0,2.07,1.678,3.75,3.75,3.75h10.625c1.725,0,3.125-1.399,3.125-3.125S137.352,7.5,135.625,7.5z"/>
		
			<line fill="none" stroke="#082C18" stroke-linecap="round" stroke-linejoin="round" stroke-miterlimit="10" x1="126.25" y1="17.5" x2="126.25" y2="15.624"/>
		
			<line fill="none" stroke="#082C18" stroke-linecap="round" stroke-linejoin="round" stroke-miterlimit="10" x1="130" y1="17.5" x2="130" y2="15.624"/>
		
			<line fill="none" stroke="#082C18" stroke-linecap="round" stroke-linejoin="round" stroke-miterlimit="10" x1="133.75" y1="17.5" x2="133.75" y2="15.624"/>
	</g>
</g>
<g>
	<rect x="160" fill="none" width="20" height="20"/>
	<g>
		<path fill="none" stroke="#082C18" stroke-linecap="round" stroke-linejoin="round" stroke-miterlimit="10" d="M172.512,12.813
			h3.113c1.725,0,3.125-1.399,3.125-3.125s-1.4-3.125-3.125-3.125c0-2.761-2.24-5-5-5c-2.359,0-4.33,1.633-4.857,3.829
			C165.52,5.34,165.262,5.313,165,5.313c-2.072,0-3.75,1.68-3.75,3.75s1.678,3.75,3.75,3.75h2.512"/>
		
			<line fill="none" stroke="#082C18" stroke-linecap="round" stroke-linejoin="round" stroke-miterlimit="10" x1="165" y1="16.734" x2="166.068" y2="14.474"/>
		
			<line fill="none" stroke="#082C18" stroke-linecap="round" stroke-linejoin="round" stroke-miterlimit="10" x1="173.75" y1="16.734" x2="174.816" y2="14.474"/>
		<polygon fill="none" stroke="#082C18" stroke-linecap="round" stroke-linejoin="round" stroke-miterlimit="10" points="
			171.875,14.159 170.018,14.159 170,14.159 170,11.484 168.125,15.763 169.98,15.763 170,15.763 170,18.437 		"/>
	</g>
</g>
<g>
	<rect x="140" fill="none" width="20" height="20"/>
	<g>
		<path fill="none" stroke="#082C18" stroke-linecap="round" stroke-linejoin="round" stroke-miterlimit="10" d="M152.514,12.813
			h3.111c1.727,0,3.125-1.399,3.125-3.125s-1.398-3.125-3.125-3.125c0-2.761-2.238-5-5-5c-2.357,0-4.328,1.633-4.855,3.829
			c-0.25-0.052-0.506-0.079-0.77-0.079c-2.07,0-3.75,1.68-3.75,3.75s1.68,3.75,3.75,3.75h2.514"/>
		<polygon fill="none" stroke="#082C18" stroke-linecap="round" stroke-linejoin="round" stroke-miterlimit="10" points="
			151.875,14.159 150.02,14.159 150,14.159 150,11.484 148.125,15.763 149.98,15.763 150,15.763 150,18.437 		"/>
	</g>
</g>
<g>
	<rect x="180" fill="none" width="20" height="20"/>
	<g>
		<path fill="none" stroke="#082C18" stroke-linecap="round" stroke-linejoin="round" stroke-miterlimit="10" d="M195.625,7.188
			c0-2.761-2.24-5-5-5c-2.357,0-4.33,1.633-4.857,3.829c-0.248-0.052-0.506-0.079-0.768-0.079c-2.07,0-3.75,1.679-3.75,3.75
			c0,2.07,1.678,3.75,3.75,3.75h10.625c1.725,0,3.125-1.398,3.125-3.125S197.352,7.188,195.625,7.188z"/>
		
			<circle fill="none" stroke="#082C18" stroke-linecap="round" stroke-linejoin="round" stroke-miterlimit="10" cx="190" cy="17.188" r="0.625"/>
		
			<circle fill="none" stroke="#082C18" stroke-linecap="round" stroke-linejoin="round" stroke-miterlimit="10" cx="186.25" cy="15.937" r="0.625"/>
		
			<circle fill="none" stroke="#082C18" stroke-linecap="round" stroke-linejoin="round" stroke-miterlimit="10" cx="193.75" cy="15.312" r="0.625"/>
	</g>
</g>
<g>
	<rect x="200" fill="none" width="20" height="20"/>
	<g>
		<path fill="none" stroke="#082C18" stroke-linecap="round" stroke-linejoin="round" stroke-miterlimit="10" d="M212.514,12.813
			h3.111c1.725,0,3.125-1.399,3.125-3.125s-1.4-3.125-3.125-3.125c0-2.761-2.238-5-5-5c-2.357,0-4.328,1.633-4.857,3.829
			C205.52,5.34,205.264,5.313,205,5.313c-2.07,0-3.75,1.68-3.75,3.75s1.68,3.75,3.75,3.75h2.514"/>
		<polygon fill="none" stroke="#082C18" stroke-linecap="round" stroke-linejoin="round" stroke-miterlimit="10" points="
			211.875,14.159 210.02,14.159 210,14.159 210,11.484 208.125,15.763 209.98,15.763 210,15.763 210,18.437 		"/>
		
			<circle fill="none" stroke="#082C18" stroke-linecap="round" stroke-linejoin="round" stroke-miterlimit="10" cx="205.625" cy="15.312" r="0.625"/>
		
			<circle fill="none" stroke="#082C18" stroke-linecap="round" stroke-linejoin="round" stroke-miterlimit="10" cx="214.375" cy="14.688" r="0.625"/>
	</g>
</g>
<g>
	<rect x="20" y="20" fill="none" width="20" height="20"/>
	<path fill="none" stroke="#082C18" stroke-miterlimit="10" d="M36.612,30c0.977-1.092,1.193-2.725,0.421-4.063
		c-0.771-1.338-2.295-1.967-3.727-1.666c-0.456-1.394-1.763-2.396-3.307-2.396c-1.543,0-2.85,1.006-3.306,2.396
		c-1.432-0.301-2.955,0.328-3.728,1.666c-0.771,1.336-0.554,2.971,0.422,4.063c-0.977,1.092-1.193,2.727-0.422,4.063
		c0.771,1.338,2.296,1.967,3.728,1.666c0.457,1.396,1.763,2.397,3.306,2.396c1.544,0.001,2.851-1.005,3.306-2.396
		c1.433,0.301,2.956-0.328,3.728-1.666C37.805,32.727,37.588,31.092,36.612,30z"/>
	<circle fill="#082C18" cx="27.682" cy="29.524" r="0.615"/>
	<circle fill="#082C18" cx="32.317" cy="29.524" r="0.615"/>
	<g>
		<path fill="none" stroke="#082C18" stroke-linecap="round" stroke-linejoin="round" stroke-miterlimit="10" d="M31.748,32.341
			c-0.531-0.196-1.103-0.312-1.702-0.312c-0.6,0-1.171,0.113-1.702,0.312"/>
	</g>
</g>
<g>
	<rect x="60" y="20" fill="none" width="20" height="20"/>
	<g>
		<path fill="none" stroke="#082C18" stroke-miterlimit="10" d="M76.612,30c0.977-1.092,1.193-2.725,0.421-4.063
			c-0.771-1.338-2.295-1.967-3.727-1.666c-0.457-1.394-1.763-2.396-3.308-2.396c-1.543,0-2.849,1.006-3.306,2.396
			c-1.432-0.301-2.955,0.328-3.728,1.666c-0.771,1.336-0.554,2.971,0.423,4.063c-0.977,1.092-1.194,2.727-0.423,4.063
			c0.771,1.338,2.296,1.967,3.728,1.666c0.457,1.396,1.763,2.397,3.306,2.396c1.545,0.001,2.851-1.005,3.306-2.396
			c1.434,0.301,2.957-0.328,3.729-1.666C77.806,32.727,77.589,31.092,76.612,30z"/>
		<g>
			<path fill="none" stroke="#082C18" stroke-linecap="round" stroke-linejoin="round" stroke-miterlimit="10" d="M68.668,29.344
				c-0.375,0.713-1.256,0.986-1.969,0.611c-0.713-0.375-0.986-1.258-0.612-1.969L68.668,29.344z"/>
			<path fill="none" stroke="#082C18" stroke-linecap="round" stroke-linejoin="round" stroke-miterlimit="10" d="M71.332,29.344
				c0.374,0.713,1.255,0.986,1.968,0.611c0.713-0.375,0.988-1.258,0.612-1.969L71.332,29.344z"/>
		</g>
		<path fill="none" stroke="#082C18" stroke-linecap="round" stroke-linejoin="round" stroke-miterlimit="10" d="M72.639,32.887
			c-0.401-1.02-1.427-1.748-2.64-1.748c-1.211,0-2.236,0.729-2.638,1.748"/>
	</g>
</g>
<g>
	<rect x="40" y="20" fill="none" width="20" height="20"/>
	<path fill="none" stroke="#082C18" stroke-miterlimit="10" d="M56.613,30c0.977-1.092,1.192-2.725,0.421-4.063
		s-2.296-1.967-3.729-1.666c-0.455-1.394-1.763-2.396-3.306-2.396s-2.85,1.006-3.307,2.396c-1.432-0.301-2.955,0.328-3.727,1.666
		c-0.772,1.336-0.553,2.971,0.423,4.063c-0.977,1.092-1.192,2.727-0.421,4.063c0.771,1.338,2.296,1.967,3.727,1.666
		c0.457,1.396,1.763,2.397,3.307,2.396c1.543,0.001,2.851-1.005,3.306-2.396c1.433,0.301,2.956-0.328,3.729-1.666
		C57.806,32.727,57.588,31.092,56.613,30z"/>
	<g>
		<g>
			<g>
				<path fill="none" stroke="#082C18" stroke-linecap="round" stroke-linejoin="round" stroke-miterlimit="10" d="M51.428,29.008
					c0.182,0.389,0.64,0.665,1.184,0.665c0.543,0,1.001-0.276,1.183-0.665"/>
			</g>
			<g>
				<path fill="none" stroke="#082C18" stroke-linecap="round" stroke-linejoin="round" stroke-miterlimit="10" d="M46.206,29.008
					c0.183,0.389,0.64,0.665,1.185,0.665c0.543,0,1.001-0.276,1.183-0.665"/>
			</g>
		</g>
	</g>
	<path fill="none" stroke="#082C18" stroke-linecap="round" stroke-linejoin="round" stroke-miterlimit="10" d="M52.64,32.887
		c-0.403-1.02-1.429-1.748-2.64-1.748s-2.236,0.729-2.639,1.748"/>
</g>
<g>
	<rect y="20" fill="none" width="20" height="20"/>
	<path fill="none" stroke="#082C18" stroke-linecap="round" stroke-linejoin="round" stroke-miterlimit="10" d="M16.612,30.313
		c0.977-1.092,1.194-2.725,0.421-4.063c-0.77-1.338-2.295-1.966-3.727-1.666c-0.457-1.391-1.763-2.396-3.307-2.396
		c-1.543,0-2.849,1.006-3.306,2.396c-1.432-0.3-2.955,0.329-3.728,1.666c-0.77,1.337-0.554,2.971,0.422,4.063
		c-0.977,1.092-1.194,2.729-0.422,4.063s2.296,1.967,3.728,1.666C7.15,37.434,8.457,38.438,10,38.438
		c1.544,0.002,2.851-1.004,3.306-2.396c1.433,0.301,2.957-0.328,3.728-1.666C17.806,33.039,17.589,31.404,16.612,30.313z"/>
	<circle fill="#082C18" cx="7.683" cy="29.837" r="0.615"/>
	<circle fill="#082C18" cx="12.318" cy="29.837" r="0.615"/>
	<g>
		<path fill="none" stroke="#082C18" stroke-linecap="round" stroke-linejoin="round" stroke-miterlimit="10" d="M7.487,31.718
			c0.383,1.019,1.36,1.748,2.514,1.748c1.152,0,2.129-0.729,2.512-1.748"/>
	</g>
</g>
<g>
	<rect x="80" y="20" fill="none" width="20" height="20"/>
	<g>
		<path fill="none" stroke="#082C18" stroke-linecap="round" stroke-miterlimit="10" d="M94.375,33.438
			c0-2.416-1.958-4.375-4.375-4.375s-4.375,1.959-4.375,4.375"/>
		<line fill="none" stroke="#082C18" stroke-linecap="round" stroke-miterlimit="10" x1="90" y1="27.188" x2="90" y2="25.313"/>
		
			<line fill="none" stroke="#082C18" stroke-linecap="round" stroke-miterlimit="10" x1="85.581" y1="29.02" x2="84.255" y2="27.693"/>
		
			<line fill="none" stroke="#082C18" stroke-linecap="round" stroke-miterlimit="10" x1="83.75" y1="32.188" x2="81.875" y2="32.188"/>
		
			<line fill="none" stroke="#082C18" stroke-linecap="round" stroke-miterlimit="10" x1="96.25" y1="32.188" x2="98.125" y2="32.188"/>
		
			<line fill="none" stroke="#082C18" stroke-linecap="round" stroke-miterlimit="10" x1="94.419" y1="29.018" x2="95.745" y2="27.693"/>
		
			<line fill="none" stroke="#082C18" stroke-linecap="round" stroke-miterlimit="10" x1="81.25" y1="34.688" x2="98.75" y2="34.688"/>
	</g>
</g>
<g>
	<rect x="100" y="20" fill="none" width="20" height="20"/>
	<g>
		<path fill="none" stroke="#082C18" stroke-linecap="round" stroke-miterlimit="10" d="M105.625,26.563
			c0,2.416,1.959,4.375,4.375,4.375s4.375-1.959,4.375-4.375"/>
		<line fill="none" stroke="#082C18" stroke-linecap="round" stroke-miterlimit="10" x1="110" y1="32.813" x2="110" y2="34.688"/>
		
			<line fill="none" stroke="#082C18" stroke-linecap="round" stroke-miterlimit="10" x1="114.419" y1="30.98" x2="115.744" y2="32.307"/>
		
			<line fill="none" stroke="#082C18" stroke-linecap="round" stroke-miterlimit="10" x1="116.251" y1="27.813" x2="118.125" y2="27.813"/>
		
			<line fill="none" stroke="#082C18" stroke-linecap="round" stroke-miterlimit="10" x1="103.75" y1="27.813" x2="101.875" y2="27.813"/>
		
			<line fill="none" stroke="#082C18" stroke-linecap="round" stroke-miterlimit="10" x1="105.58" y1="30.982" x2="104.255" y2="32.307"/>
		
			<line fill="none" stroke="#082C18" stroke-linecap="round" stroke-miterlimit="10" x1="118.75" y1="25.313" x2="101.25" y2="25.313"/>
	</g>
</g>
<g>
	<g>
	</g>
	<g>
		<g>
			
				<line fill="none" stroke="#082C18" stroke-linecap="round" stroke-linejoin="round" stroke-miterlimit="10" x1="126.951" y1="24.448" x2="132.793" y2="24.448"/>
			
				<ellipse fill="none" stroke="#082C18" stroke-linecap="round" stroke-linejoin="round" stroke-miterlimit="10" cx="135.119" cy="24.448" rx="0.324" ry="0.332"/>
			
				<ellipse fill="none" stroke="#082C18" stroke-linecap="round" stroke-linejoin="round" stroke-miterlimit="10" cx="124.772" cy="24.448" rx="0.325" ry="0.332"/>
		</g>
		<g>
			
				<ellipse fill="none" stroke="#082C18" stroke-linecap="round" stroke-linejoin="round" stroke-miterlimit="10" cx="122.324" cy="28.149" rx="0.324" ry="0.334"/>
			
				<line fill="none" stroke="#082C18" stroke-linecap="round" stroke-linejoin="round" stroke-miterlimit="10" x1="124.52" y1="28.149" x2="130.363" y2="28.149"/>
			
				<line fill="none" stroke="#082C18" stroke-linecap="round" stroke-linejoin="round" stroke-miterlimit="10" x1="135.078" y1="28.149" x2="137.675" y2="28.149"/>
			
				<ellipse fill="none" stroke="#082C18" stroke-linecap="round" stroke-linejoin="round" stroke-miterlimit="10" cx="132.786" cy="28.149" rx="0.325" ry="0.334"/>
		</g>
		<g>
			
				<line fill="none" stroke="#082C18" stroke-linecap="round" stroke-linejoin="round" stroke-miterlimit="10" x1="122.324" y1="31.851" x2="124.921" y2="31.851"/>
			
				<ellipse fill="none" stroke="#082C18" stroke-linecap="round" stroke-linejoin="round" stroke-miterlimit="10" cx="127.194" cy="31.851" rx="0.325" ry="0.333"/>
			
				<line fill="none" stroke="#082C18" stroke-linecap="round" stroke-linejoin="round" stroke-miterlimit="10" x1="129.437" y1="31.851" x2="135.279" y2="31.851"/>
			
				<ellipse fill="none" stroke="#082C18" stroke-linecap="round" stroke-linejoin="round" stroke-miterlimit="10" cx="137.675" cy="31.851" rx="0.325" ry="0.333"/>
		</g>
		<g>
			
				<ellipse fill="none" stroke="#082C18" stroke-linecap="round" stroke-linejoin="round" stroke-miterlimit="10" cx="125.226" cy="35.552" rx="0.325" ry="0.334"/>
			
				<line fill="none" stroke="#082C18" stroke-linecap="round" stroke-linejoin="round" stroke-miterlimit="10" x1="127.579" y1="35.552" x2="132.529" y2="35.552"/>
			
				<ellipse fill="none" stroke="#082C18" stroke-linecap="round" stroke-linejoin="round" stroke-miterlimit="10" cx="134.881" cy="35.552" rx="0.325" ry="0.334"/>
		</g>
	</g>
</g>
</svg>
