<svg width="57" height="30" viewBox="0 0 57 30" fill="none" xmlns="http://www.w3.org/2000/svg">
<path d="M27.7351 7.39187C27.0249 6.51718 25.8807 5.92021 24.8863 5.99188C22.7158 6.12382 22.2549 7.31857 21.4698 8.94741C20.5902 10.6886 19.0615 12.1098 17.1835 12.8013C15.9635 13.259 14.6205 13.3844 13.3646 13.1612C11.6014 12.8583 10.0646 11.9608 8.72814 10.2521C7.85834 9.03373 6.36143 8.70879 6.49499 8.75032C5.90372 8.56463 5.57551 7.9351 5.7612 7.34464C5.88743 6.93988 6.22459 6.65809 6.61307 6.57991C8.11324 6.28264 9.79259 6.597 11.2773 7.68425C12.1292 8.32276 13.0665 8.55079 13.8337 8.48075C16.141 8.25597 16.4065 6.03424 16.7551 5.298C17.2901 4.01447 18.12 3.03391 19.0192 2.20157C21.5878 -0.0193581 24.712 -0.209114 26.2903 0.134572C30.3567 0.839047 33.2333 4.33047 33.5598 7.91311C33.7952 12.3721 31.0669 15.2991 28.1407 16.1754C27.0746 16.4995 25.9556 16.5606 24.931 16.3481C24.3227 16.2218 23.9318 15.6257 24.058 15.0181C24.1451 14.5971 24.4554 14.2819 24.8407 14.167C28.5251 13.0741 29.4315 9.46538 27.7351 7.39187Z" fill="#B9F0FF"/>
<path d="M37.1116 10.9346C38.6956 8.54511 41.8857 7.90335 44.8584 10.0184C46.2893 11.0258 48.5632 11.6301 50.179 10.911C52.018 10.0135 52.1116 8.57361 51.3314 7.76326C50.2173 6.60352 48.4549 7.47741 48.5925 7.42773C47.9605 7.65984 47.2585 7.33732 47.0255 6.70452C46.3732 4.93315 50.6424 1.91817 54.3464 4.39239C58.5121 7.10278 57.7458 13.7297 52.2411 15.949C47.9051 17.6455 43.5838 15.2673 42.0079 13.4129C41.4964 12.7923 40.8115 12.2434 40.0166 12.276C39.3724 12.2923 38.5311 12.7671 38.668 12.7003C37.5538 13.2517 36.4291 11.9689 37.1116 10.9346Z" fill="#55DAFE"/>
<path d="M44.9202 26.8508C44.939 26.8036 44.9602 26.7572 44.9781 26.7091C44.9911 26.6773 45.0017 26.6448 45.0139 26.6122C45.0342 26.5584 45.0554 26.5039 45.0733 26.4501C45.0823 26.4241 45.0904 26.398 45.0994 26.3703C45.119 26.3101 45.1401 26.2498 45.158 26.1887C45.1637 26.1683 45.1702 26.148 45.1751 26.1276C45.1955 26.06 45.215 25.9924 45.2322 25.9257C45.2354 25.9102 45.2395 25.8963 45.2427 25.8817C45.2623 25.8084 45.2794 25.7351 45.2957 25.661C45.2981 25.6528 45.2989 25.6438 45.3014 25.6349C45.3185 25.5551 45.334 25.4769 45.3486 25.3979C45.3494 25.393 45.3502 25.3881 45.3519 25.3841C45.3665 25.3002 45.3787 25.2187 45.3902 25.1348C45.391 25.134 45.391 25.134 45.391 25.1324C46.0189 20.5985 41.8376 16.4743 37.263 16.4222C33.748 16.3823 31.8838 18.5918 30.8755 19.451C28.4885 21.4911 24.4147 21.9293 21.3916 19.6628C20.328 18.9119 17.1778 15.9742 11.6544 16.6942C8.18168 17.2276 6.39728 19.0381 2.26083 19.7711C1.82023 19.8484 1.37638 19.9079 0.930888 19.9511C0.403957 20.0016 0 20.4438 0 20.9748C0 21.5726 0.509015 22.0433 1.10599 22.0018C7.15632 21.5815 9.20784 19.5886 12.2611 19.6888C16.0229 19.8444 17.7739 22.264 18.3465 22.8903C21.9943 26.8565 27.7082 27.7508 32.278 25.4655C34.6463 24.2813 35.354 23.1159 36.2084 22.5466C37.3575 21.7428 39.0393 21.8959 40.3074 22.8602C40.4491 22.9685 40.5851 23.0858 40.7137 23.2136C40.7292 23.2291 40.7439 23.2429 40.7586 23.2576C40.7936 23.2934 40.8286 23.3293 40.8628 23.3659C40.8799 23.3855 40.8978 23.405 40.9149 23.4246C40.9475 23.4612 40.9784 23.4979 41.0102 23.5353C41.0281 23.5565 41.0452 23.5801 41.0623 23.6021C41.1128 23.664 41.1609 23.7283 41.2081 23.7935C41.2301 23.8253 41.2529 23.857 41.2749 23.8888C41.2969 23.9214 41.318 23.9556 41.3392 23.9889C41.3612 24.0248 41.384 24.0606 41.4052 24.0965C41.4247 24.1299 41.4443 24.1632 41.4622 24.1974C41.485 24.2382 41.5078 24.2797 41.529 24.3212C41.5453 24.3522 41.5616 24.3831 41.5778 24.4149C41.6063 24.4743 41.634 24.5354 41.6625 24.5981C41.6699 24.6144 41.6772 24.6299 41.6837 24.6462C41.7155 24.7227 41.7448 24.8001 41.7741 24.8791C41.7831 24.9052 41.7912 24.9321 41.8002 24.9597C41.8197 25.0168 41.8385 25.077 41.8564 25.1357C41.8653 25.1658 41.8735 25.1943 41.8816 25.2244C41.8987 25.2863 41.915 25.349 41.9297 25.4134C41.9362 25.4386 41.9427 25.4647 41.9476 25.4907C41.968 25.5811 41.9867 25.674 42.0005 25.7677C42.0812 26.5153 42.003 27.0561 41.9215 27.4796C41.8116 28.0611 41.8784 28.7061 42.4118 28.9976C42.9542 29.2957 43.521 29.0172 44.0138 28.3844C44.1522 28.2068 44.285 28.013 44.4088 27.8151C44.5326 27.6172 44.6482 27.4144 44.7541 27.2189C44.7744 27.1758 44.7924 27.1342 44.8111 27.0919C44.8306 27.0504 44.8502 27.0096 44.8681 26.9689C44.8893 26.929 44.9031 26.8907 44.9202 26.8508Z" fill="#55DAFE"/>
</svg>
